STARTFONT 2.1
COMMENT
COMMENT Converted from OpenType font "Q:\font stuff\winfont\Ambiance BT Coalesce.ttf" by "otf2bdf 3.0".
COMMENT
FONT -FreeType-Ambiance BT-Medium-R-Normal--96-960-72-72-P-507-ISO10646-1
SIZE 96 72 72
FONTBOUNDINGBOX 159 129 -39 -47
STARTPROPERTIES 19
FOUNDRY "FreeType"
FAMILY_NAME "Ambiance BT"
WEIGHT_NAME "Medium"
SLANT "R"
SETWIDTH_NAME "Normal"
ADD_STYLE_NAME ""
PIXEL_SIZE 96
POINT_SIZE 960
RESOLUTION_X 72
RESOLUTION_Y 72
SPACING "P"
AVERAGE_WIDTH 507
CHARSET_REGISTRY "ISO10646"
CHARSET_ENCODING "1"
FONT_ASCENT 0
FONT_DESCENT 0
COPYRIGHT "Copyright 1990-2003 as an unpublished work by Bitstream Inc.  All rights reserved.  Confidential."
_OTF_FONTFILE "Q:\font stuff\winfont\Ambiance BT Coalesce.ttf"
_OTF_PSNAME "AmbianceBTCoalesce-Regular"
ENDPROPERTIES
CHARS 225
STARTCHAR 0020
ENCODING 32
SWIDTH 354 0
DWIDTH 34 0
BBX 0 0 0 0
BITMAP
ENDCHAR
STARTCHAR 0021
ENCODING 33
SWIDTH 197 0
DWIDTH 19 0
BBX 37 63 0 -1
BITMAP
0000000078
00000001F0
00000007E0
0000000FC0
0000001F80
0000003F00
0000007E00
000000FC00
000000F800
000001F800
000003F000
000007E000
000007C000
00000F8000
00001F0000
00001E0000
00003E0000
00007C0000
0000780000
0000F00000
0000F00000
0001E00000
0001C00000
0003C00000
0003800000
0007000000
0007000000
0006000000
000E000000
000C000000
001C000000
0018000000
0018000000
0030000000
0030000000
0020000000
0060000000
0040000000
0040000000
00C0000000
0080000000
0080000000
0180000000
0100000000
0100000000
0100000000
0300000000
0200000000
0200000000
0000000000
0000000000
0000000000
0000000000
0000000000
0000000000
0300000000
0E00000000
3C00000000
7C00000000
F800000000
F800000000
F000000000
6000000000
ENDCHAR
STARTCHAR 0022
ENCODING 34
SWIDTH 197 0
DWIDTH 19 0
BBX 16 19 6 29
BITMAP
380F
7C1F
FC3F
FC3F
7C1F
7C1F
3C0F
3C0F
380E
1806
1806
1806
1806
1806
1004
1004
1004
1004
0004
ENDCHAR
STARTCHAR 0023
ENCODING 35
SWIDTH 739 0
DWIDTH 71 0
BBX 81 51 2 18
BITMAP
0000000000030000000000
00000000000FC000F00000
00000000001F8001F80000
00000000003E0007F00000
00000000007C000FC00000
0000000000F8001F800000
0000000001F0003F000000
0000000003E0007E000000
0000000007C0007C000000
000000000F8000F8000000
000000001F0001E0000000
000000001E1FFFFFFFC000
000000007FFFFFFFFFFF80
0000003FFFFC0780000080
000007FFF8000F00000000
0000FFFCF0000E00000000
000FFF81E0001C00000000
003FF803C0003C00000000
00FFC00380007800000000
007E000780007000000000
003C00070000E000000000
0000000E0001C000000000
0000001E0001C000000000
0000001C00038000000000
0000003800030000000000
0000003800070000000000
0000007000060000000000
00000070000E0000000000
000000E00FFFFFFFC00000
000000E7FFFFFFFFFF8000
00007FFFF0180000018000
000FFFF000180000000000
01FFF98000300000000000
0FFF818000300000000000
7FF8030000300000000000
FFC0030000600000000000
FE00030000600000000000
3800060000600000000000
0000060000E00000000000
0000060000C00000000000
0000060000C00000000000
0000060000C00000000000
0000060000C00000000000
0000060000C00000000000
0000060000C00000000000
0000060000C00000000000
0000070000C00000000000
0000030000E00000000000
0000030000600000000000
0000010000600000000000
0000000000200000000000
ENDCHAR
STARTCHAR 0024
ENCODING 36
SWIDTH 302 0
DWIDTH 29 0
BBX 37 68 4 4
BITMAP
0000000008
0000000038
0000000070
00000000E0
00000000E0
00000001C0
0000000380
0000000700
0000000700
0000000E00
0000000C00
0000001800
0000001800
0000003000
000001FC00
000007FF00
00001FFF80
00003F8180
00007C0080
0000F80000
0000F00000
0001E00000
0001E00000
0001C00000
0001C00000
0001C00000
0001C00000
0001C00000
0001C00000
0000C00000
0000C00000
0000C00000
0000600000
0000600000
0000600000
0000600000
0000200000
0000300000
0000300000
0000300000
2000300000
4000300000
8000300000
8000700000
8000600000
8000E00000
8000C00000
C003C00000
6007800000
703F000000
3FFE000000
0FFC000000
03E0000000
0100000000
0300000000
0300000000
0600000000
0600000000
0E00000000
0C00000000
1C00000000
1C00000000
1C00000000
1800000000
3800000000
3800000000
3800000000
3800000000
ENDCHAR
STARTCHAR 0025
ENCODING 37
SWIDTH 572 0
DWIDTH 55 0
BBX 71 85 -4 -14
BITMAP
000000000001FFF000
0000000000FFFFFE00
000000033FFE000780
00000001FF00000060
00000000E000000010
00000000F00000001E
00000000700000007C
0000000078000000F8
0000000078000003E0
0000000078000007C0
000000007800000F80
000000007800001F00
000000607800007E00
000001F0F00000F800
000003E0F00001F000
000007C0F00003E000
000007C0E00007C000
00000F81E0000F8000
00001F01E0001E0000
00001E01C0003C0000
00003C03C000780000
000038038000F00000
000078078001E00000
000070070003C00000
0000F00F0007800000
0000E00E000F000000
0000E01E001C000000
0001C01C0038000000
0001C0380070000000
0001807800E0000000
000380F001C0000000
000380E00380000000
000301C00700000000
000303C00E00000000
000307001C00000000
00031E003800000000
0001FC007000000000
0000F000E000000000
00000001C000000000
000000038000000000
000000070000000000
0000000E0000000000
0000000C003F000000
0000001800FF800000
0000003001C3C00000
000000600301C00000
000000C00400E00000
000001C00800E00000
000003801000E00000
000007002000E00000
000006006000E00000
00000C0040C0E00000
0000180081E0C00000
0000300083C0C00000
0000700087C1C00000
0000E0010781C00000
0000C0010F81800000
000180001F01800000
000300001E03000000
000700003C03000000
000E00003C07000000
000C00007806000000
00180000700E000000
00380000700C000000
00700000E01C000000
00600000C018000000
00C00001C030000000
01C000018070000000
018000018060000000
0300000300C0000000
0700000301C0000000
060000030380000000
0E0000030700000000
0C0000038E00000000
1C000001FC00000000
18000000F000000000
380000000000000000
300000000000000000
700000000000000000
600000000000000000
E00000000000000000
E00000000000000000
C00000000000000000
C00000000000000000
400000000000000000
ENDCHAR
STARTCHAR 0026
ENCODING 38
SWIDTH 739 0
DWIDTH 71 0
BBX 67 85 1 -24
BITMAP
00000000000001C000
00000000000007E000
0000000000000E2000
0000000000001C2000
000000000000184000
000000000000304000
000000000000608000
000000000000E10000
000000000000C20000
0000000000018C0000
000000000001900000
000000000003600000
000000000003800000
000000000006000000
00000000000E000000
000000000016000000
00000000006C000000
00000000018C000000
00000000060C000000
00000000181C000000
000000006018000000
000000018018000000
000000070018000000
0000000C0018000000
000000300030000000
000000E0003003FE00
0000018000303FFF80
000007000031C03FC0
00001C0000760007E0
0000380000780003E0
0000F00000600001E0
0001C00000E00001E0
0003800003E00001E0
000F000004C00001C0
001E000008C00001C0
003C000010C00001C0
0078000021C0000380
00F000004180000300
01E000008180000700
03C000010180000600
078000020380000C00
0F8000040300001C00
1F0000040300003800
1F0000080700007000
3E000010070000E000
7E000010070001C000
7C0000200600038000
7C0000200E00070000
FC0000400E001E0000
FC0000400C00380000
FC0000C01C00F00000
FC0000801C01C00000
FE0000801C07800000
FE000000381E000000
7F0000003878000000
7F8000003BE0000000
3FC000007F00000000
1FF800007C00000000
07FF0007F000000000
01FFFFFEF000000000
001FFF80E000000000
00000000E000000000
00000001E000000000
00000001C000000000
00000003C000000000
000000038000000000
000000038000000000
000000078000000000
000000070000000000
0000000F0000000000
0000001E0000000000
0000001E0000000000
0000003C0000000000
0000003C0000000000
000000780000000000
000000F00000000000
000000F00000000000
000001E00000000000
020003C00000000000
020007800000000000
03000F000000000000
01801E000000000000
00C07C000000000000
007FF8000000000000
000FC0000000000000
ENDCHAR
STARTCHAR 0027
ENCODING 39
SWIDTH 93 0
DWIDTH 9 0
BBX 6 18 6 29
BITMAP
38
7C
FC
FC
7C
78
38
38
38
18
18
18
10
10
10
10
10
10
ENDCHAR
STARTCHAR 0028
ENCODING 40
SWIDTH 364 0
DWIDTH 35 0
BBX 52 66 5 -6
BITMAP
000000000001F0
00000000001FF0
0000000000FE00
0000000007C000
000000001E0000
00000000780000
00000001C00000
00000007800000
0000001E000000
00000038000000
000000F0000000
000001C0000000
00000380000000
00000F00000000
00001E00000000
00003C00000000
00007800000000
0000F000000000
0001E000000000
0003C000000000
00078000000000
000F0000000000
001E0000000000
001E0000000000
003C0000000000
00780000000000
00F80000000000
00F00000000000
01E00000000000
03E00000000000
03C00000000000
07C00000000000
07800000000000
0F800000000000
0F800000000000
1F000000000000
1F000000000000
1E000000000000
3E000000000000
3E000000000000
3E000000000000
7C000000000000
7C000000000000
7C000000000000
7C000000000000
78000000000000
F8000000000000
F8000000000000
F8000000000000
F8000000000000
F8000000000000
F8000000000000
F8000000000000
F8000000000000
F8000000000000
F8000000000000
FC000000000000
7C000000000000
7C000000000000
7E000000000000
3E000000000000
1F000000000000
1FC00000000000
07F00000000000
03FE0000000000
00FC0000000000
ENDCHAR
STARTCHAR 0029
ENCODING 41
SWIDTH 385 0
DWIDTH 37 0
BBX 45 70 -11 -9
BITMAP
0000007FE000
00000007F800
00000000FC00
000000003F00
000000001F80
000000000F80
0000000007C0
0000000003E0
0000000001E0
0000000001E0
0000000001F0
0000000000F0
0000000000F0
0000000000F8
000000000078
000000000078
000000000078
000000000078
000000000078
000000000078
000000000078
000000000078
000000000078
000000000078
000000000078
0000000000F8
0000000000F0
0000000000F0
0000000000F0
0000000000F0
0000000001E0
0000000001E0
0000000001E0
0000000003C0
0000000003C0
0000000003C0
000000000780
000000000780
000000000F00
000000000F00
000000000E00
000000001E00
000000001C00
000000003800
000000007800
000000007000
00000000E000
00000000E000
00000001C000
000000038000
000000030000
000000060000
0000000C0000
0000001C0000
000000180000
000000300000
000000600000
000000C00000
000001000000
000002000000
000004000000
000018000000
000020000000
000040000000
000180000000
000600000000
001800000000
00E000000000
FF8000000000
FC0000000000
ENDCHAR
STARTCHAR 002A
ENCODING 42
SWIDTH 395 0
DWIDTH 38 0
BBX 30 30 6 21
BITMAP
00010000
00030000
00030000
00030000
08030040
04030080
06030300
03030600
01830C00
00C31C00
00633800
00337000
001BE000
000FC7F8
FFFFFFFC
3FFFFFFC
000FC000
001FE000
003B7000
00733800
00E31C00
01E30F00
03C30780
07830380
0F030180
04038080
00038000
00038000
00030000
00030000
ENDCHAR
STARTCHAR 002B
ENCODING 43
SWIDTH 447 0
DWIDTH 43 0
BBX 32 31 6 2
BITMAP
00018000
00038000
00038000
00038000
00038000
00038000
00038000
00038000
00038000
00038000
00018000
00018000
00018000
00018000
00018000
FFFFFFFE
FFFFFFFF
7F818000
00018000
00018000
00018000
00018000
00018000
00018000
00018000
00018000
00018000
00018000
00018000
00018000
00018000
ENDCHAR
STARTCHAR 002C
ENCODING 44
SWIDTH 156 0
DWIDTH 15 0
BBX 9 19 -4 -12
BITMAP
0600
0F00
0F80
0F80
0780
0700
0700
0700
0600
0E00
0C00
0C00
1800
1000
3000
6000
4000
C000
8000
ENDCHAR
STARTCHAR 002D
ENCODING 45
SWIDTH 302 0
DWIDTH 29 0
BBX 20 3 3 13
BITMAP
7FFF80
FFFFF0
7FC000
ENDCHAR
STARTCHAR 002E
ENCODING 46
SWIDTH 156 0
DWIDTH 15 0
BBX 8 8 -2 -1
BITMAP
03
0E
3C
7C
F8
F8
F0
60
ENDCHAR
STARTCHAR 002F
ENCODING 47
SWIDTH 447 0
DWIDTH 43 0
BBX 71 80 -1 -11
BITMAP
00000000000000000E
00000000000000003C
0000000000000000F8
0000000000000001F0
0000000000000007C0
000000000000000F80
000000000000001F00
000000000000003E00
000000000000007C00
00000000000001F800
00000000000003E000
00000000000007C000
0000000000000F8000
0000000000001F0000
0000000000003E0000
0000000000007C0000
000000000000F00000
000000000001E00000
000000000003C00000
000000000007800000
00000000000F000000
00000000001E000000
00000000003C000000
000000000078000000
0000000000F0000000
0000000001E0000000
0000000003C0000000
000000000780000000
000000000E00000000
000000001C00000000
000000003800000000
000000007000000000
00000000E000000000
00000000C000000000
000000018000000000
000000030000000000
000000070000000000
0000000E0000000000
0000001C0000000000
000000380000000000
000000700000000000
000000600000000000
000000C00000000000
000001800000000000
000003000000000000
000006000000000000
00000C000000000000
00001C000000000000
000018000000000000
000030000000000000
000060000000000000
0000C0000000000000
000180000000000000
000180000000000000
000300000000000000
000600000000000000
000C00000000000000
000C00000000000000
001800000000000000
003000000000000000
006000000000000000
006000000000000000
00C000000000000000
018000000000000000
018000000000000000
030000000000000000
070000000000000000
060000000000000000
0C0000000000000000
1C0000000000000000
180000000000000000
380000000000000000
300000000000000000
700000000000000000
700000000000000000
E00000000000000000
E00000000000000000
E00000000000000000
E00000000000000000
400000000000000000
ENDCHAR
STARTCHAR 0030
ENCODING 48
SWIDTH 604 0
DWIDTH 58 0
BBX 54 56 3 -7
BITMAP
0000000FFE0000
000001F003C000
00000F00007800
00007800001C00
0001C000000700
00078000000380
001E00000001C0
0078001F0000C0
00F001FF000060
01E007F0000030
03C00F80000030
07803E00000018
0F00F800000018
1E01F000000018
1C03C000000008
3C07800000000C
780F000000000C
701E000000000C
703C000000000C
F078000000000C
E0F0000000000C
E1E0000000000C
E1C0000000000C
C3C0000000001C
C780000000001C
C7000000000018
CE000000000018
CE000000000038
DC000000000038
D8000000000030
78000000000070
70000000000070
600000000000E0
600000000001E0
F00000000001C0
CC0000000003C0
C7000000000780
80000000000780
80000000000F00
80000000001E00
80000000003E00
80000000007C00
8000000000F800
8000000001F000
C000000007E000
400000000FC000
400000001F8000
600000007F0000
20000001FE0000
10000007F80000
1C00001FF00000
0E0000FFC00000
07C00FFF000000
01FFFFFC000000
007FFFE0000000
000FFE00000000
ENDCHAR
STARTCHAR 0031
ENCODING 49
SWIDTH 385 0
DWIDTH 37 0
BBX 43 57 -6 -9
BITMAP
0000000001C0
0000000003E0
0000000007C0
000000000FC0
000000000F80
000000001F00
000000003F00
000000007E00
00000000FC00
000000013800
000000063800
0000000C7000
00000010E000
00000020C000
000000418000
000000818000
000001030000
000006060000
00000C060000
0000100C0000
000000080000
000000100000
000000300000
000000200000
000000400000
000000C00000
000000800000
000001800000
000001000000
000002000000
000002000000
000004000000
00000C000000
000008000000
000018000000
000010000000
000030000000
000020000000
000060000000
000060000000
0000C0000000
0000C0000000
0000C0000000
000180000000
000180000000
000180000000
0003FFF00000
0003FFFE0000
000FE00F0000
007F80000000
03F380000000
0F8380000000
3E03C8000000
F801F0000000
F00000000000
E00000000000
400000000000
ENDCHAR
STARTCHAR 0032
ENCODING 50
SWIDTH 625 0
DWIDTH 60 0
BBX 60 53 -4 -7
BITMAP
00000000007F8000
0000000007C07000
000000003C001C00
00000001F0000E00
0000000780000700
0000000F00000700
0000003C00000780
0000007800000780
000000F000000780
000001E000000780
000001C000000780
0000038000000F80
0000038000000F00
0000030000001F00
0000030000001E00
0000030000003E00
0000030000007C00
0000010000007C00
000000000000F800
000000000001F000
000000000003E000
000000000007C000
00000000000F8000
00000000001F0000
00000000003E0000
00000000007C0000
0000000000F00000
0000000003E00000
0000000007C00000
000000000F000000
000000003E000000
0000000078000000
00000001F0000000
00000003C0000000
0000000F00000000
0000003E00000000
0000007800000000
000001E000000000
00000780000F8000
00001E0000007000
3FC0780000000C00
7FFDE00000000200
E01F800000000180
C01CF000000000C0
E0E01E0000000060
7F0003C000000030
000000F800000030
0000003F00000030
00000007F8000070
00000000FFE001E0
000000003FFFFFC0
0000000003FFFF00
00000000003FF800
ENDCHAR
STARTCHAR 0033
ENCODING 51
SWIDTH 656 0
DWIDTH 63 0
BBX 60 54 -2 -8
BITMAP
00000000003FE000
0000000003FFFE00
000000001F801F80
00000000700001C0
00000001C0000060
0000000300000030
0000000600000030
0000000400000030
0000000400000030
0000000000000070
0000000000000070
00000000000000E0
00000000000001C0
0000000000000780
0000000000000F00
0000000000007E00
000000000003F800
00000000001FE000
0000000001FF0000
000000003FF00000
00000001FF800000
00000003FFFC0000
0000000003FF8000
00000000000FE000
000000000001F800
0000000000007C00
0000000000003E00
0000000000000F00
0000000000000F80
0000000000000780
00000000000003C0
00000000000003C0
00000000000003C0
007FC000000003C0
03FFF800000003C0
0F803F00000003C0
180003E0000007C0
3000003C00000780
6000000700000780
C0000001C0000F80
C000000030001F00
C00000000C003E00
C000000000007C00
C00000000000FC00
C00000000001F800
600000000007E000
70000000001FC000
38000000007F0000
1C00000003FC0000
0E0000001FF00000
03C00000FFC00000
00FC003FFE000000
001FFFFFE0000000
0001FFF800000000
ENDCHAR
STARTCHAR 0034
ENCODING 52
SWIDTH 697 0
DWIDTH 67 0
BBX 66 62 0 -10
BITMAP
000000000000000E00
000000000000001E00
000000000000003800
000000000000007000
00000000000000E000
00000000000001C000
000000000000030000
000000000000060000
0000000000000C0000
000000000000380000
000000000000700000
000000000000E00000
000000000003C00000
000000000007C00000
00000000000F800000
000000000037000000
00000000006E000000
0000000001DC000000
00000000031C000000
000000000E38000000
000000001C70000000
000000007060000000
00000000E0E0000000
0000000381C0000000
0000000F0180018000
0000001C0380007000
000000780700000C00
000001E00700000200
000007800E00000100
00001F000C00000080
00007C001C000000C0
7FC1F00018000000C0
FFFF800038000001C0
FFFFE00030000001C0
3FC0FF0070000007C0
00000FFC6000001F80
000000FFFE0001FF00
0000000FFFFFFFFE00
00000000DFFFFFF000
00000001803FFF8000
000000018000000000
000000010000000000
000000030000000000
000000030000000000
000000020000000000
000000020000000000
000000060000000000
000000060000000000
000000040000000000
000000040000000000
000000040000000000
000000040000000000
000000040000000000
000000040000000000
000000040000000000
000000040000000000
000000060000000000
000000060000000000
000000070000000000
000000030000000000
000000038000000000
00000001C000000000
ENDCHAR
STARTCHAR 0035
ENCODING 53
SWIDTH 677 0
DWIDTH 65 0
BBX 76 62 -8 -11
BITMAP
00000000000000000300
00000000000000000180
00000000000000000040
00000000000000000020
0000001FF00000000010
0000007FFF8000000010
000000400FF000000010
0000008000FF00000010
00000080001FE0000030
000000600003FE000060
0000000000007FE003C0
0000000000000FFFFF80
00000000000000FFFF00
000000000700000FFC00
000000000F0000000000
000000000E0000000000
000000001E0000000000
000000001C0000000000
000000003C0000000000
00000000380000000000
00000000700000000000
00000000700000000000
00000000E00000000000
00000001E00000000000
00000001C003FF800000
00000003C03FFFF00000
0000000380FC00FC0000
000000078780001F0000
000000073800000F0000
0000000FC00000078000
0000000E00000003C000
0000000000000003C000
0000000000000003C000
0000000000000003C000
0000000000000003C000
0000000000000003C000
0000000000000007C000
00000000000000078000
000000000000000F8000
000000000000000F0000
000000000000001F0000
000000000000003E0000
000000000000007C0000
000001FFC00000FC0000
00003F80000001F80000
0007F800000003F00000
003F8000000007E00000
01FC000000000FC00000
07E0000000001F800000
1F00000000007E000000
3C0000000000FC000000
780000000003F8000000
E0000000000FE0000000
E0000000003F80000000
C000000000FE00000000
C000000003F800000000
C00000001FE000000000
60000001FF0000000000
3800001FF80000000000
0F0007FFC00000000000
03FFFFF8000000000000
007FFC00000000000000
ENDCHAR
STARTCHAR 0036
ENCODING 54
SWIDTH 541 0
DWIDTH 52 0
BBX 49 66 1 -18
BITMAP
00000000000180
00000000000600
00000000001800
00000000006000
00000000018000
00000000060000
00000000180000
00000000200000
00000000C00000
00000003000000
00000004000000
00000018000000
00000020000000
000000C0000000
00000180000000
00000300000000
00000C00000000
00001800000000
00003000000000
00006000000000
0001C000000000
00038000000000
00070000000000
000E0000000000
001C0000000000
00380000000000
00700000000000
00F000007F8000
01E00003FFE000
01C0000E03F800
0380007000F800
07800080007C00
0F000300003C00
0E000C00003C00
1E001000003C00
1C002000003C00
3C00C000003C00
38010000007800
78020000007800
7804000000F800
7008000000F000
F010000001E000
F020000003C000
F0400000078000
F08000000F0000
F10000003E0000
F10000007C0000
F2000001F00000
7C000007C00000
7C00001F000000
3C00007C000000
0E0003E0000000
07803F00000000
0C7FE000000000
0C000000000000
0C000000000000
0C000000000000
0C000000000000
0C000000000000
04000000000000
06000000000000
06000000000000
03000000000000
01800000000000
00C00000000000
00600000000000
ENDCHAR
STARTCHAR 0037
ENCODING 55
SWIDTH 458 0
DWIDTH 44 0
BBX 50 58 2 -9
BITMAP
03FF0000000000
3FFFFC00000040
7FFFFFC0000180
F81FFFFF000E00
C0000FFFFFF800
4000001FFF9000
20000000002000
1000000000C000
0C000000010000
03000000060000
000000000C0000
00000000100000
00000000600000
00000000C00000
00000001800000
00000007000000
0000000E000000
00000018000000
00000030000000
00000060000000
000001C0000000
00000380000000
00000700000000
00000E00000000
00001C00000000
00003800000000
00007800000000
0000F000000000
0001E000000000
0001C000000000
00038000000000
00070000000000
000F0000000000
001E0000000000
001C0000000000
00380000000000
00780000000000
00700000000000
00E00000000000
00E00000000000
01C00000000000
01C00000000000
03800000000000
03800000000000
07000000000000
07000000000000
0E000000000000
0E000000000000
0E000000000000
0E000000000000
1C000000000000
1C000000000000
1C000000000000
1C000000000000
1C000000000000
1C000000000000
1C000000000000
0F000000000000
ENDCHAR
STARTCHAR 0038
ENCODING 56
SWIDTH 562 0
DWIDTH 54 0
BBX 90 67 -4 -8
BITMAP
0000000000000000000003C0
000000000000000000003F00
00000000000000000003E000
0000000000000000000F0000
000000000000000000780000
000000000000000001C00000
000000000000000007000000
00000000000000001C000000
0000000000000000F0000000
0000000000000003C0000000
000000000000000700000000
00000000003FFC1C00000000
0000000007FFFFF000000000
000000007FE001F000000000
00000001FE00070800000000
00000007F0000C0400000000
0000001F8000380200000000
0000003E0000E00200000000
0000007C0001C00200000000
000000F80007000200000000
000001F0000E000000000000
000001E00038000000000000
000001E00070000000000000
000001E001C0000000000000
000001E00380000000000000
000000F00600000000000000
000000701C00000000000000
000000383000000000000000
0000001C6000000000000000
0000000FC000000000000000
000000070000000000000000
000000058000000000000000
00000008C000000000000000
000000306000000000000000
000000403000000000000000
000000801800000000000000
000003000C00000000000000
000004000600000000000000
000008000300000000000000
000010000100000000000000
000020000180000000000000
0000C00000C0000000000000
0001000000C0000000000000
000200000040000000000000
000400000060000000000000
000800000060000000000000
001000000060000000000000
002000000060000000000000
00C000000060000000000000
010000000060000000000000
0200000000E0000000000000
0200000000C0000000000000
0400000001C0000000000000
0800000003C0000000000000
100000000780000000000000
200000000F00000000000000
200000001E00000000000000
400000007C00000000000000
40000001F800000000000000
C0000007F000000000000000
C000003FE000000000000000
E00003FF8000000000000000
FC007FFE0000000000000000
FFFFFFF00000000000000000
7FFFFF800000000000000000
1FFFFC000000000000000000
07FF80000000000000000000
ENDCHAR
STARTCHAR 0039
ENCODING 57
SWIDTH 562 0
DWIDTH 54 0
BBX 61 67 4 -17
BITMAP
0000000000FFF800
000000003F0007C0
00000003C00000F0
0000001C00000038
000000E000000018
0000030000000018
00001C0000000010
0000700000000030
0000C00000000020
0003000000000040
000E000000000000
001C000000000000
0030000000300000
0060000000700000
01C0000000E00000
0380000001E00000
0300000003C00000
0700000007800000
0E0000000F800000
1C0000001F000000
1C0000003E000000
380000005C000000
38000000BC000000
7000000178000000
70000002F0000000
F0000004E0000000
E0000009E0000000
E0000013C0000000
E000002780000000
E000004700000000
E000008F00000000
E000011E00000000
6000061C00000000
7000083800000000
3000307800000000
1800C07000000000
0E0700E000000000
01F801E000000000
000001C000000000
0000038000000000
0000078000000000
0000070000000000
00000E0000000000
00000E0000000000
00001C0000000000
0000380000000000
0000380000000000
0000700000000000
0000700000000000
0000E00000000000
0000C00000000000
0001C00000000000
0001800000000000
0001800000000000
0003000000000000
0003000000000000
0003000000000000
0006000000000000
0006000000000000
0006000000000000
0004000000000000
0004000000000000
0004000000000000
0004000000000000
0002000000000000
0002000000000000
0001800000000000
ENDCHAR
STARTCHAR 003A
ENCODING 58
SWIDTH 177 0
DWIDTH 17 0
BBX 13 23 -1 -1
BITMAP
0018
0038
0078
00F0
01F0
01F0
01E0
00C0
0000
0000
0000
0000
0000
0000
0000
0300
0E00
3C00
7800
F800
F800
F000
6000
ENDCHAR
STARTCHAR 003B
ENCODING 59
SWIDTH 177 0
DWIDTH 17 0
BBX 15 36 -3 -14
BITMAP
0002
000E
001E
003C
007C
007C
0078
0030
0000
0000
0000
0000
0000
0000
0000
0000
0000
0700
0F80
0F80
0F80
0780
0700
0700
0700
0600
0E00
0C00
0C00
1800
1000
3000
6000
4000
C000
8000
ENDCHAR
STARTCHAR 003C
ENCODING 60
SWIDTH 447 0
DWIDTH 43 0
BBX 19 29 11 4
BITMAP
000060
0000C0
0001C0
000380
000700
000E00
001C00
003800
007000
01E000
03C000
078000
0F0000
1E0000
3C0000
780000
7C0000
FE0000
7F0000
3FC000
0FE000
03F000
01F800
007E00
001F00
000F80
0003C0
0001E0
000060
ENDCHAR
STARTCHAR 003D
ENCODING 61
SWIDTH 447 0
DWIDTH 43 0
BBX 29 13 7 12
BITMAP
7FFFFF80
FFFFFFF8
7FFE0000
00000000
00000000
00000000
00000000
00000000
00000000
00000000
7FFFFF00
FFFFFFF8
7FFC0000
ENDCHAR
STARTCHAR 003E
ENCODING 62
SWIDTH 447 0
DWIDTH 43 0
BBX 19 29 12 4
BITMAP
C00000
E00000
780000
3E0000
1F0000
0FC000
07F000
01F800
00FE00
007F80
003FC0
000FE0
0007C0
0007C0
000780
000F00
001E00
003C00
007800
00F000
01C000
038000
070000
0E0000
1C0000
380000
700000
600000
C00000
ENDCHAR
STARTCHAR 003F
ENCODING 63
SWIDTH 614 0
DWIDTH 59 0
BBX 66 72 2 -1
BITMAP
000000001FFC000000
00000003FFFFC00000
0000003FE000F80000
000001F80000070000
00000F80000000C000
00003E000000003000
0000F0000000000C00
0003C0000000000200
000F00000000000300
001E00000000000180
007800000000000080
00F0000000000000C0
01E0000000000000C0
03C0000000000000C0
03C0000000000000C0
0780000000000000C0
0700000000000001C0
0F00000000000001C0
0E0000000000000380
1E0000000000000780
1E00003C0000000F00
1F0003F00000001E00
1F807E000000007E00
0FFFE000000000FC00
03FC0000000003F800
0000000000000FE000
0000000000003FC000
000000000000FF8000
000000000003FE0000
00000000001FF80000
00000000007FE00000
0000000001FF800000
000000000FFC000000
000000003FF0000000
00000000FF80000000
00000007FC00000000
0000001FF000000000
0000007F8000000000
000001FE0000000000
000007F00000000000
00001FC00000000000
00003F000000000000
0000F8000000000000
0003E0000000000000
000780000000000000
000F00000000000000
003C00000000000000
007000000000000000
00E000000000000000
01C000000000000000
038000000000000000
030000000000000000
060000000000000000
060000000000000000
060000000000000000
030000000000000000
010000000000000000
000000000000000000
000000000000000000
000000000000000000
000000000000000000
000000000000000000
000000000000000000
000000000000000000
030000000000000000
0E0000000000000000
3C0000000000000000
7C0000000000000000
F80000000000000000
F80000000000000000
F00000000000000000
600000000000000000
ENDCHAR
STARTCHAR 0040
ENCODING 64
SWIDTH 916 0
DWIDTH 88 0
BBX 79 66 5 3
BITMAP
000000000007FF000000
00000000007FFFF00000
0000000003FFFFF80000
000000000FFF007C0000
000000007FE0000FFE00
00000001FF80001FFF80
00000003FC00003F0FE0
0000000FF000000381F0
0000001FC000000180F8
0000007F000000018078
000000FC00000000803C
000003F800000000C01C
000007E000000000C00C
00000FC000000000C00E
00001F0000000000C00E
00003E0000000000C006
00007C000000FC00C006
0000F000000FFE00C006
0001E000003F8600C006
0003C000007C0301C006
0007800001F00301C006
000F000003E00001C006
000E00000F8000018004
001C00001F01C003800C
003800003E03E003800C
007000007C07C003800C
00600000F80FC0070018
00C00000F01F80070018
01C00001E037800F0038
01800003C02F000E0030
03000007804F001E0030
0300000F009E001C0060
0600000F011E003C0060
0C00001E021C007800C0
0C00003C043C007001C0
08000038083800F00180
18000078107801E00380
10000070207803C00700
300000E0407003800600
200001E080F007000C00
200001C100E00E001C00
600003C200E01C003800
6000038400E038007000
4000078800E0F000E000
C000071000E1C001C000
C0000F2000FF00038000
C0000FC0007C00070000
C0000F800000000E0000
C00007000000001C0000
C0000000000000380000
C0000000000000F00000
C0000000000001E00000
E0000000000003800000
6000000000000F000000
7000000000001E000000
70000000000078000000
380000000001F0000000
1C0000000007C0000000
1E000000001F00000000
0F80000000FE00000000
07E0000003F800000000
01F800003FE000000000
00FF8003FF0000000000
003FFFFFF80000000000
0007FFFFC00000000000
00007FFC000000000000
ENDCHAR
STARTCHAR 0041
ENCODING 65
SWIDTH 875 0
DWIDTH 84 0
BBX 103 74 -12 -11
BITMAP
00000000000000003FFFC00000
000000000000000FFFFFFF8000
00000000000000FFC001FFF800
00000000000007F0000003FF00
0000000000001F800000003FFC
0000000000007C0000000003FE
000000000000F00000000000FE
000000000001C000000000003C
0000000000038000000000003C
00000000000700000000000038
00000000000600000000000078
000000000006000000000000F0
00000000000600000000000CE0
000000000006000000000019E0
000000000002000000000031C0
00000000000100000000002380
00000000000080000000004380
00000000000040000000008700
00000000000030000000010700
0000000000000C000000020E00
00000000000003000000040C00
00000000000000000000041C00
00000000000000000000083800
00000000000000000000103800
00000000000000000000207000
00000000000000000000207000
0000000000000000000040E000
0000000000000000000080E000
0000000000000000000101C000
0000000000000000000201C000
00000000000000000006038000
0000000000000000000C038000
00000000000000000018070000
000000000000007FFFFF870000
0000000000007FFF003FFFF800
00000000001FE00000600E0780
0000000001FC000000C01E0000
000000001F80000000801C0000
00000000FC00000001001C0000
00000007E00000000200380000
0000003F000000000600380000
000000FC000000000C00700000
000003E0000000001800700000
00000F80000000001000F00000
00003F00000000002000E00000
0000FC00000000004000E00000
0003F000000000008001E00000
0007E000000000010001C00000
001F8000000000020003C00000
003F0000000000040003C00000
007E0000000000080003800000
00F80000000000100003800000
01F00000000000200007800000
03E00000000000400007800000
07C00000000001800007000000
0F80000000000300000F000000
1F00000000000400000F000000
3E00000000000800000F000000
3C00000000003000000F000000
7800000000006000000F000000
7000000000018000000F000000
F000000000030000000F000000
E0000000000C0000000F810000
E0000000001800000007820000
C0000000006000000007C40000
C000000001C000000001F80000
C0000000070000000000000000
C00000001C0000000000000000
40000000F00000000000000000
20000007C00000000000000000
3800003F000000000000000000
0E000FF8000000000000000000
03FFFFC0000000000000000000
007FF800000000000000000000
ENDCHAR
STARTCHAR 0042
ENCODING 66
SWIDTH 906 0
DWIDTH 87 0
BBX 85 76 5 -10
BITMAP
000000000001FFFC000000
0000000000FFFFFFE00000
000000001FFE0003FC0000
00000001FF8000003F0000
0000000FF800000007C000
0000003F8000000000F000
000001FC00000000003C00
000007E000000000001E00
00001F8000000000000F00
00007E0000000000000380
0001F800000000000001C0
0003E000000000000001E0
000FC000000000000000E0
001F000000000000000070
003E00000000001F000070
007C00000000003E000078
00F8000000000078000038
01F00000000000F0000038
03E00000000001E0000038
07C00000000003C0000038
0780000000000780000038
0F00000000000700000038
1F00000000000E00000030
1E00000000001C00000070
3C00000000003C00000070
3C00000000003800000060
38000000000070000000E0
780000000000F0000000C0
700000000000E000000180
700000000001C000000300
F00000000003C000000600
F000000000078000000C00
E000000000070000001800
E0000000000F0000003000
E0000000000E0000006000
E0000000001C0000018000
E0000000003C0000030000
E0000000003800000C0000
E000000000780000300000
E000000000F00000C00000
E000000000E00003000000
6000000001E0000C000000
6000000003C00070000000
7000000003C00180000000
7000000007800E00000000
3000000007007000000000
300000000F00FFF0000000
380000001E0001FF000000
180000001E00000FE00000
1C0000003C000001F80000
0C000000780000007E0000
0E000000780000001F0000
06000000F00000000F8000
03000000E000000003C000
03000001C000000001C000
01800003C000000001E000
00C000038000000000E000
00C0000700000000006000
0060000F00000000006000
0030000E00000000006000
0018001C00000000006000
000C003800000000004000
000600300000000000C000
0003006000000000018000
000180C000000000030000
001FFFFC00000000060000
01FFFFFFF0000000180000
07C01FFFFF800000F00000
18000E07FFFF000F800000
20001E000FFFFFFC000000
20007B00000FFFC0000000
4001E08000000000000000
2007806000000000000000
303F003000000000000000
3FF8000000000000000000
0FC0000000000000000000
ENDCHAR
STARTCHAR 0043
ENCODING 67
SWIDTH 822 0
DWIDTH 79 0
BBX 73 70 5 -8
BITMAP
00000000000FFF000000
0000000000FFFFF80000
00000FF8078007FE0000
0001FFFF1800003F8000
001FF001FE000007E000
007E000787E00001F000
01F0000E007E00007800
07C000380007C0003C00
0F0000700001F8001C00
1E0001C000003F000E00
3C00038000000FC00600
78000700000003F00700
70000C00000000FC0300
F00018000000003F0300
E00030000000000FC380
E000600000000003F180
E000C00000000000FD80
E0018000000000007F80
E0038000000000001F80
60070000000000000780
30060000000000000100
100C0000000000000000
0C1C0000000000000000
02380000000000000000
01B00000000000000000
00700000000000000000
007C0000000000000000
00C7E000000000000000
00C07000000000000000
01800000000000000000
01800000000000000000
03000000000000000000
03000000000000000000
06000000000000000000
06000000000000000000
06000000000000000000
0C000000000000000000
0C000000000000000000
08000000000000000000
18000000000000000000
18000000000000000000
18000000000000000000
18000000000000000000
30000000000000000000
30000000000000000000
30000000000000000000
30000000000000000000
30000000000000000800
30000000000000001000
30000000000000003000
30000000000000006000
3000000000000000C000
30000000000000018000
30000000000000070000
380000000000000E0000
38000000000000180000
18000000000000700000
18000000000000E00000
1C000000000003800000
0C000000000007000000
0E00000000001C000000
07000000000070000000
078000000001E0000000
03C00000000780000000
01E00000003E00000000
00F8000001F000000000
003E00000FC000000000
001FC001FE0000000000
0003FFFFE00000000000
00003FFC000000000000
ENDCHAR
STARTCHAR 0044
ENCODING 68
SWIDTH 1031 0
DWIDTH 99 0
BBX 93 70 4 -4
BITMAP
000000000000000001800000
000000000000000007800000
00000000000000001F000000
00000000000000003E000000
00000000000000007C000000
00001FFF80000000F0000000
0003FFFFFF000001E0000000
001FE0003FFC0003E0000000
007C0000003FC003C0000000
01F000000001FC0780000000
03C0000000001F8F00000000
07000000000001FE00000000
0E0000000000003E00000000
1C0000000000003F80000000
1C00000000000078E0000000
380000000000007038000000
38000000000000F00E000000
38000000000001E003800000
38000000000003C000C00000
380000000000038000700000
380000000000078000380000
3800000000000F00000E0000
1C00000000000E0000070000
1C00000000001E0000038000
0C00000000003C000001C000
0E000000000038000000E000
070000000000780000007000
038000000000700000003800
01C000000000F00000001C00
00E000000001E00000000E00
007000000001C00000000F00
003800000003C00000000700
000E00000003800000000380
0003800000070000000003C0
0000E000000F0000000001C0
00003C00000E0000000001E0
00000780001C0000000000E0
0000007E003C0000000000F0
0000000000380000000000F0
0000000000700000000000F0
0000000000F0000000000078
0000000000E0000000000078
0000000001C0000000000078
0000000003C0000000000078
000000000380000000000078
000000000700000000000078
000000000F00000000000078
000000000E00000000000078
000000001C00000000000078
0000000038000000000000F8
0000000030000000000000F0
0000000070000000000000F0
00000000E0000000000000F0
00000001C0000000000001E0
0000000380000000000001E0
0000000300000000000003C0
000000060000000000000780
0000000C0000000000000780
000000180000000000000F00
000000300000000000001E00
3FC000600000000000003C00
FFFF00C0000000000000F000
C01FF180000000000001E000
C0007FE00000000000078000
E0001FFE00000000001E0000
7000381FE000000000F80000
3800F000FF00000007C00000
1F07C00003FC0001FC000000
07FF00000007FFFE00000000
00FC00000000000000000000
ENDCHAR
STARTCHAR 0045
ENCODING 69
SWIDTH 927 0
DWIDTH 89 0
BBX 93 77 0 -11
BITMAP
00007FE00000000000000000
0003801F0000000000000000
000E0000F000000000000000
001800001F00000000000000
0030000003E0000000000000
00600000007C000000000000
00C00000000F800000000000
018000000003F00000000000
018000000000FE0000000000
0100000000001FC000000000
03000000000007F800000000
03000000000000FF00000000
030000000000003FE0000000
0600000000000007FC000000
0600000000000001FF800000
06000000000000003FF80000
060000000000000007FF0000
060000000000000E00FFF818
060000000000001F800FFFF0
060000000000003F00007FC0
060000000000007E00000000
060000000000007C00000000
06000000000000F800000000
06000000000001F000000000
06000000000001E000000000
03000000000003E000000000
03000000000003C000000000
030000000000078000000000
010000000000078000000000
0180000000000F0000000000
0080000000000F0000000000
00C0000000001E0000000000
00C0000000001E0000000000
0040000000003C0000000000
0060000000003C0000000000
002000000000780000000000
003000000000700000000000
001000000000700000000000
000800000000E00000000000
000C0000000FFFFF80000000
0004000001FFFFFFFF000000
000600001FF9F8000FC00000
000200007F81C00000000000
00010001FC03800000000000
00018007E003800000000000
0000C0078007000000000000
000040070007000000000000
000020000006000000000000
00001000000E000000000000
00001800000C000000000000
00000C00001C000000000000
000006000018000000000000
000003000038000000000000
000001800030000000000000
000000400070000000000000
000000000060000000000000
0000000000E0000000000000
0000000000C0000000000000
0000000001C0000000000000
07FFC0000380000000000000
3801FF000300000000000000
400007F80700000000000000
C000003F8E00000000000000
84000007FC00000000000000
040000007800000000000000
040000007F00000000000000
02000000E7E0000000000000
03000001C0FE000000001000
01800003801FC00000000800
0040000F0003F80000000400
0030003C00007F8000000600
000E03F000000FF000000600
0007FFC0000001FF00000600
0001FE000000003FF8000E00
0000000000000003FFC03C00
00000000000000003FFFF800
000000000000000001FFC000
ENDCHAR
STARTCHAR 0046
ENCODING 70
SWIDTH 1052 0
DWIDTH 101 0
BBX 116 79 4 -16
BITMAP
000000000FFFE00000000000000000
00000003FFFFFF0000000000000000
0000003FF80001F800000000000000
000003FE0000000780000000000000
00001FE00000000078000000000000
0000FE000000000007000000000000
0003F8000000000000E00000000000
000FE00000000000003C0000000000
001F80000000000000078000000000
007E0000000000000001F000000000
00F800000000000000003C00000000
01F000000000000000000F80000000
03E0000000000000000003E0000000
07800000000000000000007C000000
0F000000000000000000001F800000
1F0000000000000000000387E00000
1E0000000000000000000380FC0000
3C00000000000000000007803FC000
38000000000000000000078007FC00
38000000000000000000070000FFE0
700000000000000000000F000007F0
700000000000000000000F00000000
600000000000000000000E00000000
E00000000000000000001E00000000
E00000000000000000001E00000000
E00000000000000000001C00000000
C00000000000000000003C00000000
C00000000000000000003800000000
C00000000000000000007800000000
C00000000000000000007800000000
C00000000000000000007000000000
C0000000000000000000F000000000
C0000000000000003FFFFF80000000
C00000000000003FFFFFFFFC000000
40000000000007FFFE00E03F000000
4000000000007FFF0001C000000000
600000000003FFE00001C000000000
60000000000FFE0000038000000000
60000000003FF00000038000000000
2000000000FF800000070000000000
3000000003FC000000070000000000
300000000FE00000000F0000000000
100000001F800000000E0000000000
180000007E000000001E0000000000
08000000FC000000001C0000000000
08000001F0000000003C0000000000
0C000003C000000000780000000000
040000078000000000700000000000
0600000F0000000000F00000000000
0200001E0000000000E00000000000
0300001C0000000001E00000000000
018000380000000003C00000000000
008000700000000003C00000000000
00C000600000000007800000000000
004000E0000000000F000000000000
006000C0000000000F000000000000
003000C0000000001E000000000000
00100180000000003C000000000000
00180180000000003C000000000000
000C01000000000078000000000000
0006030000000000F0000000000000
0002030000000001E0000000000000
0001030000000003C0000000000000
0001830000000007C0000000000000
0000C3000000000780000000000000
000043000000000F00000000000000
000003000000001E00000000000000
000003000000003C00000000000000
000003800000007800000000000000
00000180000001F000000000000000
000001C0000003E000000000000000
000000C00000078000000000000000
000000E000001F0000000000000000
0000007000003C0000000000000000
000000380000F80000000000000000
0000001E0007E00000000000000000
0000000F803F800000000000000000
00000003FFFC000000000000000000
000000007FE0000000000000000000
ENDCHAR
STARTCHAR 0047
ENCODING 71
SWIDTH 791 0
DWIDTH 76 0
BBX 92 106 -12 -41
BITMAP
000000000000000000FFF000
00000000000000001FFFFE00
0000000000000001FFFFFF80
000000000000000FFC000FC0
000000000000007F000001E0
00000000000001F800000070
000000000000078000000030
0000000000001E0000000030
000000000000700000000030
000000000001C00000000020
000000000003000000000060
00000000000C0000000000C0
000000000038000000000080
000000000060000000000000
0000000000C0000000000000
000000000300000000000000
000000000600000000000000
000000000C00000000000000
000000003000000000000000
000000006000000000000000
00000000C000000000000000
000000018000000000000000
000000030000000000000000
000000060000000000000000
0000000C0000000000000060
0000001C0000000000001F80
00000018000000000001F800
0000003000000000001F8000
000000600000000000FF0000
000000E0000000000FC70000
000000C0000000007E070000
0000018000000001F00E0000
000003800000000FC01E0000
000003000000007E001C0000
00000700000001F0002C0000
00000600000007C0005C0000
00000E0000003E0000D80000
00000C000000F80001B80000
00001C000003E00003380000
00001C00000F800006300000
00001800003C00000E700000
0000380000F000001C700000
0000380003C0000038600000
000038000F00000070E00000
000030003E000000E0E00000
0000700078000001C0C00000
00007001E000000381C00000
000070078000000701C00000
0000700F0000000E01800000
0000703C0000001803800000
000070780000003003000000
000071E0000000E007000000
000073C0000001C007000000
000077800000030006000000
00007E0000000E000E000000
00003C0000003C000C000000
00003800000070001C000000
00007C000001C0001C000000
0001FC000007800038000000
0003CE00001E000038000000
00078F8000F8000070000000
000F03E00FC0000070000000
000E01FFFF00000070000000
001C003FF0000000E0000000
003C000000000000E0000000
0078000000000001C0000000
00F0000000000001C0000000
00E000000000000380000000
01C000000000000380000000
03C000000000000700000000
038000000000000F00000000
070000000000000E00000000
0F0000000000001E00000000
0E0000000000001C00000000
1C0000000000003800000000
1C0000000000003800000000
380000000000007000000000
38000000000000F000000000
30000000000000E000000000
70000000000001C000000000
70000000000003C000000000
600000000000038000000000
600000000000070000000000
E000000000000E0000000000
C000000000001E0000000000
C000000000001C0000000000
C00000000000380000000000
C00000000000700000000000
C00000000000E00000000000
C00000000001E00000000000
C00000000003C00000000000
C00000000007800000000000
40000000000F000000000000
60000000001C000000000000
600000000038000000000000
200000000070000000000000
3000000000E0000000000000
100000000380000000000000
180000000700000000000000
0C0000001E00000000000000
060000007800000000000000
03800001E000000000000000
01E000078000000000000000
007C007E0000000000000000
001FFFF00000000000000000
0003FF000000000000000000
ENDCHAR
STARTCHAR 0048
ENCODING 72
SWIDTH 906 0
DWIDTH 87 0
BBX 113 84 -7 -11
BITMAP
000000000000000000000000000080
000000000000000000000000000180
000000000000000000000000000300
000000000000000000000000000600
000000000000000000000000000400
000000000000000000000000000C00
000000000000000000000000001800
000000000000000000000000003000
000000000000000000000000006000
000000000000000000000000004000
00000000000000000000000000C000
000000000000000000000000018000
00000000000000000F000000030000
00000000000000001E000000020000
00000000000000001E000000060000
00000000000000001F0000000C0000
0000000000000003FF000000180000
00000000000007FFFE000000180000
000000000003FFF83C000000300000
0000000001FFF0003C000000600000
000000001FF0000078000000600000
00000001FC00000078000000C00000
000000078000000078000001800000
0000001C00000000F0000003800000
0000007000000000F0000003000000
000000C000000000E0000006000000
0000018000000000E000000E000000
0000030000000000E000000C000000
0000060000000001C000001C000000
00000C0000000001C0000018000000
0000180000000001C0000038000000
000018000000000380000070000000
000018000000000380000070000000
0000300000000003000000E0000000
0000300000000007000000E0000000
0000300000000007000001C0000000
000030000000000E000001C0000000
000030000000000E00000380000000
000030000000001C00000380000000
000030000000001C00000700000000
000030000000003800000700000000
000030000000003800000E00000000
000018000000007000000E00000000
000018000000007000000C20000000
00001800000000E000001C60000000
00001800000000E000001DC0000000
00000C00000001C000003F00000000
00000C00000001C00003F800000000
00000E007FFFFFFFFFFFB000000000
0000063FFFFFFFFFFFF03000000000
000007FFF000078000003000000000
00003FF80000078000006000000000
0001FF0000000F0000006000000000
0007F98000001E0000006000000000
000FC18000001E000000C000000000
003F00C000003C000000C000000000
00780060000078000000C000000000
01F000600000780000018000000000
03C000300000F00000018000000000
070000180001E00000018000000000
0E0000080001C00000010000000000
0C00000C0003C00000030000000000
180000040007800000030000000000
30000002000F000000030000000000
20000000000E000000020000000000
60000000001C000000060000000000
40000000003C000000060000000000
400000000078000000060000000000
8000000000F0000000060000000000
8000000001E0000000060000000000
8000000003C00000000C0000000000
8000000007800000000C0000000000
800000000F000000000C0000000000
800000003C000000000C0000000000
C000000078000000000C0000000000
40000000F0000000000C0000000000
60000003C0000000000C0000000000
3000000F80000000000C0000000000
3800001E00000000000C0000000000
1E0000F800000000000C0000000000
07E007E00000000000040000000000
01FFFF800000000000060000000000
003FF8000000000000030000000000
00000000000000000001C000000000
ENDCHAR
STARTCHAR 0049
ENCODING 73
SWIDTH 656 0
DWIDTH 63 0
BBX 78 71 -6 -7
BITMAP
00000000000000000300
00000000000000000784
0000000000000000FFF8
00000000000001FFFFC0
0000000000007FFC1F00
00000000000FF8003F00
0000000000FE00003E00
000000000FC000003E00
000000003C0000007E00
00000001E00000007C00
0000000780000000FC00
0000000E00000000FC00
0000003800000000F800
0000006000000000F800
000000C000000000F000
0000018000000000F000
0000030000000001F000
0000030000000001E000
0000060000000001E000
0000060000000003E000
00000C0000000003C000
00000C0000000003C000
00000C00000000078000
00000C00000000078000
00000C000000000F8000
00000C000000000F0000
00000C000000001F0000
00000C000000001E0000
000006000000003E0000
000006000000003C0000
000006000000007C0000
00000300000000780000
00000300000000F80000
00000180000000F00000
00000080000001F00000
00000040000001E00000
000000200FFFFFFFFE00
00000013FFFFFFFFFC00
0000007FFF0003C00000
000007FC000007800000
00003F86000007800000
0001FC0300000F000000
0007E00300001E000000
001F000180001E000000
003C0000C0003C000000
00F00000400078000000
01C00000000078000000
038000000000F0000000
060000000001E0000000
0C0000000001C0000000
180000000003C0000000
30000000000780000000
20000000000F00000000
60000000001E00000000
40000000003C00000000
40000000003800000000
80000000007000000000
8000000000F000000000
8000000003C000000000
80000000078000000000
800000000F0000000000
800000001E0000000000
C00000003C0000000000
40000000F80000000000
60000001E00000000000
30000007C00000000000
3800001F000000000000
1E0000FC000000000000
07E007F0000000000000
01FFFF80000000000000
003FF800000000000000
ENDCHAR
STARTCHAR 004A
ENCODING 74
SWIDTH 677 0
DWIDTH 65 0
BBX 90 92 -18 -27
BITMAP
000000000000000000000300
000000000000000000000F00
000000000000000000000F00
000000000000000000001F00
00000000000000000FFFFE00
000000000000000FFFFFFFC0
00000000000000FF8001FFC0
0000000000000FE000003D80
0000000000003E0000007C00
000000000001F00000007C00
00000000000780000000F800
00000000001E00000000F800
00000000007800000000F800
0000000000F000000000F000
0000000001C000000001F000
00000000038000000001E000
00000000070000000001E000
000000000E0000000001E000
000000001C0000000001C000
00000000180000000003C000
00000000380000000003C000
000000003000000000038000
000000003000000000078000
000000003000000000070000
000000003000000000070000
0000000010000000000F0000
0000000018000000000E0000
000000000C000000000E0000
0000000007000000001E0000
0000000001C00000001C0000
0000000000000000003C0000
000000000000000000380000
000000000000000000780000
000000000000000000780000
000000000000000000700000
000000000000000000F00000
000000000000000000E00000
000000000000000001E00000
000000000000000001C00000
000000000000000003C00000
000000000000000003800000
000000000000000007800000
000000000000000007000000
00000000000000000F000000
00000000000000000E000000
00000000000000001E000000
00000000000000001C000000
0000000000000FFFFFE00000
00000000003FFFFFFFE00000
000000001FFFC00078000000
00000003FF800000F8000000
0000003FF0000000F0000000
000001FF80000001E0000000
000007F800000001E0000000
00001FE000000003C0000000
00007F0000000007C0000000
0001FC000000000780000000
0003F0000000000F00000000
000FC0000000001F00000000
001F00000000001E00000000
003C00000000003C00000000
007800000000007C00000000
00E000000000007800000000
01C00000000000F000000000
03800000000001F000000000
07000000000003E000000000
0E000000000007C000000000
0C0000000000078000000000
1800000000000F8000000000
3000000000001F0000000000
2000000000003E0000000000
6000000000007C0000000000
400000000000F80000000000
400000000001F00000000000
400000000003E00000000000
800000000007C00000000000
80000000000F800000000000
80000000001F000000000000
80000000003E000000000000
80000000007C000000000000
8000000000F8000000000000
8000000001F0000000000000
C000000007E0000000000000
400000000F80000000000000
600000003F00000000000000
300000007C00000000000000
38000001F000000000000000
1C000007E000000000000000
0F00003F8000000000000000
03F003FC0000000000000000
00FFFFE00000000000000000
001FFE000000000000000000
ENDCHAR
STARTCHAR 004B
ENCODING 75
SWIDTH 937 0
DWIDTH 90 0
BBX 114 79 -5 -5
BITMAP
000000000000000000000000000040
0000000000000000000000000000C0
000000000000000000000000000080
000000000000000000000000000100
000000000000000000000000000300
000000000000000000000000000200
000000000000000000000000000600
000000000000000000000000000C00
000000000000000003800000001800
000000000000FFFF07800000001800
00000000003FFFFFFF800000003000
0000000007FFFFFFFF000000006000
000000007FF00001FF00000000E000
00000003FC0000001F00000000C000
0000000FC00000003E000000018000
0000007E000000003E000000030000
000000F0000000007E000000070000
000003C0000000007C0000000E0000
00000700000000007C0000001C0000
00001E00000000007C000000380000
000038000000000078000000700000
000070000000000078000000E00000
0000E00000000000F0000001C00000
0000C00000000000F0000007800000
0001C00000000000F000000F000000
0001800000000001E000001E000000
0003000000000001E0000078000000
0003000000000001E00000F0000000
0003000000000003C00003E0000000
0003000000000003C0000780000000
000300000000000380001F00000000
000300000000000780007C00000000
00030000000080070001F000000000
000380000001C00F0007C000000000
000180000001C00F001F0000000000
000180000001C01E00FC0000000000
0001C0000001E01E07F00000000000
0001C0000001E03C3F800000000000
0000E0000000E03FF8000000000000
0000E0000000F0FFC0000000000000
0000700000007FF800000000000000
000038000003FE7000000000000000
0000380000FC78F000000000000000
00001C003F803CE000000000000000
00001E0FE0003DE000000000000000
00000FFE00001FC000000000000000
000007E000001F8000000000000000
00003F8000000F8000000000000000
0000F9C000000F8000000000000000
0003E06000000F8000000000000000
000F003000001FC000000000000000
003C001800003FC000000000000000
0070000E00003DE000000000000000
00E00003000079E000000300000000
01800000E000F0F000000100000000
030000000000F07800000180000000
060000000001E03800000180000000
080000000003C03C00000080000000
180000000007801E00000080000000
300000000007800F000000C0000000
20000000000F000700000040000000
40000000001E000780000040000000
40000000003C0003C0000060000000
8000000000780001E0000060000000
8000000000F00000F0000060000000
8000000001E0000078000060000000
8000000003C000003C000060000000
80000000078000001E0000E0000000
800000000F0000000F0000C0000000
800000001E00000007C001C0000000
C00000007800000001F003C0000000
40000000F000000000FC0780000000
60000003E0000000003FFF00000000
3000000780000000001FFE00000000
3800001E000000000003F800000000
1E0000F80000000000000000000000
07E007E00000000000000000000000
01FFFF800000000000000000000000
003FF8000000000000000000000000
ENDCHAR
STARTCHAR 004C
ENCODING 76
SWIDTH 791 0
DWIDTH 76 0
BBX 86 76 -9 -11
BITMAP
0000000000000000001E00
0000000000000000007F00
000000000000000001E100
000000000000000003C180
0000000000000000070080
00000000000000000E00C0
00000000000000001E00C0
00000000000000003C00C0
00000000000000007800C0
0000000000000000F000C0
0000000000000001E000C0
0000000000000003E000C0
0000000000000003C001C0
0000000000000007C00180
000000000000000F800180
000000000000000F000380
000000000000001F000300
000000000000001E000300
000000000000003E000600
000000000000007C000E00
000000000000007C000C00
0000000000000078001800
00000000000000F8003000
00000000000000F0006000
00000000000001F000C000
00000000000001E0018000
00000000000003E0030000
00000000000003C0060000
00000000000007C0180000
0000000000000780300000
0000000000000780000000
0000000000000F00000000
0000000000000F00000000
0000000000001E00000000
0000000000001E00000000
0000000000001C00000000
0000000000003C00000000
0000000000003C00000000
0000000000007800000000
0000000000007800000000
0000000000007000000000
000000000000F000000000
000000000000E000000000
000000000001E000000000
000000000001E000000000
000000000003C000000000
000000000003C000000000
0000000000078000000000
0000000000078000000000
00000000000F0000000000
00000000000F0000000000
00000000001E0000000000
00000000001C0000000000
00000000003C0000000000
0000000000380000000000
0000000000780000000000
0000000000F00000000000
0000000000E00000000000
07FF800001E00000000000
3801FF0003C00000000000
C00007F007800000000000
8800007F07000000000000
8C000007FE000000000000
040000007C000000000000
060000007F000000000000
03000000F7E00000000000
01800001C0FC0000000010
00C00007801FC000000018
0030003E0003F800000008
000E01F800007F0000000C
0007FFE000000FF000000C
0001FE00000001FF00000C
000000000000003FF0001C
0000000000000003FF8038
00000000000000003FFFF0
000000000000000001FF80
ENDCHAR
STARTCHAR 004D
ENCODING 77
SWIDTH 843 0
DWIDTH 81 0
BBX 99 87 -17 -18
BITMAP
000001FFFE000C000000000000
00007FFFFFFC0E000000000000
0007FE0007FFCC000000000000
003F8000001FFC000000000000
01F800000001FF800000000000
07C0000000003FC00000000000
0F00000000001FC00000000000
3C00000000001BC00000000000
78000000000018000000000000
70000000000018000000000000
E000000000003800003C000000
C00000000000300001FE000000
C00000000000300007E1000000
C0000000000030000F81000000
C0000000000060001E01000000
40000000000060007C01000000
2000000000006000F003000000
100000000000C001E003000060
0C0000000000C003C0030000E0
070000000000C00780060001E0
018000000001800F00060001E0
000000000001801E00060003C0
000000000003003C000C0003C0
0000000000030078000C000F80
00000000000300F0001C001F80
00000000000601E00018002F00
00000000000603C00038004F00
00000000000C03800030009E00
00000000000C07000070011E00
0000000000180E000060023C00
0000000000181E0000E0043C00
0000000000303C0000C0087800
000000000030780001C0187800
00000000002070000380307000
000000000060E000038060F000
000000000041C0000700C0E000
0000000000C3C000070181E000
00000000008780000E0301C000
00000000018700000E0601C000
00000000030E00001C0C03C000
00000000031C00003818038000
00000000063C00003830078000
00000000063800007060070000
000000000C70000070C0070000
000000000CE00000E1800F0000
0000000019C00000C2000E0000
0000000019C00001C4000E0000
000000003380000188001C0000
000000007700000390001C0000
000000006600000720001C0000
00000000EE0000064000380000
00000000DC00000E8000380000
00000001B800000D0000380000
00000003B000001A0000700000
000000036000001C0000700000
00000007E00000380000700000
0000000EC00000300000F00000
0000000D800000700000E00000
0000001F000000600000E00000
0000003B000000400000E00000
0000003E000000000000E00000
0000007C000000000000C00000
000000F8000000000001C00000
000000F8000000000001C00000
000001F0000000000001C00000
000003E0000000000001C00000
000003C0000000000001800000
00000780000000000001800000
00000F80000000000001800000
00000F00000000000001800000
00001E00000000000001800000
00003C00000000000001800400
00007800000000000001800400
00007000000000000001800400
00000000000000000001800600
00000000000000000000800600
00000000000000000000800400
00000000000000000000800400
00000000000000000000C00C00
00000000000000000000C00C00
00000000000000000000400C00
00000000000000000000601800
00000000000000000000201800
00000000000000000000303000
00000000000000000000187000
000000000000000000000FE000
0000000000000000000007C000
ENDCHAR
STARTCHAR 004E
ENCODING 78
SWIDTH 802 0
DWIDTH 77 0
BBX 77 97 5 -23
BITMAP
00007F00000000000000
0003FFC0000000000000
000F80E0000000000000
001E0030000000000000
00380018000000000000
00F0001C000000000000
01E0000C000000000000
01C00006000000000000
03800006000000000000
07800002000000000000
0F000003000000000000
0E0000030000000003E0
1E000001000000000FF0
1C000001000000003E30
3C000001800000007818
3800000180000000F018
7800000180000001C018
70000001800000038018
700000008000000F0038
700000008000001E0038
E0000000C00000380038
E0000000C00000700070
E0000000C00000E00070
E0000000C00001C000F0
C0000000C000038000E0
C0000000C000070001E0
C0000000C0000E0001C0
C0000000C0001C0003C0
C0000000C000380003C0
C0000000C00070000780
C0000000C000E0000780
C0000000C001C0000F00
40000000C00380000E00
40000000C00700001E00
40000000C00E00003C00
60000000C01C00003C00
20000001C03800007800
20000001C07000007800
20000001C0E00000F000
10000001C1C00001E000
1000000183800001E000
0800000187000003C000
0800000186000003C000
040000038C0000078000
040000039800000F0000
02000003B000000F0000
030000036000001E0000
01800003C000001E0000
00C000078000003C0000
00600007000000380000
00300007000000780000
000C000F000000F00000
0004001E000000F00000
0000003E000001E00000
0000007E000001C00000
0000005E000003C00000
000000BC000003800000
0000013C000007800000
0000023C000007000000
0000047800000F000000
0000087800000E000000
000018F000001E000000
000030F000001C000000
000061F000003C000000
0000C1E0000038000000
000181E0000038000000
000303C0000070000000
000603C0000070000000
000C07800000E0000000
00180F800000E0000000
00100F000000E0000000
00301E000001C0000000
00601E000001C0000000
00C03C00000180000000
01807C00000380000000
0300F800000380000000
0600F000000300000000
0C01E000000300000000
0C03C000000700000000
18078000000700000000
301F0000000700000000
307E0000000600080000
3FFC0000000600080000
3FF00000000600180000
0FC00000000600180000
00000000000600100000
00000000000600100000
00000000000600300000
00000000000600300000
00000000000200600000
00000000000200600000
00000000000300C00000
00000000000100C00000
00000000000181800000
000000000000C7000000
0000000000007F000000
0000000000003C000000
ENDCHAR
STARTCHAR 004F
ENCODING 79
SWIDTH 781 0
DWIDTH 75 0
BBX 72 75 5 -10
BITMAP
0000000000FFF80000
000000001FFFFF8000
00000001FC001FF000
00000007800001FC00
000000380000003F00
000000E00000000F80
0000030000000007C0
00000C0000000001E0
0000300000000000F0
000060000000000078
000180000000000038
00030000000000003C
00040000000000001C
00080000180000000E
00100000300000000E
00200000C00000000E
004000018000000006
008000030000000007
010000060000000007
020000180000000003
060000300000000003
040000600000000003
080000C00000000003
080001800000000003
100003000000000003
100006000000000003
30000C000000000003
200018000000000002
600030000000000002
600060000000000002
400040000000000006
4000C0000000000006
C00180000000000004
C00300000000000004
C0020000000000000C
C00600000000000008
C00C00000000000018
C00C00000000000010
C01800000000000010
C01800000000000020
C03000000000000020
E03000000000000040
606000000000000040
606000000000000080
704000000000000080
70C000000000000100
30C000000000000300
38C000000000000200
188000000000000400
1D8000000000000C00
0D8000000000000800
0F8000000000001000
078000000000002000
038000000000004000
03800000000000C000
01C000000000008000
01E000000000010000
01F000000000020000
01F800000000040000
01BC00000000080000
01CE00000000100000
00C700000000200000
00C3C0000000C00000
00E0E0000001800000
00E038000003000000
00700C000006000000
007803000018000000
003C00C00030000000
001E003000E0000000
000F000C0380000000
0007C0038E00000000
0003F801FC00000000
0001FFFFE780000000
00007FFF80F8000000
00000FF8000E000000
ENDCHAR
STARTCHAR 0050
ENCODING 80
SWIDTH 750 0
DWIDTH 72 0
BBX 74 73 1 -7
BITMAP
0000003FFFF800000000
00000FC0007FE03C0000
0001F0000001FEFE0000
001E000000001FC20000
00600000000003820000
01800000000006F40000
0600000000000C3E0000
0C0000000000180F8000
1800000000003007C000
3000000000007009E000
300000000000E010F000
600000000001C0103800
60000000000380201C00
60000000000380401E00
60000000000700800E00
60000000000F00000700
30000000000E00000380
30000000001E00000380
18000000001C00000180
0C0000000038000001C0
060000000038000001C0
038000000070000000C0
00E000000070000000C0
003C000000E0000000C0
0007C0C000E0000000C0
00003F0001C0000000C0
0000000001C000000080
0000000003C000000080
00000000038000000180
00000000078000000100
00000000070000000200
00000000070000000400
000000000E0000000800
000000000E0000001000
000000001C0000002000
000000001C000000C000
000000001C0000030000
000000003800001C0000
00000000380003E00000
000000003001FC000000
0000007FFFFF00000000
000007FFFF0000000000
00000FE0E00000000000
00000000C00000000000
00000001C00000000000
00000001800000000000
00000003800000000000
00000003000000000000
00000007000000000000
00000006000000000000
0000000E000000000000
0000000C000000000000
0000001C000000000000
00000018000000000000
00000030000000000000
00000030000000000000
00000060000000000000
00000060000000000000
000000C0000000000000
00000180000000000000
00000380000000000000
00000300000000000000
00007FFFF80000000000
000FFF8007C000000000
007F9C00000000000000
01F83800000000000000
87C07000000000000000
CF00E000000000000000
C603C000000000000000
600F8000000000000000
383E0000000000000000
1FFC0000000000000000
07E00000000000000000
ENDCHAR
STARTCHAR 0051
ENCODING 81
SWIDTH 791 0
DWIDTH 76 0
BBX 71 101 5 -34
BITMAP
000000000000040000
000000000000380000
000000000000C00000
000000000007000000
000000007FFF800000
0000000FFFFFF80000
0000007F0383FE0000
000003E00E003FC000
00000F003C0007E000
00003800700001F800
00006001E000007C00
0001C0038000001F00
0003000F0000000F80
0006001C0000000780
0008007800000003C0
001000F000000001E0
002001C000000000F0
006003800000000070
00C007000000000038
01801E000000000038
01003C00000000001C
03007800000000001C
0200F000000000000C
0601E000000000000E
0401C000000000000E
0C0380000000000006
080700000000000006
180E00000000000006
181C00000000000006
183C00000000000006
103800000000000006
307000000000000006
30E000000000000006
30E000000000000004
31C000000000000004
33C00000000000000C
33800000000000000C
370000000000000008
370000000000000008
3E0000000000000018
3E0000000000000010
3C0000000000000030
3C0000000000000030
3C0000000000000020
380000000000000060
3C0000000000000040
3C00000000000000C0
3C0000000000000080
7C0000000000000180
7C0000000000000100
7E0000000000000200
7E0000000000000600
EE0000000000000400
EF0000000000000800
EF0000000000001800
E70000000000003000
E78000000000002000
E38000000000004000
E3C00000000000C000
E3C000000000018000
E1C000000000030000
E1E000000000060000
F0E0000000000C0000
70F000000000180000
707000000000300000
787800000000600000
383800000000C00000
383C00000001800000
3C1E00000003000000
1E1E0000000C000000
0E0F00000018000000
0F0700000030000000
0787800000C0000000
03C3C0000380000000
01F1E0000E00000000
00F9E0003C00000000
007FF000F000000000
001FF80FC000000000
0007FFFE0000000000
0000FFE00000004000
00000F000000004000
00000F800000004000
000007C00000006000
000003E00000002000
000001F00000002000
000000F80000003000
0000003C0000001000
0000001E0000001000
0000000F8000001800
00000007C000001800
00000003E000001800
00000001F800001800
000000007C00001800
000000003F00003800
000000000F80003000
0000000007E0007000
0000000001F800F000
00000000007F01E000
00000000001FFFC000
000000000007FF8000
000000000000FE0000
ENDCHAR
STARTCHAR 0052
ENCODING 82
SWIDTH 895 0
DWIDTH 86 0
BBX 84 78 5 -12
BITMAP
000000000001FFF0000000
0000000000FFFFFF000000
000000001FFE0003E00000
00000001FF0000001C0000
0000000FF0000000038000
0000007F0000000000E000
000001F80000001F003800
000007E00000007F801C00
00001F00000001E1800E00
00007C0000000381800380
0001F80000000701000380
0003E00000000E030001C0
000F800000001C020000E0
001F0000000038040000E0
003E000000007004000070
007800000000E000000070
00F000000001E000000070
01E000000001C000000070
03C0000000038000000070
0780000000038000000070
0780000000070000000070
0F000000000F00000000E0
1E000000000E00000000E0
1E000000001C00000000E0
3C000000001C00000001C0
3C00000000380000000180
7800000000380000000380
7800000000780000000700
7000000000700000000E00
7000000004700000001C00
F00000000CE00000003800
F00000000CE00000006000
E00000000FC0000000C000
E00000000FC00000038000
E00000000F800000060000
E00000000F800000180000
E000000007800000600000
E000000007000001C00000
E000000007000007000000
E000000007800018000000
E00000000F8000E0000000
600000000FC00300000000
700000000FC01C00000000
700000001CE0E000000000
700000001CF30000000000
300000003C700000000000
3800000038780000000000
1800000078380000000000
18000000703C0000000000
0C000000701C0000000000
0C000000F00E0000003000
06000000E00F0000001000
06000001E0070000001800
03000001C0038000001800
01800003C001C000000800
018000038001C000000800
00C000078000E000000C00
0060000700007000000400
0030000F00003800000400
0018000E00003C00000600
0018001E00001E00000600
000C001C00000F00000600
0006003800000780000600
00030078000003C0000600
0000C070000001E0000E00
000060E0000000F0000C00
000031E00000007C001C00
00001BC00000001E003C00
00000F800000000FC07800
0000070000000003FFF000
00000F0000000000FFE000
20001CC0000000003F8000
3000386000000000000000
3000701000000000000000
1800E00000000000000000
0C01C00000000000000000
0307000000000000000000
00FC000000000000000000
ENDCHAR
STARTCHAR 0053
ENCODING 83
SWIDTH 656 0
DWIDTH 63 0
BBX 80 78 -11 -14
BITMAP
000000000000007FF800
0000000000000FC00F80
0000000000007C0000E0
000000000001E0000038
0000000000078000000C
00000000000F00000006
00000000001C00000003
00000000003800000003
00000000007000000003
0000000000E000000003
0000000001E030000007
0000000001C01C000006
0000000003C00380001C
000000000380007C00F0
0000000003800003FF80
00000000038000000000
00000000038000000000
00000000038000000000
00000000038000000000
00000000038000000000
0000000001C000000000
0000000001C000000000
0000000001E000000000
0000000000F000000000
00000000007000000000
00000000003800000000
00000000001E00000000
00000000000F00000000
00000000000780000000
000000000003E0000000
000000000001F8000000
0000000000007E000000
0000000000001F000000
00000001FE000FC00000
0000000E01C003F00000
00000070007001F80000
000001C00018007E0000
00000300000C003F0000
000006000006001F8000
000018000002000FC000
0000300000030007E000
0000600000030003F000
0000C00000018001F000
0001C00000018000F800
0001800000018000FC00
00030000000180007C00
00070000000180007C00
00060000000180007E00
000E0000000180003E00
000C0000000380003E00
000C0000000300003E00
00180000000300003E00
00180000000700003E00
00180000000600003E00
00300000000E00003E00
00300000001C00003E00
00300000003C00007E00
00300000007800007C00
0030000000F000007C00
0030000001E00000FC00
0030000003C00000F800
003000000F800001F800
003000001F000001F000
001000007C000003F000
00180001F8000007E000
C0180007E000000FC000
700C003F8000001F8000
180C01FE0000003F0000
07061FF00000007E0000
00FFFF80000001FC0000
000FF800000003F00000
0001800000000FE00000
0000E00000003F800000
000070000001FE000000
00001E00000FF8000000
000007E001FFC0000000
000000FFFFFE00000000
0000000FFFC000000000
ENDCHAR
STARTCHAR 0054
ENCODING 84
SWIDTH 937 0
DWIDTH 90 0
BBX 117 78 -10 -15
BITMAP
00000000FFFF800000000000000000
0000007FFFFFFF0000000000000000
000007FFE0003FF000000000000000
00003FF8000000FF00000000000000
0001FF800000000FE0000000000000
0007FC0000000000FC000000000000
001FE000000000001FC00000000000
003F80000000000003F00000000000
00FE000000000000007E0000000000
01FC000000000000000FC000000000
03F00000000000000003F000000000
07E000000000000000007E00000000
0FC000000000000000001F80000000
1F80000000000000000003F0000000
1F00000000000000000001FC000000
3E00000000000000000003DF800000
3C00000000000000000007C7F000C0
7C00000000000000000007C0FE00F0
7800000000000000000007801FF078
700000000000000000000F8003FFF8
700000000000000000000F80001FF0
F00000000000000000000F00000000
E00000000000000000000F00000000
E00000000000000000000F00000000
E00000000000000000000E00000000
C00000000000000000001E00000000
C00000000000000000001E00000000
C00000000000000000001C00000000
C00000000000000000003C00000000
C00000000000000000003800000000
C00000000000000000007800000000
C00000000000000000007000000000
C0000000000000000000F000000000
C0000000000000000000F000000000
40000000000000000000E000000000
40000000000000000001E000000000
60000000000000000001C000000000
60000000000000000003C000000000
600000000000000000038000000000
200000000000000000078000000000
300000000000000000070000000000
3000000000000000000F0000000000
1000000000000000001F0000000000
1800000000000000001E0000000000
1800000000000000003C0000000000
0C00000000000000003C0000000000
0C0000000000000000780000000000
060000000000000000780000000000
060000000000000000F00000000000
030000000000000001F00000000000
030000000000000001E00000000000
018000010000000003C00000000000
008000030000000003C00000000000
00C000030000000007800000000000
00600006000000000F800000000000
00600006000000000F000000000000
0030000E000000001E000000000000
0010000C000000003C000000000000
0008000C000000007C000000000000
000C000C0000000078000000000000
0006001800000000F0000000000000
0002001800000001E0000000000000
0001001800000003C0000000000000
0000801800000007C0000000000000
000040180000000F80000000000000
000000180000001F00000000000000
000000180000003E00000000000000
000000180000007800000000000000
0000000C000000F000000000000000
0000000C000001E000000000000000
0000000E000003C000000000000000
0000000600000F0000000000000000
0000000700001E0000000000000000
000000038000780000000000000000
00000001C001E00000000000000000
00000000F00F800000000000000000
000000003FFE000000000000000000
000000000FF0000000000000000000
ENDCHAR
STARTCHAR 0055
ENCODING 85
SWIDTH 895 0
DWIDTH 86 0
BBX 84 79 4 -18
BITMAP
000007FFF8000000000000
0001FFFFFFF00000000000
001FF8001FFF0000000000
00FE0000007FE000000000
03F000000003FF80000000
0F80000000007FC0000000
1E00000000001FC0000000
3800000000000780000000
7000000000000700000000
E000000000000F00000030
C000000000000E00000070
C000000000001E000000F0
C000000000001C000001F0
C000000000003C000001E0
40000000000038000003C0
20000000000070000003C0
100000000000F000000780
080000000000E000000780
060000000001E000001F00
018000000001C000001F00
0060000000038000003E00
0000000000038000007E00
0000000000070000007C00
000000000007000000FC00
00000000000E000000B800
00000000000E000001B800
00000000001C0000017800
00000000003C0000037000
000000000038000006F000
000000000070000004E000
00000000007000000CE000
0000000000E0000009C000
0000000000E0000019C000
0000000000C0000033C000
0000000001C00000238000
0000000001C00000638000
0000000003800000C70000
0000000003800000870000
0000000007000001070000
00000000070000030E0000
000000000E0000020E0000
000000000E0000040E0000
000000001E00000C1C0000
000000001C0000081C0000
000000001C0000101C0000
0000000038000020380000
0000000038000060380000
00000000380000C0380000
0000000070000080300000
0000000070000100700000
0000000070000200700000
00000000F0000600700000
00000000E0000C00600000
00000000E0001800600000
00000001E0003000E00000
00000001E0006000E00000
00000001E000C000E00000
00000001E0018000E00000
00000001E0030000C00000
00000001E0060000C00000
00000001E0180000C00000
00000001F0300000C00000
00000000F0E00000C00200
00000000FF800000C00200
000000007E000000C00200
0000000000000000C00200
0000000000000000C00300
0000000000000000400300
0000000000000000400200
0000000000000000400200
0000000000000000600600
0000000000000000600600
0000000000000000200600
0000000000000000300C00
0000000000000000100C00
0000000000000000181800
00000000000000000C3800
000000000000000007F000
000000000000000003E000
ENDCHAR
STARTCHAR 0056
ENCODING 86
SWIDTH 697 0
DWIDTH 67 0
BBX 96 79 5 -10
BITMAP
00000000000000000000000F
000000000000000000000078
003F800000000000000003C0
01FFF0000000000000001E00
03E038000000000000007800
0F800E00000000000001F000
0F000700000000000003C000
1E00038000000000000F0000
3C00018000000000001E0000
380000C000000000007C0000
780000600000000000F00000
780000600000000001E00000
780000300000000003C00000
F00000100000000007800000
F0000018000000000F000000
F0000018000000001C000000
F00000080000000038000000
F000000C0000000070000000
F000000C00000000E0000000
F000000400000001C0000000
F00000040000000380000000
F00000060000000700000000
F00000060000000E00000000
780000020000000C00000000
780000020000001C00000000
380000030000003800000000
380000030000007000000000
1C000003000000E000000000
1C000003000000C000000000
0E0000030000018000000000
0E0000010000030000000000
070000010000030000000000
038000018000060000000000
0180000180000C0000000000
00C000018000080000000000
006000018000100000000000
003000018000300000000000
001000018000200000000000
000800018000400000000000
000400018000C00000000000
000200018000800000000000
000180018001000000000000
0000C0018002000000000000
000020018002000000000000
000000018004000000000000
000000018008000000000000
000000018008000000000000
000000038010000000000000
000000038020000000000000
000000038020000000000000
000000038040000000000000
0000000300C0000000000000
000000030080000000000000
000000030100000000000000
000000070100000000000000
000000070200000000000000
000000070400000000000000
000000070400000000000000
000000060800000000000000
0000000E1000000000000000
0000000E1000000000000000
0000000E2000000000000000
0000001E6000000000000000
0000001C4000000000000000
0000001C8000000000000000
0000003C8000000000000000
0000003D0000000000000000
0000003A0000000000000000
0000007A0000000000000000
0000007C0000000000000000
000000F40000000000000000
000000F80000000000000000
000001F80000000000000000
000003F00000000000000000
000007E00000000000000000
000007C00000000000000000
00000F800000000000000000
00000F000000000000000000
00000E000000000000000000
ENDCHAR
STARTCHAR 0057
ENCODING 87
SWIDTH 1156 0
DWIDTH 111 0
BBX 107 82 6 -17
BITMAP
0003FC00000000000000000FC000
001FFF80000000000000003FF800
003C03C000000000000000303C00
00F000E000000000000000000E00
01E0003800000000000000000700
0380001800000000000000000300
0780000C00000000000000000380
0F00000600000000000000000180
1E000006000000000000000001C0
1E000003000000000000000000C0
3C000001000000000000000000C0
3C000001800000000000000000E0
7800000180000000000000000060
7800000080000000000000000060
78000000C0000000000000000060
78000000C0000000000000000060
F000000040000000000000000060
F000000060000000000000000060
F000000060000000000000000060
F000000060000000000000000060
F000000060000000000000000060
F000000020000000000000000060
F000000020000000000000000060
F000000030000001000000000060
F0000000300000078000000000C0
F00000003000000F8000000000C0
700000003000001F8000000000C0
780000003000003F8000000000C0
780000003000003F8000000001C0
380000003000007F000000000180
3C000000300000FF000000000180
1C000000300000EF000000000180
1C000000300001DF000000000300
0E0000003000039E000000000300
0F0000003000039E000000000700
070000003000071E000000000600
0380000030000E1E000000000600
0180000030000C3C000000000E00
00C0000070001C3C000000000C00
006000007000383C000000001C00
0060000070003038000000001800
0030000060006078000000003800
001800006000E078000000007000
000C00006001C070000000007000
000600006001807000000000E000
00030000E00300F000000000E000
00018000E00700E000000001C000
0000C000E00600E000000003C000
00000000E00C00E0000000038000
00000001C01801C0000000078000
00000001C03001C00000000F0000
00000001C03001C00000000E0000
00000001C06001C00000001E0000
00000003C0C001800000003C0000
0000000381800380000000780000
0000000381800380000000F80000
0000000383000380000000F00000
0000000786000300000001E00000
000000070C000300000003C00000
000000071C000300000007800000
0000000F1800030000000F800000
0000000E3000030000001F000000
0000000E6000030000003E000000
0000001EE000030000007C000000
0000001EC00003000000F8000000
0000003D800003000001F0000000
0000003F000003000003E0000000
0000007F000001000007C0000000
0000007E00000100000F80000000
000000FC00000180003E00000000
000000F800000080007C00000000
000001F8000000C001F800000000
000001F00000006007E000000000
000003E0000000301F8000000000
000003E00000001FFE0000000000
000007C000000007F00000000000
00000F8000000000000000000000
00001F0000000000000000000000
00003F0000000000000000000000
00003E0000000000000000000000
00007C0000000000000000000000
0000780000000000000000000000
ENDCHAR
STARTCHAR 0058
ENCODING 88
SWIDTH 718 0
DWIDTH 69 0
BBX 100 80 -5 -12
BITMAP
000000000000000000000001F0
000000000000000000000007F0
00000000000000000000001E00
00000000000000000000007000
0000000000000000000000C000
00000000000000000000030000
000000000002001C0000060000
00000000000E3FE00000180000
0000000000FFFC000000200000
000000001FFF80000000400000
00000001FC3C00000001800000
0000000F007C00000002000000
00000070007800000004000000
0000018000F800000008000000
00000E0000F800000030000000
0000180000F800000040000000
0000600000F000000080000000
0000C00000F000000100000000
0001800000F000000600000000
0003000001F000000800000000
0006000001F000001000000000
0006000001E000002000000000
000C000001E000004000000000
0018000001E000008000000000
0018000001E000010000000000
0018000001E000020000000000
0038000001E0000C0000000000
0030000003E000100000000000
0030000003C000200000000000
0030000003C000400000000000
0030000003C000800000000000
0030000003C001000000000000
0030000003C002000000000000
0030000003C004000000000000
0030000003C008000000000000
0030000003C010000000000000
0030000003C020000000000000
0018000003C040000000000000
0018000003C080000000000000
0018000003C100000000000000
001C000003C600000000000000
000C000003CC00000000000000
000C000003D800000000000000
000E000003D000000000000000
0006000001E000000000000000
0006000001C000000000000000
0007000001C000000000000000
0003000003C000000000000000
0003000007C000000000000000
000180000DE000000800000000
0000800019E000000800000000
0000C00039E000000800000000
0000400071E000001800000000
00000000E0E000001800000000
00000001C0F000001800000000
0000000380F000001000000000
0000000700F000003000000000
0000000E00F800002000000000
0000001C007800006000000000
00000038007800004000000000
00000070003C0000C000000000
000000E0003C00008000000000
000001C0003E00018000000000
00000380001F00030000000000
00000700000F80060000000000
00000E00000FC00C0000000000
00001C000007F0380000000000
000030000003FFF00000000000
0000E0000000FFC00000000000
0001C00000003F000000000000
00038000000000000000000000
00070000000000000000000000
001C0000000000000000000000
00380000000000000000000000
00700000000000000000000000
01C00000000000000000000000
03800000000000000000000000
0E000000000000000000000000
38000000000000000000000000
E0000000000000000000000000
ENDCHAR
STARTCHAR 0059
ENCODING 89
SWIDTH 875 0
DWIDTH 84 0
BBX 104 108 -14 -47
BITMAP
00000000007FFF800000000000
000000001FFFFFFF0000000000
00000001FF8003FFF000000000
0000000FE0000007FE00000000
0000003F000000007FF8000000
000000F80000000007F8000000
000003E00000000001F8000000
00000780000000000070000000
00000F000000000000E0000000
00000E000000000001E0000000
00001C000000000001C0000000
00001800000000000380000000
00001800000000000780000000
00001800000000000700000000
00000800000000000E00000380
00000C00000000001E00000780
00000400000000001C00000780
00000300000000003800000780
00000180000000007000000F80
00000060000000007000000F80
0000001800000000E000000F00
0000000000000001C000001F00
0000000000000001C000001F00
00000000000000038000003F00
00000000000000070000007E00
00000000000000070000005E00
000000000000000E0000009E00
000000000000001C000001BE00
000000000000001C0000013C00
00000000000000380000023C00
00000000000000700000043C00
000000000000007000000C3C00
00000000000000E00000087800
00000000000000C00000107800
00000000000001C00000207800
00000000000003800000407800
00000000000003800000C0F000
0000000000000700000080F000
0000000000000700000100F000
0000000000000E00000200E000
0000000000000C00000401E000
0000000000001C00000C01E000
0000000000003800001801C000
0000000000003800001001C000
0000000000007000002003C000
0000000000007000004003C000
000000000000E0000080038000
000000000000E0000100038000
000000000000E0000200078000
000000000001C0000400070000
000000000001C0000800070000
000000000003800010000F0000
000000000003800020000E0000
000000000007800040000E0000
000000000007800080000E0000
000000000007000100001C0000
000000000007000200001C0000
00000000000F000400001C0000
00000000000F00080000380000
00000000000F00200000380000
00000000000F00400000700000
00000000000F01800000700000
00000000000F86000000700000
000000000007F8000000E00000
000000000003E0000000E00000
00000000000000000000E00004
00000000000000000001C00006
00000000000000000001C00007
00000007FFFFFE000003800003
000003FFFFFFFFFF8003800003
00007FE000000FFFFFE7800003
0003F00000000003FFFF000006
001F00000000000000FFFE001C
0078000000000000000E3FFFF8
01E0000000000000001C01FFC0
0380000000000000001C000000
07000000000000000038000000
0E000000000000000038000000
1C000000000000000070000000
38000000000000000060000000
300000000000000000E0000000
700000000000000001C0000000
60000000000000000180000000
E0000000000000000300000000
E0000000000000000700000000
E0000000000000000600000000
E0000000000000000C00000000
E0000000000000001800000000
E0000000000000003000000000
E0000000000000007000000000
F0000000000000006000000000
F000000000000000C000000000
70000000000000018000000000
78000000000000020000000000
78000000000000040000000000
3C000000000000180000000000
3E000000000000300000000000
1F000000000000600000000000
0F800000000001800000000000
07C00000000003000000000000
03E0000000000C000000000000
01F00000000030000000000000
00FC00000000C0000000000000
003F0000000700000000000000
000FE000003C00000000000000
0003FF0007E000000000000000
00007FFFFF0000000000000000
000003FFE00000000000000000
ENDCHAR
STARTCHAR 005A
ENCODING 90
SWIDTH 927 0
DWIDTH 89 0
BBX 111 71 -14 -9
BITMAP
00000000000007FFE00000000000
000000000000FFFFFFC000000000
000000000003FFFFFFFF00000000
00000000000FE0007FFFFC0001FC
00000000003E0000007FFFF01FFE
00000000007800000000FFFFFFFC
0000000000E00000000001FFFFC0
0000000000C00000000000030000
0000000001C000000000000C0000
0000000001800000000000300000
0000000001800000000000600000
0000000001800000000001800000
0000000001800000000003000000
000000000180000000000C000000
0000000000800000000018000000
0000000000800000000030000000
00000000000000000000E0000000
0000000000000000000180000000
0000000000000000000300000000
0000000000000000000600000000
0000000000000000001C00000000
0000000000000000003800000000
0000000000000000007000000000
000000000000000000E000000000
0000000000000000018000000000
0000000000000000030000000000
0000000000000000060000000000
00000000000000001C0000000000
0000000000000000380000000000
0000000000000000700000000000
000000000000001FFFFC00000000
00000000000007FFFFFFE0000000
0000000000007FC78003F0000000
000000000003FC0F000000000000
00000000000FC01E000000000000
00000000003F003C000000000000
00000000007C0078000000000000
00000000007000F0000000000000
00000000000001E0000000000000
00000000000003C0000000000000
0000000000000F80000000000000
0000000000001F00000000000000
0000000000003E00001FF8000000
0000000000007C0000001F800000
000000000000F800000001F00000
000000000001F0000000007C0000
000000000003E0000000001E0000
00000000000FC0000000000F8000
00000000001F800000000003C000
00000000003E000000000003C000
00000000007C000000000001E000
0000000001F8000000000000F000
0000000003F0000000000000F000
0000000007C00000000000007800
000000001F800000000000007800
000000003F000000000000007800
007FE000FC000000000000007800
03FFFF01F8000000000000007800
0FC007FFE0000000000000007800
1E00001FC0000000000000007800
3800007E7800000000000000F800
600001F80780000000000000F000
C00007E00078000000000001F000
C0001F800007000000000001E000
C000FC000000F00000000003C000
E00FF00000000F000000000F8000
7FFF8000000000F80000001F0000
3FF0000000000007C000007E0000
00000000000000007F0007F80000
000000000000000007FFFFC00000
0000000000000000003FFC000000
ENDCHAR
STARTCHAR 005B
ENCODING 91
SWIDTH 416 0
DWIDTH 40 0
BBX 51 70 1 -11
BITMAP
0000000007FF00
000000001FFFC0
000000007FFFE0
00000000F80000
00000001F00000
00000003E00000
00000007C00000
0000000F800000
0000001F000000
0000001E000000
0000003C000000
00000078000000
000000F8000000
000000F0000000
000001E0000000
000003C0000000
000003C0000000
00000780000000
00000F00000000
00000F00000000
00001E00000000
00003C00000000
00003C00000000
00007800000000
00007000000000
0000F000000000
0001E000000000
0001E000000000
0003C000000000
00038000000000
00078000000000
00070000000000
000F0000000000
000E0000000000
001E0000000000
001C0000000000
003C0000000000
00380000000000
00780000000000
00700000000000
00F00000000000
00E00000000000
01E00000000000
01C00000000000
01C00000000000
03800000000000
03800000000000
07000000000000
07000000000000
0F000000000000
0E000000000000
0E000000000000
1C000000000000
1C000000000000
1C000000000000
38000000000000
38000000000000
38000000000000
78000000000000
70000000000000
70000000000000
70000000000000
F0000000000000
F0000000000000
F0000000000000
F8000000000000
FC000000000000
FF000000000000
7FFFF800000000
0FFFF000000000
ENDCHAR
STARTCHAR 005C
ENCODING 92
SWIDTH 552 0
DWIDTH 53 0
BBX 49 80 1 -11
BITMAP
F0000000000000
78000000000000
3E000000000000
1F000000000000
0F800000000000
0FC00000000000
07C00000000000
03E00000000000
01F00000000000
00F80000000000
00780000000000
003C0000000000
001E0000000000
001F0000000000
000F8000000000
00078000000000
0003C000000000
0001E000000000
0000F000000000
0000F000000000
00007800000000
00003C00000000
00001E00000000
00000E00000000
00000F00000000
00000780000000
00000380000000
000001C0000000
000001E0000000
000000F0000000
00000070000000
00000038000000
0000003C000000
0000001C000000
0000000E000000
0000000E000000
00000007000000
00000003800000
00000003800000
00000001C00000
00000000E00000
00000000E00000
00000000700000
00000000300000
00000000380000
000000001C0000
000000001C0000
000000000E0000
00000000060000
00000000070000
00000000030000
00000000038000
00000000018000
0000000001C000
0000000000C000
0000000000E000
00000000006000
00000000007000
00000000003000
00000000003800
00000000003800
00000000001800
00000000001C00
00000000000C00
00000000000E00
00000000000E00
00000000000600
00000000000700
00000000000700
00000000000300
00000000000300
00000000000380
00000000000380
00000000000380
00000000000380
00000000000180
00000000000180
00000000000180
00000000000180
00000000000100
ENDCHAR
STARTCHAR 005D
ENCODING 93
SWIDTH 416 0
DWIDTH 40 0
BBX 48 70 -10 -11
BITMAP
000000003FFE
00000001FFFF
00000000001F
00000000000F
00000000000F
00000000000F
00000000000F
00000000000F
00000000000F
00000000000F
00000000000E
00000000000E
00000000001E
00000000001E
00000000001E
00000000001E
00000000001C
00000000003C
00000000003C
00000000003C
000000000038
000000000078
000000000078
000000000070
0000000000F0
0000000000F0
0000000000E0
0000000001E0
0000000001E0
0000000001C0
0000000003C0
0000000003C0
000000000780
000000000780
000000000700
000000000F00
000000000F00
000000001E00
000000001E00
000000003C00
000000003C00
000000003800
000000007800
000000007000
00000000F000
00000000E000
00000001E000
00000001C000
00000003C000
000000078000
000000078000
0000000F0000
0000000F0000
0000001E0000
0000001C0000
0000003C0000
000000780000
000000700000
000000F00000
000001E00000
000001C00000
000003800000
000007800000
00000F000000
00001E000000
00003C000000
0000F8000000
0007F0000000
7FFF80000000
FFF800000000
ENDCHAR
STARTCHAR 005E
ENCODING 94
SWIDTH 375 0
DWIDTH 36 0
BBX 26 12 12 35
BITMAP
000C0000
003E0000
007F0000
00FF8000
01EFC000
07C7E000
0F01F000
1E00FC00
3C003E00
78001F00
E00007C0
C00001C0
ENDCHAR
STARTCHAR 005F
ENCODING 95
SWIDTH 802 0
DWIDTH 77 0
BBX 75 5 1 -8
BITMAP
FFFFFFFFFFFFFFFFFFC0
FFFFFFFFFFFFFFFFFFE0
FFFFFFFFFFFFFFFFFFE0
FFFFFFFFFC0000000000
78000000000000000000
ENDCHAR
STARTCHAR 0060
ENCODING 96
SWIDTH 354 0
DWIDTH 34 0
BBX 17 12 9 34
BITMAP
700000
FC0000
FE0000
7F0000
1F8000
0FE000
03F000
00F800
003C00
000F00
000380
000180
ENDCHAR
STARTCHAR 0061
ENCODING 97
SWIDTH 312 0
DWIDTH 30 0
BBX 34 33 -6 -4
BITMAP
0000003F80
000001FFC0
000007E0C0
00001F8040
00003E0040
00007C0000
0001F00000
0003E03800
0007C07C00
000F80F800
001F01F800
001E03F000
003C06F000
00780DE000
00F019E000
01E013C000
01C023C000
03C0438000
0780878000
0701870000
0E030F0000
0E060F0000
1C0C0E0000
1C181E0400
38301E0C00
30601C1800
70C01C3000
71801C6000
63001CC000
EE000F0000
FC000E0000
F800000000
6000000000
ENDCHAR
STARTCHAR 0062
ENCODING 98
SWIDTH 281 0
DWIDTH 27 0
BBX 33 60 -2 -4
BITMAP
0000000780
0000000F80
0000001F80
0000003F00
0000003E00
0000007C00
000000F800
000000F800
000001F000
000003E000
000007C000
0000078000
00000F8000
00000F0000
00001E0000
00003C0000
00003C0000
0000780000
0000F00000
0000F00000
0001E00000
0001C00000
0003800000
0007800000
000703E000
000E0FF000
000E18F000
001C30F000
003860F000
0038C0F000
007180E000
007301E000
00E201E000
00C401C000
01C803C000
0190038000
0390038000
0320070000
0740070000
06400E0000
0E801C0000
0D001C0000
1D00380000
1E00700000
3C00700000
3C00E00000
7801C00000
7801C00000
F003800000
F007000000
E00E000000
E01E000000
C03C000000
4078000000
00F0000000
41E0000000
47C0000000
4F80000000
3E00000000
3C00000000
ENDCHAR
STARTCHAR 0063
ENCODING 99
SWIDTH 208 0
DWIDTH 20 0
BBX 22 28 -4 0
BITMAP
000078
0000FC
0003FC
0007FC
000F1C
001E18
003818
007018
00E000
00C000
01C000
038000
070000
060000
0E0000
1C0000
180000
380000
300020
6000C0
600180
E00700
C00E00
C03C00
C0F000
C3E000
7F8000
3E0000
ENDCHAR
STARTCHAR 0064
ENCODING 100
SWIDTH 354 0
DWIDTH 34 0
BBX 50 64 -4 -2
BITMAP
00000000000180
000000000007C0
00000000000780
00000000000F80
00000000001F00
00000000001F00
00000000003E00
00000000003C00
00000000007C00
00000000007800
0000000000F800
0000000000F000
0000000001E000
0000000001E000
0000000003C000
0000000003C000
00000000078000
00000000078000
000000000F0000
000000000F0000
000000001E0000
000000001C0000
000000003C0000
00000000380000
00000000380000
00000000700000
00000000700000
00000000E00000
00000000E00000
00000001E00000
00000001C00000
00000001C00000
00000003800000
00000003800000
00001F07000000
00007F87000000
0000FF87000000
0003FF8E000000
0007FC0E000000
000FE01C000000
001F801C000000
003F003C000000
003C0078000000
00780078000000
00F000B8000000
01E00138000000
03C00230000000
03800630000000
07000C30000000
0E001870000000
0E003060000000
1C006060000000
1800C060000000
3801C060000000
30038060000000
60070060200000
600E0060400000
601C0060400000
C0380060800000
C0700071800000
C1E00073000000
C380003E000000
FF00003C000000
7C000000000000
ENDCHAR
STARTCHAR 0065
ENCODING 101
SWIDTH 260 0
DWIDTH 25 0
BBX 25 32 -2 -2
BITMAP
0001E000
0003F000
0003F800
0007CC00
000F8C00
000F0C00
001E1C00
003C1C00
00383800
00703800
00E07000
00C0E000
01C1C000
03878000
031E0080
06780100
FFE00200
0F000600
18000C00
38001800
30003000
70006000
7000C000
7001C000
E0038000
E0070000
E00C0000
E0380000
E0700000
E1E00000
7F800000
3E000000
ENDCHAR
STARTCHAR 0066
ENCODING 102
SWIDTH 208 0
DWIDTH 20 0
BBX 63 85 -23 -22
BITMAP
0000000000000FC0
0000000000003FF0
0000000000007E18
000000000000F80C
000000000001F00C
000000000003E00E
000000000007C006
00000000000F8006
00000000000F0006
00000000001F0006
00000000003E0006
00000000003C0004
00000000007C0004
0000000000780000
0000000000F00000
0000000000F00000
0000000001E00000
0000000001E00000
0000000001C00000
0000000003C00000
0000000003800000
0000000007800000
0000000007000000
0000000007000000
000000000E000000
000000000E000000
000000000E000000
000000001C000000
000000001C000000
0000000018000000
0000000038000000
0000000030000000
0000000030000000
0000000070000000
0000000060000000
0000000060000000
00000000E0000000
00000000C0FC0000
0000001FFFF80000
000000FFFC000000
000000FFC0000000
000000F180000000
0000000380000000
0000000380000000
0000000300000000
0000000300000000
0000000700000000
0000000600000000
0000000600000000
0000000E00000000
0000000E00000000
0000000C00000000
0000001C00000000
0000001C00000000
0000001800000000
0000003800000000
0000003800000000
0000003000000000
0000007000000000
0000007000000000
0000006000000000
000000E000000000
000000C000000000
000001C000000000
000001C000000000
0000038000000000
0000038000000000
0000030000000000
0000070000000000
0000060000000000
00000E0000000000
00000E0000000000
00001C0000000000
40003C0000000000
C000380000000000
C000700000000000
C000F00000000000
C000E00000000000
E001E00000000000
6003C00000000000
6007800000000000
700F000000000000
383E000000000000
1FF8000000000000
07E0000000000000
ENDCHAR
STARTCHAR 0067
ENCODING 103
SWIDTH 302 0
DWIDTH 29 0
BBX 54 65 -24 -34
BITMAP
000000000007F0
00000000003FF8
0000000000FE18
0000000003F00C
0000000007C00C
000000000F8008
000000003E0000
000000007C0000
00000000F80000
00000001F00000
00000003E00000
00000003C00000
00000007801C00
0000000F003C00
0000001E007C00
0000003C00FC00
0000003C01FC00
0000007803BC00
000000F0077800
000000E00C7800
000001E038F800
000003C070F000
00000380E0F000
00000781C1E000
0000070381E000
0000070703C000
00000E0E03C000
00000E18078000
00001C70078000
00001CE00F0000
00001FC00F0000
00001F000E0000
00001C001E0000
000000001C0000
000000003C0000
00000000380000
00000000780000
00000000700000
00000000E00000
00000001E00000
00000001C00000
00000003C00000
00000003800000
00000007800000
00000007000000
0000000E000000
0000001E000000
0000001C000000
00000038000000
00000078000000
00000070000000
000000E0000000
800001E0000000
800001C0000000
80000380000000
C0000780000000
C0000F00000000
C0001E00000000
E0003C00000000
E0007800000000
7000E000000000
7803C000000000
3C0F0000000000
1FFC0000000000
07F00000000000
ENDCHAR
STARTCHAR 0068
ENCODING 104
SWIDTH 333 0
DWIDTH 32 0
BBX 42 66 -3 -2
BITMAP
000000000180
0000000003C0
000000000FC0
000000001FC0
000000001FC0
000000003FC0
000000007E80
00000000F880
00000001F080
00000001F100
00000003E100
00000007C200
0000000F8200
0000000F0400
0000001E0C00
0000003E0800
0000003C1000
000000783000
000000F02000
000000F04000
000001E0C000
000003C18000
000003C30000
000007830000
00000F060000
00000E0C0000
00001E180000
00001C300000
000038300000
000078600000
000070C00000
0000E1800000
0000E3000000
0001C6000000
00018E000000
00039C000000
0007387C0000
000670F80000
000EE0F80000
000DC1F00000
001F01F00000
001E03E00000
003C07E00000
00380FC00000
00701DC00000
00E039C00000
01C03B800000
038073800000
0F80E3800000
1B01C3000000
030383000000
060707000000
060E07000000
0C1C07000000
0C3806000000
1C7006020000
18E006020000
19C006040000
3380060C0000
378006180000
7F0006180000
7E0002300000
FC0003E00000
F80001C00000
F00000000000
E00000000000
ENDCHAR
STARTCHAR 0069
ENCODING 105
SWIDTH 145 0
DWIDTH 14 0
BBX 19 34 -2 -2
BITMAP
0000E0
0003C0
0007C0
000780
000200
000000
000000
000000
003000
007800
00F800
01F000
01F000
03E000
03C000
07C000
0F8000
0F0000
0E0000
1E0000
1C0000
380000
380000
700000
700000
600000
602000
C04000
C08000
C10000
C20000
CE0000
780000
700000
ENDCHAR
STARTCHAR 006A
ENCODING 106
SWIDTH 125 0
DWIDTH 12 0
BBX 52 70 -39 -38
BITMAP
00000000000070
000000000001F0
000000000003E0
000000000003C0
00000000000180
00000000000000
00000000000000
00000000000000
00000000000200
00000000000E00
00000000000E00
00000000001E00
00000000001E00
00000000003C00
00000000003C00
00000000003C00
00000000003C00
00000000007800
00000000007800
00000000007800
00000000007000
0000000000F000
0000000000F000
0000000000E000
0000000001E000
0000000001E000
0000000001C000
0000000003C000
00000000038000
00000000078000
00000000078000
00000000070000
000000000F0000
000000000E0000
000000000E0000
000000001C0000
000000001C0000
000000003C0000
00000000380000
00000000780000
00000000700000
00000000700000
00000000E00000
00000000E00000
00000001C00000
00000001C00000
00000003800000
00000003800000
00000007000000
00000007000000
0000000E000000
0000001C000000
0000001C000000
00000038000000
00000038000000
00000070000000
000000F0000000
800000E0000000
800001C0000000
80000380000000
C0000780000000
C0000F00000000
C0001E00000000
E0003800000000
60007000000000
7000E000000000
38018000000000
3E0E0000000000
1FFC0000000000
07E00000000000
ENDCHAR
STARTCHAR 006B
ENCODING 107
SWIDTH 291 0
DWIDTH 28 0
BBX 30 55 -5 -6
BITMAP
00000020
00000070
000000F0
000001F0
000001F0
000003E0
000003E0
000007C0
00000FC0
00000FC0
00000F80
00001F80
00001F00
00000E00
00001E00
00001C00
00003C00
00003800
00007800
00007000
0000E000
0000E000
0001C000
0003C000
00038000
00070018
00070038
000E0038
000C0070
001C00E0
003801C0
00380380
00700700
00600E00
00E01800
01C03000
01C0C000
03E30000
037C0000
07780000
06380000
0E380000
0C1C0000
180C0000
180E0004
30070004
30030004
60018004
6000C004
C0006004
C000300C
80001C08
80000F18
000003F0
000001E0
ENDCHAR
STARTCHAR 006C
ENCODING 108
SWIDTH 187 0
DWIDTH 18 0
BBX 36 62 -1 -3
BITMAP
00000003E0
0000000FF0
0000001FF0
0000003FB0
0000007F70
000000FC60
000001F860
000001F0C0
000003E0C0
000007C180
00000F8180
00000F0300
00001E0300
00003C0600
00003C0C00
0000780C00
0000F01800
0000F01800
0001E03000
0003C06000
0003806000
000780C000
000F018000
000F010000
001E030000
001E060000
003C040000
0038080000
0078180000
0070100000
00F0200000
00E0400000
01E0C00000
01C0800000
03C1000000
0382000000
0784000000
070C000000
0F18000000
0F10000000
0E20000000
1E40000000
1C80000000
3D80000000
3B00000000
3E00000000
7C00000000
7800000000
7000000000
6000000000
6000000000
E000000000
E000000000
C040000000
C040000000
C080000000
C180000000
C300000000
C200000000
C600000000
7C00000000
7000000000
ENDCHAR
STARTCHAR 006D
ENCODING 109
SWIDTH 458 0
DWIDTH 44 0
BBX 43 33 -2 -1
BITMAP
002000000000
006000000000
00E000000000
00E000000000
01E000000000
01E000000000
01C000F00000
03C001F00000
03C006F00000
03800CF00000
038018E00000
030061E00000
0300C1E00C00
030181C02E00
020301C05E00
060603C09C00
040C03813C00
0C1803863C00
0C30070C3800
086007187800
18C00E387000
11C00E707000
13800CE07000
23001DC06000
26001F80E000
2E001F00E020
5C003E00C060
78003C00C060
70003C00C0C0
70003000C180
E0000000C300
E00000004200
C00000004C00
ENDCHAR
STARTCHAR 006E
ENCODING 110
SWIDTH 302 0
DWIDTH 29 0
BBX 30 30 -4 -1
BITMAP
00038000
000F8000
001BC000
0033C000
00478018
0087803C
01078078
020F00F8
040F01F8
0C1E03F0
181E07F0
103C0DE0
203819C0
407833C0
8070E380
00618380
00C30700
01C60700
018E0700
031C0E00
03380E00
06700C00
04600C00
0CC00C00
0D800C00
1B000C60
1F0007C0
1E000380
1C000000
1C000000
ENDCHAR
STARTCHAR 006F
ENCODING 111
SWIDTH 229 0
DWIDTH 22 0
BBX 20 33 -1 -1
BITMAP
001F80
007FC0
00F0E0
01E060
03C030
078030
070030
0E0030
0E0030
1C7030
1CF030
19E060
3BC060
3BC060
3780C0
3F00C0
3F00C0
3E0180
3C0180
3C0180
380300
700300
780600
600C00
600C00
E01800
C01800
C03000
C06000
C0C000
E38000
7F0000
3C0000
ENDCHAR
STARTCHAR 0070
ENCODING 112
SWIDTH 281 0
DWIDTH 27 0
BBX 42 61 -17 -31
BITMAP
0000000C0180
0000001C03C0
0000003C07C0
000000780FC0
0000007819C0
000000F021C0
000001F041C0
000003E08380
000003E10380
000007C20380
000007C40700
00000F880700
00000F900F00
00001F200E00
00001E401E00
00003E803C00
00001D003C00
00001E007800
00003C00F000
00003C00F000
00007801E000
0000F003C000
0000E007C000
0001C0078000
0001800F0000
0003801E0000
0003003C0000
000700780000
000701F00000
000F03E00000
000F0F800000
001DFF000000
001CF8000000
003800000000
003000000000
007000000000
00E000000000
00E000000000
01C000000000
01C000000000
038000000000
038000000000
070000000000
070000000000
0E0000000000
0E0000000000
0C0000000000
1C0000000000
1C0000000000
380000000000
380000000000
300000000000
700000000000
700000000000
600000000000
E00000000000
E00000000000
E18000000000
E30000000000
FE0000000000
700000000000
ENDCHAR
STARTCHAR 0071
ENCODING 113
SWIDTH 281 0
DWIDTH 27 0
BBX 33 64 -6 -36
BITMAP
0000007E00
000003FF00
00000FE180
00001F8180
00003E0080
0000FC0000
0001F03C00
0003E07C00
0007C0F800
000781F800
000F01F000
001E03F000
003C076000
007C0EE000
00781DC000
00F0398000
01E0738000
03C0E30000
03C1C70000
0781860000
0F030E0000
0E060C0000
1C0C1C0000
1C18180000
3830380000
30E0300000
71C0300000
6380600000
EF00600000
FE00E00000
FC00C00000
7001C00000
0001800000
0001800000
0003800000
0003000000
0007000000
0007000000
0006000000
000E000000
000E000000
000C000000
001C000000
001C000000
0018000000
0018000000
0038000000
0030000000
0030000000
0030000000
0070000000
0060000000
0060000000
0060000000
0060000000
0060100000
0060200000
0060200000
0060600000
0070400000
0030C00000
0039800000
003F000000
001E000000
ENDCHAR
STARTCHAR 0072
ENCODING 114
SWIDTH 250 0
DWIDTH 24 0
BBX 26 33 -3 0
BITMAP
00600000
00F00000
00F00000
00F00000
00F00000
00F00000
01F00780
01F01F80
02E033C0
02E041C0
00E081C0
01E101C0
01C201C0
01C40180
01C80100
03980000
03900000
03A00000
07600000
07C00000
07800000
0F800000
0F000000
1E000000
1E000000
1C000000
3C000000
38000000
70000000
70000000
E0000000
E0000000
C0000000
ENDCHAR
STARTCHAR 0073
ENCODING 115
SWIDTH 197 0
DWIDTH 19 0
BBX 24 31 -7 -3
BITMAP
0000FC
0003FE
000FFF
001F80
003C00
003800
007000
007000
006000
006000
006000
006000
006000
002000
003000
003000
001000
001800
000800
000C00
000C00
000C00
000C00
001C1C
003CE0
007F00
00F800
07E000
FF8000
FF0000
780000
ENDCHAR
STARTCHAR 0074
ENCODING 116
SWIDTH 229 0
DWIDTH 22 0
BBX 29 49 -3 -6
BITMAP
00000018
00000038
00000078
000000F8
000001F0
000003E0
000003E0
000007C0
00000F80
00001F80
00003F00
00003E00
00003C00
00003C00
00007800
00007000
0000E000
0001E000
0001C000
00038000
00038000
00071FC0
03FFFF00
3FFF0000
7F9C0000
FC1C0000
78380000
00300000
00700000
00600000
00E00000
00C00000
01C00000
01C00000
03800000
03800000
03800000
07000000
07000000
07000000
0E000000
0E000000
0E000000
0E000000
0E000000
0E000000
0F300000
07E00000
03800000
ENDCHAR
STARTCHAR 0075
ENCODING 117
SWIDTH 291 0
DWIDTH 28 0
BBX 28 29 -4 -1
BITMAP
000E0000
007F0000
008F0000
010F01C0
020E03E0
000E03C0
001C07C0
001C0780
00380F00
00381F00
00701E00
00602C00
00E07C00
00C0DC00
01809800
03811800
03021800
06063000
060C3000
0C183000
1C303010
18603020
38C03020
71803060
730030C0
FE003180
FC003380
F8001F00
E0001C00
ENDCHAR
STARTCHAR 0076
ENCODING 118
SWIDTH 218 0
DWIDTH 21 0
BBX 26 37 -1 -3
BITMAP
000000C0
00000380
08000700
1C000600
1C000C00
1E001800
1E003000
1E007000
1E00E000
1E00C000
0E018000
0E038000
0E070000
0E060000
0E0C0000
0C1C0000
0C180000
0C300000
0C700000
08E00000
08C00000
19C00000
1B800000
1B800000
17000000
1E000000
3E000000
3C000000
3C000000
38000000
38000000
70000000
70000000
70000000
70000000
E0000000
60000000
ENDCHAR
STARTCHAR 0077
ENCODING 119
SWIDTH 437 0
DWIDTH 42 0
BBX 41 34 0 -3
BITMAP
000000030000
070000038000
078000038000
0F8000038000
0F8000038000
0F8000038000
1F8000038000
3B0000018000
730040018000
6300E0018000
0701F0018000
0701F0038000
060370038080
060770058100
0E0670048100
0C0C7008C200
0C1C7008CC00
1C187018F800
183070107000
187070300000
18E070200000
30C070600000
31C070C00000
238070800000
270071800000
670073000000
4E007F000000
5C007E000000
7C003C000000
F80038000000
F00000000000
F00000000000
E00000000000
C00000000000
ENDCHAR
STARTCHAR 0078
ENCODING 120
SWIDTH 239 0
DWIDTH 23 0
BBX 32 36 -8 -5
BITMAP
00000003
00070007
0007001F
0003803E
0003807C
000381F0
000383E0
000387C0
00038F00
00039E00
0003BC00
0003F800
0003F000
0003E000
0003C000
00078000
000D8000
00098000
00318000
00618000
00418000
00818000
01018000
03018000
06008000
0C00C000
1800C000
1000C400
30006800
60007800
60003000
C0000000
C0000000
C0000000
C0000000
C0000000
ENDCHAR
STARTCHAR 0079
ENCODING 121
SWIDTH 281 0
DWIDTH 27 0
BBX 47 63 -24 -33
BITMAP
000000018000
00000001800E
00000003801E
00000007803E
00000007807E
0000000D805E
00000009809E
00000013819C
00000033033C
00000023033C
00000047063C
000000870C3C
000001060C38
0000010E1878
0000000E3078
0000000E3070
0000001C60F0
0000001CC0F0
0000001DC0E0
0000003981E0
0000003B01E0
0000007701C0
0000007E03C0
0000007C0380
000000FC0380
000000F80780
000001F00700
000001E00F00
000001C00E00
000000000E00
000000001C00
000000001C00
000000003C00
000000003800
000000007800
000000007000
00000000F000
00000000E000
00000001C000
00000001C000
000000038000
000000038000
000000070000
000000070000
0000000E0000
0000000C0000
0000001C0000
000000380000
000000300000
000000700000
800000E00000
800001C00000
800003C00000
800003800000
C00007000000
C0000E000000
E0001C000000
E00038000000
7000E0000000
7801C0000000
3C0700000000
1FFC00000000
07E000000000
ENDCHAR
STARTCHAR 007A
ENCODING 122
SWIDTH 281 0
DWIDTH 27 0
BBX 34 30 -8 -2
BITMAP
00000FFC00
00007FFF80
0001FFFFC0
0003E003C0
00070003C0
0000000700
0000001E00
0000003800
0000007000
000000E000
0000018000
0000030000
0000060000
00000C0000
0000380000
0000700000
0000E00000
0001800000
0003000000
0006000000
001C000000
0038000000
0070000000
01C0000000
03FF000200
0FFFF80400
1FFFFFFC00
3803FFF000
E0001FC000
C000000000
ENDCHAR
STARTCHAR 007B
ENCODING 123
SWIDTH 437 0
DWIDTH 42 0
BBX 37 83 9 -15
BITMAP
00000001F8
0000001F00
0000007800
000000E000
000001C000
0000038000
0000070000
00000F0000
00000E0000
00001E0000
00001C0000
00003C0000
00003C0000
00003C0000
0000780000
0000780000
0000780000
0000780000
0000700000
0000700000
0000F00000
0000F00000
0000F00000
0000F00000
0000E00000
0000E00000
0000E00000
0001E00000
0001C00000
0001C00000
0001C00000
0003800000
0003800000
0003000000
0006000000
000E000000
000C000000
0018000000
0030000000
00E0000000
0F80000000
FE00000000
0F00000000
01C0000000
00E0000000
0060000000
0030000000
0030000000
0018000000
0018000000
0018000000
0018000000
0018000000
0018000000
0018000000
0018000000
0030000000
0030000000
0030000000
0070000000
0070000000
0060000000
00E0000000
00E0000000
00E0000000
01C0000000
01C0000000
01C0000000
01C0000000
0380000000
0380000000
0380000000
0380000000
0380000000
0380000000
0380000000
0380000000
0380000000
01C0000000
01C0000000
00E0000000
0030000000
000F000000
ENDCHAR
STARTCHAR 007C
ENCODING 124
SWIDTH 250 0
DWIDTH 24 0
BBX 11 80 8 -12
BITMAP
0780
07C0
07C0
07C0
07E0
03E0
03E0
03E0
03E0
03E0
03E0
01E0
01E0
01E0
01E0
01E0
01E0
01E0
01E0
01E0
01E0
01C0
01C0
01C0
01C0
01C0
01C0
01C0
01C0
01C0
01C0
01C0
01C0
0180
0180
0380
0380
0380
0380
0380
0380
0380
0380
0300
0300
0300
0300
0700
0700
0700
0700
0600
0600
0600
0600
0E00
0E00
0E00
0E00
0C00
0C00
0C00
1C00
1C00
1C00
1C00
1800
3800
3800
3800
3800
7000
7000
7000
7000
E000
E000
E000
C000
8000
ENDCHAR
STARTCHAR 007D
ENCODING 125
SWIDTH 437 0
DWIDTH 42 0
BBX 41 83 -5 -15
BITMAP
0000003F8000
00000003F000
000000003800
000000001C00
000000000E00
000000000E00
000000000E00
000000000E00
000000000E00
000000000E00
000000000E00
000000000C00
000000001C00
000000001C00
000000001800
000000003800
000000003800
000000007000
000000007000
000000006000
00000000E000
00000000C000
00000001C000
00000001C000
000000018000
000000038000
000000030000
000000030000
000000070000
000000060000
000000060000
000000060000
000000060000
000000060000
000000060000
000000060000
000000030000
000000030000
000000018000
000000006000
000000001C00
000000000F80
000000007000
000000008000
000000030000
000000040000
000000180000
000000300000
000000700000
000000E00000
000000C00000
000001C00000
000001C00000
000003800000
000003800000
000007000000
000007000000
000007000000
00000F000000
00000E000000
00000E000000
00001E000000
00001E000000
00001C000000
00003C000000
00003C000000
00003C000000
000078000000
000078000000
000078000000
0000F0000000
0000F0000000
0000E0000000
0001E0000000
0001C0000000
0003C0000000
000380000000
000700000000
000E00000000
001C00000000
007000000000
1FC000000000
FC0000000000
ENDCHAR
STARTCHAR 007E
ENCODING 126
SWIDTH 375 0
DWIDTH 36 0
BBX 25 5 14 40
BITMAP
0F800000
3FF00180
707E0300
C00FFE00
0001F800
ENDCHAR
STARTCHAR 00A0
ENCODING 160
SWIDTH 354 0
DWIDTH 34 0
BBX 0 0 0 0
BITMAP
ENDCHAR
STARTCHAR 00A1
ENCODING 161
SWIDTH 197 0
DWIDTH 19 0
BBX 24 68 -5 -29
BITMAP
000003
00000E
00003C
00007C
0000F8
0000F8
0000F0
000060
000000
000000
000000
000000
000000
000300
000200
000600
000400
000C00
000800
001000
003000
003000
006000
006000
00C000
00C000
00C000
018000
018000
038000
030000
070000
070000
060000
0E0000
0E0000
0E0000
1C0000
1C0000
1C0000
1C0000
3C0000
3C0000
380000
380000
780000
780000
780000
780000
780000
780000
F80000
F00000
F00000
F00000
F00000
F00000
F00000
F00000
F00000
F00000
F00000
F00000
F00000
700000
700000
300000
300000
ENDCHAR
STARTCHAR 00A2
ENCODING 162
SWIDTH 489 0
DWIDTH 47 0
BBX 44 56 4 -9
BITMAP
000000000070
0000000001E0
0000000003C0
000000000F80
000000001F00
000000003E00
000000007800
0000000FF000
0000007FF000
000001F1F800
000007C39800
00001F071800
00003C0E1800
0000F81C1800
0001E0381800
0003C0700000
000780E00000
001F01C00000
003E03800000
007C07000000
007806000000
00F00C000000
01E018000000
03C030000000
07C060000000
0780C0000000
0F0080000000
0F0180000000
1E0300000000
1E0600000000
3C0400000000
3C0C00000000
7C1800000000
7810000C0000
7830001C0000
786000780000
784001E00000
78C007C00000
79801F000000
3D0078000000
1F03E0000000
0FFF00000000
07F800000000
0E0000000000
0C0000000000
0C0000000000
180000000000
180000000000
300000000000
300000000000
600000000000
600000000000
600000000000
E00000000000
C00000000000
400000000000
ENDCHAR
STARTCHAR 00A3
ENCODING 163
SWIDTH 812 0
DWIDTH 78 0
BBX 75 69 0 -5
BITMAP
0000000000000003E000
000000000000000FF000
000000000000001E3800
00000000000000781800
00000000000000F00C00
00000000000001E00C00
00000000000003C00C00
00000000000007800E00
0000000000000F000600
0000000000000F000600
0000000000001E000600
0000000000003C000600
0000000000003C000600
00000000000078000600
000000000000F0000000
000000000000F0000000
000000000001E0000000
000000000001C0000000
000000000003C0000000
00000000000780000000
00000000000780000000
00000000000F00000000
00000000000F00000000
00000000001E00000000
00000000001E00000000
00000000003C00000000
00000000003C00000000
00000000003800000000
00000000007800000000
00000000007000000000
0000000000F000000000
0000000000E000000000
00000001FFFFFF000000
0000001FFFFFF0000000
0000001FF3C000000000
00000000038000000000
00000000078000000000
00000000078000000000
00000000070000000000
000000000F0000000000
000000000E0000000000
000000001E0000000000
000000001C0000000000
000000003C0000000000
00000000380000000000
00000000780000000000
00000000700000000000
00000000F00000000000
00000000E00000000000
00000001C00000000000
00000001C00000000000
00000003800000000000
00000007800000000000
00000007000000000000
0000000E000000000000
0000000C000000000000
0000001C000000000000
00000038000000000100
0FFE0030000000000080
7FFFF060000000000040
F003FFE0000000000060
C0000FFF000000000060
C000017FF80000000060
C0000607FFC0000000E0
40000C007FFF000001C0
6000300007FFFF000780
3000C000003FFFFFFF00
0E0300000001FFFFFC00
03FC0000000003FFE000
ENDCHAR
STARTCHAR 00A4
ENCODING 164
SWIDTH 635 0
DWIDTH 61 0
BBX 57 47 2 -3
BITMAP
00000000003FF800
0000000003FFFE00
000000001FE00F00
00000000FE000380
00000003F0000000
0000000FC0000000
0000003F00000000
0000007C00000000
000001F000000000
000003E000000000
00000F8000000000
00001F0000000000
00003E0000000000
0000780000000000
0000F00000000000
0001E00000000000
0003C00000000000
0007800000000000
000F000000000000
07FFFFFFFFC00000
07FFFFFFFC000000
07FFFF0000000000
0078000000000000
0070000000000000
00E0000000000000
01E01FFFF8000000
7FFFFFFFF0000000
FFFFFFFE00000000
7FFF800000000000
0380000000000000
0700000000000000
0700000000000000
0700000000006000
0E00000000018000
0E00000000070000
0E000000000C0000
0E00000000380000
0E00000000E00000
0E00000003800000
0E0000000E000000
0F00000038000000
07000000E0000000
0780000380000000
03C0001C00000000
01F801F000000000
00FFFF8000000000
001FF80000000000
ENDCHAR
STARTCHAR 00A5
ENCODING 165
SWIDTH 406 0
DWIDTH 39 0
BBX 45 60 7 -3
BITMAP
000000000018
01C000000060
01E0000000C0
01F000000380
01F000000700
00F000000C00
00F000001800
007800003000
00780000E000
007800018000
003800030000
003800060000
0038000C0000
001800180000
001800300000
001800600000
001800C00000
001801800000
001803000000
001806000000
00180C000000
001818000000
001830000000
003860000000
0038C0000000
0031C0000000
003380000000
007700000000
1FFFF0000000
FFFFFE000000
FF7C00000000
007800000000
00F800000000
00F000000000
00F000000000
01E000000000
01E000000000
01C000000000
FFFFE0000000
FFFFFE000000
F38000000000
078000000000
078000000000
0F0000000000
0F0000000000
0F0000000000
1F0000000000
1E0000000000
1E0000000000
3E0000000000
3E0000000000
3E0000000000
7E0000000000
7E0000000000
7C0000000000
7C0000000000
7C0000000000
FC0000000000
FC0000000000
700000000000
ENDCHAR
STARTCHAR 00A7
ENCODING 167
SWIDTH 520 0
DWIDTH 50 0
BBX 44 58 8 -3
BITMAP
00000007FC00
0000007FFF80
000001FF00C0
000007F00060
00001FC00030
00003F000030
0000FC000030
0001F8000030
0003F0000070
0003E0000060
0007C00000E0
000F800000E0
000F000001C0
000E00000380
001E00000780
001C00000F00
001C00000E00
003800001C00
007800003800
00F800007000
01F800000000
03D800000000
078800000000
070800000000
0E0400000000
0C0600000000
1C0200000000
1C0100000000
180080000000
1800C0000000
180060000000
180030000000
180018000000
08000C000000
080006000000
0C0003000000
060001800000
020000C00000
030000600000
018000600000
00C000300000
006000300000
003000700000
001800F00000
000E01E00000
00070FC00000
0003FF000000
0001F8000000
0000C0000000
000060000000
000070000000
000078000000
0000F8000000
0001F8000000
0003F8000000
C03FF0000000
FFFFC0000000
1FFC00000000
ENDCHAR
STARTCHAR 00A8
ENCODING 168
SWIDTH 354 0
DWIDTH 34 0
BBX 20 8 11 34
BITMAP
030030
0E00E0
3C03C0
7C07C0
F80F80
F80F80
F00F00
600600
ENDCHAR
STARTCHAR 00A9
ENCODING 169
SWIDTH 635 0
DWIDTH 61 0
BBX 51 47 6 3
BITMAP
00000003FE0000
0000001FFFC000
000000F807F000
000003C000F800
00000E00003E00
00003800001E00
00007000000F00
0001C000FE0780
00038007070780
000700180383C0
000C00600183C0
001801C00183E0
003007000181E0
00600E000101E0
00C01C000001E0
01C038000001E0
038070000001E0
0700E0000001E0
0601C0000001E0
0E0380000001C0
1C0700000003C0
1C0E00000003C0
380E00000003C0
381C0000000780
30380000000780
70380000000700
70700000000F00
70700000001E00
E0700000001C00
E0E00000603C00
E0E00000E03800
E0E00003C07000
E0E0000780E000
E0E0001E01E000
E0E0007803C000
E07003E0078000
70781F000F0000
703FF8001C0000
780FC000380000
38000000F00000
1C000001E00000
0E000007800000
0F80001E000000
03C0007C000000
01F803E0000000
007FFF80000000
000FF800000000
ENDCHAR
STARTCHAR 00AA
ENCODING 170
SWIDTH 302 0
DWIDTH 29 0
BBX 27 30 3 22
BITMAP
000007C0
00003FE0
0000FC20
0001E020
0003C300
00078700
000E0F00
001C1E00
00383600
00706C00
00E0CC00
00E19800
01C31800
03863000
030C3000
061C3080
06386100
0C706200
0CE06400
19806800
1B007000
1E002000
1C000000
00007C00
000FC000
00FC0000
07E00000
3F000000
FC000000
20000000
ENDCHAR
STARTCHAR 00AB
ENCODING 171
SWIDTH 385 0
DWIDTH 37 0
BBX 32 29 2 4
BITMAP
0000C003
00018006
0003800E
0007001C
000E0038
001C0070
003800E0
007001C0
00E00380
01C00700
03800E00
07001C00
0E003800
1C007000
3C00F000
3800E000
7C01F000
FC03F000
7E03F800
3E00FC00
1F007C00
0F003E00
07801E00
03800F00
03C00F00
01C00700
00E00380
00E00380
00600180
ENDCHAR
STARTCHAR 00AC
ENCODING 172
SWIDTH 447 0
DWIDTH 43 0
BBX 32 14 6 9
BITMAP
FFFFFFFF
FFFFFFFF
7FE00007
00000003
00000003
00000003
00000003
00000003
00000003
00000003
00000003
00000003
00000003
00000003
ENDCHAR
STARTCHAR 00AE
ENCODING 174
SWIDTH 635 0
DWIDTH 61 0
BBX 51 47 6 3
BITMAP
00000003FE0000
0000001FFFC000
000000F803F000
0000038000F800
00000E00003E00
00003000001E00
00006000000F00
000180FFC00780
00031FFFF80780
0006FF803E03C0
000FF81C0703C0
001F80380183E0
003E007800C1E0
007000F000C1E0
00C001E000C1E0
01C001C000C1E0
0380038001C1E0
070007800181E0
06000F000781E0
0E000E000F01C0
1C001C003E03C0
1C003C01FC03C0
3800783FF003C0
380077FF800380
3000E3F8000780
7001E300000700
7001C180000F00
70038180000E00
E0078180001C00
E00700C0003C00
E00E00C0003800
E00E0060007000
E01C002000E000
E01C003001E000
E038001803C000
E0300008078000
707000040F0000
706000031C0000
78600001F80000
38600000700000
1C400001E00000
0E400007800000
0F80000E000000
03E0007C000000
01FC03E0000000
007FFF80000000
000FF800000000
ENDCHAR
STARTCHAR 00AF
ENCODING 175
SWIDTH 354 0
DWIDTH 34 0
BBX 22 4 10 35
BITMAP
3FFFC0
FFFFFC
7FFFFC
7FC000
ENDCHAR
STARTCHAR 00B0
ENCODING 176
SWIDTH 250 0
DWIDTH 24 0
BBX 17 18 4 34
BITMAP
03E000
0FF800
1FFC00
3C1E00
700700
600300
E00380
C00180
C00180
C00180
C00180
E00380
600300
700700
3C1E00
1FFC00
0FF800
03E000
ENDCHAR
STARTCHAR 00B1
ENCODING 177
SWIDTH 447 0
DWIDTH 43 0
BBX 32 31 6 4
BITMAP
00018000
00038000
00038000
00038000
00038000
00038000
00018000
00018000
00018000
00018000
00018000
FFFFFFFE
FFFFFFFF
7F818000
00018000
00018000
00018000
00018000
00018000
00018000
00018000
00018000
00018000
00000000
00000000
00000000
00000000
00000000
7FFFFFE0
FFFFFFFE
7FFF0000
ENDCHAR
STARTCHAR 00B4
ENCODING 180
SWIDTH 354 0
DWIDTH 34 0
BBX 17 12 16 34
BITMAP
000700
001F80
003F80
007F00
00FC00
03F000
07E000
0F8000
1E0000
780000
E00000
C00000
ENDCHAR
STARTCHAR 00B5
ENCODING 181
SWIDTH 510 0
DWIDTH 49 0
BBX 52 60 -2 -18
BITMAP
000FC00003F000
000F800003E000
000F800003E000
001F800007E000
001F800007E000
001F800007E000
001F000007C000
001F000007C000
003F00000FC000
003F00000FC000
003E00000F8000
003E00000F8000
003E00001F8000
007E00001F8000
007E00001F8000
007C00001F0000
007C00003F0000
00FC00003F0000
00FC00003F0000
00FC00003E0000
00F800003E0000
00F800007E0000
01F800007E0000
01F800007E0000
01F000007C0000
01F00000FC0020
01F00000FC0070
03F00000FC0060
03F00001FC00E0
03F00001F800E0
03F00003F800E0
07F80003F801E0
07F800077801C0
07B8000FF803C0
07BC000EF80380
07BC001EFC0780
0F9F007C7C1F00
0F9F81F87FFE00
0F8FFFF87FFE00
0F07FFE03FFC00
1F03FFC01FF000
1F00FE000FC000
1F000000000000
1F000000000000
3F000000000000
3F000000000000
3F000000000000
3F000000000000
7F000000000000
7E000000000000
7E000000000000
7E000000000000
FE000000000000
FE000000000000
FE000000000000
FE000000000000
FC000000000000
FC000000000000
FC000000000000
78000000000000
ENDCHAR
STARTCHAR 00B6
ENCODING 182
SWIDTH 552 0
DWIDTH 53 0
BBX 55 68 4 -11
BITMAP
0000000000003E
0000000000007E
000000000000F0
000000000001E0
000000001FFFC0
00000007FFFF80
0000007FFFC700
000003FFFF0F00
00000FFFFE1E00
00003FFFFC3C00
00007FFFFC3C00
0000FFFFF87800
0001FFFFF07800
0003FFFFE0F000
0007FFFFE0F000
0007FFFFC1E000
000FFFFFC1E000
000FFFFF83C000
000FFFFF83C000
001FFFFF038000
001FFFFF078000
001FFFFE070000
001FFFFE0F0000
000FFFFC0F0000
000FFFFC0E0000
000FFFF81E0000
0007FFF81C0000
0003FFF01C0000
0001FFF03C0000
00007FF0380000
000007E0380000
000000E0700000
000001C0700000
000001C0700000
000001C0E00000
00000380E00000
00000380C00000
00000301C00000
00000701C00000
00000701800000
00000E03800000
00000E03000000
00000E03000000
00001C06000000
00001C06000000
0000380E000000
0000380C000000
0000301C000000
00007018000000
00006018000000
0000E030000000
0000C030000000
0001C060000000
00018060000000
000380C0000000
00030180000000
00060180000000
000E0300000000
000C0600000000
00180000000000
00300000000000
00300000000000
00600000000000
00C00000000000
01800000000000
06000000000000
1C000000000000
F0000000000000
ENDCHAR
STARTCHAR 00B7
ENCODING 183
SWIDTH 156 0
DWIDTH 15 0
BBX 8 8 3 12
BITMAP
03
0E
3C
7C
F8
F8
F0
60
ENDCHAR
STARTCHAR 00B8
ENCODING 184
SWIDTH 354 0
DWIDTH 34 0
BBX 14 24 0 -24
BITMAP
0038
00E0
01C0
01C0
0380
0380
0380
0380
03C0
03E0
01F0
00F0
00F8
007C
007C
003C
003C
003C
0038
0078
0060
03C0
7F00
F800
ENDCHAR
STARTCHAR 00BA
ENCODING 186
SWIDTH 239 0
DWIDTH 23 0
BBX 18 30 3 22
BITMAP
000F00
003F80
0071C0
00C0C0
0080C0
0180C0
0100C0
0170C0
02E0C0
02E180
03C180
058180
038100
030300
020300
020600
040600
040C00
0C0C00
081800
183000
186000
18C000
1F8000
0F0000
0003C0
007F00
0FE000
7E0000
F80000
ENDCHAR
STARTCHAR 00BB
ENCODING 187
SWIDTH 385 0
DWIDTH 37 0
BBX 33 29 -1 4
BITMAP
0180030000
0180030000
01C0038000
01E003C000
00E001C000
00F001E000
007800F000
007C00F800
003E007C00
003F007E00
001F803F00
000FC01F80
000F801F00
0007000E00
000F001E00
000E001C00
001C003800
0038007000
007000E000
00E001C000
01C0038000
0380070000
07000E0000
0E001C0000
1C00380000
3800700000
7000E00000
6000C00000
C001800000
ENDCHAR
STARTCHAR 00BF
ENCODING 191
SWIDTH 614 0
DWIDTH 59 0
BBX 67 72 -12 -33
BITMAP
000000000000000060
0000000000000001C0
000000000000000780
000000000000000F80
000000000000001F00
000000000000001F00
000000000000001E00
000000000000000C00
000000000000000000
000000000000000000
000000000000000000
000000000000000000
000000000000000000
000000000000000000
000000000000000000
000000000000002000
000000000000003000
000000000000001000
000000000000001000
000000000000001000
000000000000002000
000000000000006000
00000000000000C000
000000000000018000
000000000000030000
0000000000000E0000
0000000000003C0000
000000000000700000
000000000001E00000
000000000007800000
00000000003E000000
0000000000FC000000
0000000003F0000000
000000001FC0000000
000000007F00000000
00000003FC00000000
0000000FF000000000
0000007FC000000000
000003FE0000000000
00000FF80000000000
00007FE00000000000
0001FF000000000000
0007FC000000000000
001FF0000000000000
007F80000000000000
00FE00000000000000
03F800000000000000
07E0000000000FF000
0FC000000001FFFC00
1F000000001F00FE00
3E00000003E0007E00
3C0000000F00003E00
780000000000003E00
700000000000003C00
E00000000000007C00
E00000000000007800
C0000000000000F800
C0000000000000F000
C0000000000001E000
C0000000000003E000
C0000000000007C000
4000000000000F0000
6000000000003E0000
3000000000007C0000
180000000001F00000
0C0000000007C00000
02000000001F000000
0180000000FC000000
007000000FE0000000
000F8001FF00000000
0000FFFFF000000000
00000FFE0000000000
ENDCHAR
STARTCHAR 00C0
ENCODING 192
SWIDTH 875 0
DWIDTH 84 0
BBX 103 90 -12 -11
BITMAP
0000000000000000001C000000
0000000000000000003F000000
0000000000000000003F800000
0000000000000000001FC00000
00000000000000000007E00000
00000000000000000003F80000
00000000000000000000FC0000
000000000000000000003E0000
000000000000000000000F0000
0000000000000000000003C000
0000000000000000000000E000
00000000000000000000006000
00000000000000000000000000
00000000000000000000000000
00000000000000000000000000
00000000000000000000000000
00000000000000003FFFC00000
000000000000000FFFFFFF0000
00000000000000FFC001FFF800
00000000000007F0000003FF00
0000000000001F800000003FFC
0000000000007C0000000003FE
000000000000F00000000000FE
000000000001C000000000003C
0000000000038000000000003C
00000000000700000000000038
00000000000600000000000078
000000000006000000000000F0
00000000000600000000000CE0
000000000006000000000019E0
000000000002000000000031C0
00000000000100000000002380
00000000000080000000004380
00000000000040000000008700
00000000000030000000010600
0000000000000C000000020E00
00000000000003000000040C00
00000000000000000000041C00
00000000000000000000083800
00000000000000000000103800
00000000000000000000207000
00000000000000000000207000
0000000000000000000040E000
0000000000000000000080E000
0000000000000000000101C000
0000000000000000000201C000
00000000000000000006038000
0000000000000000000C038000
00000000000000000018070000
000000000000007FFFFF870000
0000000000007FFF003FFFF000
00000000001FF00000600E0700
0000000001FC000000C00C0000
000000001F80000000801C0000
00000000FC00000001001C0000
00000007E00000000300380000
0000003F000000000600380000
000000FC000000000C00700000
000003E0000000000800700000
00000F80000000001000F00000
00003F00000000002000E00000
0000FC00000000004000E00000
0003F000000000008001C00000
0007E000000000010001C00000
001F8000000000020003C00000
003F0000000000040003C00000
007E0000000000080003800000
00F80000000000100003800000
01F00000000000200007800000
03E00000000000400007800000
07C00000000001800007000000
0F80000000000300000F000000
1F00000000000400000F000000
3E00000000000800000F000000
3C00000000003000000F000000
7800000000006000000F000000
7000000000018000000F000000
F000000000030000000F000000
E0000000000E0000000F800000
E0000000001800000007820000
C0000000006000000007C40000
C000000001C000000003F80000
C0000000070000000000000000
C00000001C0000000000000000
40000000F00000000000000000
20000007C00000000000000000
3800003F000000000000000000
0E000FF8000000000000000000
03FFFFC0000000000000000000
007FF800000000000000000000
ENDCHAR
STARTCHAR 00C1
ENCODING 193
SWIDTH 875 0
DWIDTH 84 0
BBX 103 90 -12 -11
BITMAP
00000000000000000000000380
00000000000000000000000FC0
00000000000000000000001FC0
00000000000000000000003F80
00000000000000000000007E00
0000000000000000000001F800
0000000000000000000003F000
0000000000000000000007C000
000000000000000000000F0000
000000000000000000003C0000
00000000000000000000700000
00000000000000000000600000
00000000000000000000000000
00000000000000000000000000
00000000000000000000000000
00000000000000000000000000
00000000000000003FFFC00000
000000000000000FFFFFFF8000
00000000000000FFC001FFF800
00000000000007F0000003FF00
0000000000001F800000003FFE
0000000000007C0000000003FE
000000000000F00000000000FE
000000000001C000000000003C
0000000000038000000000003C
00000000000700000000000038
00000000000600000000000078
000000000006000000000000F0
00000000000600000000000CE0
000000000006000000000019E0
000000000002000000000031C0
00000000000100000000002380
00000000000080000000004380
00000000000040000000008700
00000000000030000000010700
0000000000000C000000020E00
00000000000003000000040E00
00000000000000000000041C00
00000000000000000000083800
00000000000000000000103800
00000000000000000000207000
00000000000000000000207000
0000000000000000000040E000
0000000000000000000080E000
0000000000000000000101C000
0000000000000000000201C000
00000000000000000006038000
0000000000000000000C038000
00000000000000000018070000
000000000000007FFFFF870000
0000000000007FFF003FFFF800
00000000001FE00000600E0780
0000000001F8000000C00E0000
000000001F80000000801C0000
00000000FC00000001801C0000
00000007E00000000300380000
0000003F000000000600380000
000000F8000000000C00700000
000003E0000000001800700000
00000F80000000003000F00000
00003E00000000002000E00000
0000FC00000000004000E00000
0003F000000000008001E00000
0007E000000000010001C00000
001F8000000000020001C00000
003F0000000000040003C00000
007E0000000000080003800000
00F80000000000100003800000
01F00000000000200007800000
03E00000000000C00007800000
07C00000000001800007000000
0F80000000000300000F000000
1F00000000000600000F000000
3E00000000000800000F000000
3C00000000003000000F000000
7800000000006000000F000000
7000000000018000000F000000
F000000000030000000F000000
E0000000000E0000000F810000
E0000000001800000007820000
C0000000007000000007C40000
C000000001C000000001F80000
C0000000070000000000000000
C00000003C0000000000000000
40000000F00000000000000000
20000007C00000000000000000
3800003F000000000000000000
0E000FF8000000000000000000
03FFFFC0000000000000000000
007FF800000000000000000000
ENDCHAR
STARTCHAR 00C2
ENCODING 194
SWIDTH 875 0
DWIDTH 84 0
BBX 103 90 -12 -11
BITMAP
00000000000000000000060000
000000000000000000001F0000
000000000000000000003F8000
000000000000000000007FC000
00000000000000000000F7E000
00000000000000000003E3F000
00000000000000000007C0F800
0000000000000000000F007E00
0000000000000000001E001F00
0000000000000000003C000F80
000000000000000000700003E0
000000000000000000600000E0
00000000000000000000000000
00000000000000000000000000
00000000000000000000000000
00000000000000000000000000
00000000000000003FFFC00000
000000000000000FFFFFFF0000
00000000000000FFC001FFF800
00000000000007F0000003FF00
0000000000001F800000003FFC
0000000000007C0000000003FE
000000000000F00000000000FE
000000000001C000000000003C
0000000000038000000000003C
00000000000700000000000038
00000000000600000000000078
000000000006000000000000F0
00000000000600000000000CE0
000000000006000000000019E0
000000000002000000000031C0
00000000000100000000002380
00000000000080000000004380
00000000000040000000008700
00000000000030000000010700
0000000000000C000000020E00
00000000000003000000040C00
00000000000000000000041C00
00000000000000000000083800
00000000000000000000103800
00000000000000000000207000
00000000000000000000207000
0000000000000000000040E000
0000000000000000000080E000
0000000000000000000101C000
0000000000000000000201C000
00000000000000000006038000
0000000000000000000C038000
00000000000000000018070000
000000000000007FFFFF870000
0000000000007FFF003FFFF800
00000000001FF00000600E0700
0000000001FC000000C00E0000
000000001F80000000801C0000
00000000FC00000001001C0000
00000007E00000000300380000
0000003F000000000600380000
000000FC000000000C00700000
000003E0000000001800700000
00000F80000000001000F00000
00003F00000000002000E00000
0000FC00000000004000E00000
0003F000000000008001E00000
0007E000000000010001C00000
001F8000000000020001C00000
003F0000000000040003C00000
007E0000000000080003800000
00F80000000000100003800000
01F00000000000200007800000
03E00000000000400007800000
07C00000000001800007000000
0F80000000000300000F000000
1F00000000000600000F000000
3E00000000000800000F000000
3C00000000003000000F000000
7800000000006000000F000000
7000000000018000000F000000
F000000000030000000F000000
E0000000000E0000000F810000
E0000000001800000007820000
C0000000006000000007C40000
C000000001C000000003F80000
C0000000070000000000000000
C00000001C0000000000000000
40000000F00000000000000000
20000007C00000000000000000
3800003F000000000000000000
0E000FF8000000000000000000
03FFFFC0000000000000000000
007FF800000000000000000000
ENDCHAR
STARTCHAR 00C3
ENCODING 195
SWIDTH 875 0
DWIDTH 84 0
BBX 103 86 -12 -11
BITMAP
00000000000000000007C00000
0000000000000000000FF00000
0000000000000000003FFC0010
000000000000000000787F0070
000000000000000000E00FC0E0
000000000000000000C003FFC0
0000000000000000000000FF80
00000000000000000000001F00
00000000000000000000000000
00000000000000000000000000
00000000000000000000000000
00000000000000000000000000
00000000000000003FFFC00000
000000000000000FFFFFFF0000
00000000000000FFC000FFF800
00000000000007F0000003FF00
0000000000001F800000003FFC
0000000000007C0000000003FE
000000000000F00000000000FE
000000000001C000000000003C
0000000000038000000000003C
00000000000700000000000038
00000000000600000000000078
00000000000600000000000070
00000000000600000000000CE0
000000000006000000000019E0
000000000002000000000011C0
00000000000100000000002380
00000000000080000000004380
00000000000040000000008700
00000000000030000000010700
0000000000000C000000020E00
00000000000003000000020C00
00000000000000000000041C00
00000000000000000000081800
00000000000000000000103800
00000000000000000000207000
00000000000000000000207000
0000000000000000000040E000
0000000000000000000080E000
0000000000000000000101C000
0000000000000000000301C000
00000000000000000006038000
0000000000000000000C038000
00000000000000000018070000
000000000000007FFFFF870000
0000000000007FFF003FFFF800
00000000001FE00000600E0700
0000000001F8000000C00E0000
000000001F80000000801C0000
00000000FC00000001001C0000
00000007E00000000300380000
0000003F000000000600380000
000000F8000000000C00700000
000003E0000000001800700000
00000F80000000003000F00000
00003E00000000002000E00000
0000FC00000000004000E00000
0003F000000000008001E00000
0007E000000000010001C00000
001F8000000000020001C00000
003F0000000000040003C00000
007E0000000000080003800000
00F80000000000100003800000
01F00000000000200007800000
03E00000000000C00007800000
07C00000000001800007000000
0F80000000000300000F000000
1F00000000000400000F000000
3E00000000000800000F000000
3C00000000003000000F000000
7800000000006000000F000000
7000000000018000000F000000
F000000000030000000F000000
E0000000000E0000000F810000
E0000000001800000007820000
C0000000006000000007C40000
C000000001C000000003F80000
C0000000070000000000000000
C00000003C0000000000000000
40000000F00000000000000000
20000007C00000000000000000
3800003F000000000000000000
0E000FF8000000000000000000
03FFFFC0000000000000000000
007FF800000000000000000000
ENDCHAR
STARTCHAR 00C4
ENCODING 196
SWIDTH 875 0
DWIDTH 84 0
BBX 103 86 -12 -11
BITMAP
00000000000000000000300300
00000000000000000000E00E00
00000000000000000003C03C00
00000000000000000007C07C00
0000000000000000000F80F800
0000000000000000000F80F800
0000000000000000000F00F000
00000000000000000006006000
00000000000000000000000000
00000000000000000000000000
00000000000000000000000000
00000000000000000000000000
00000000000000003FFFC00000
000000000000000FFFFFFF8000
00000000000000FFC001FFF800
00000000000007F0000003FF00
0000000000001F800000003FFE
0000000000007C0000000003FE
000000000000F00000000000FE
000000000001C000000000003E
0000000000038000000000003C
0000000000070000000000003C
00000000000600000000000078
000000000006000000000000F0
00000000000600000000000CF0
000000000006000000000019E0
000000000002000000000031C0
000000000001000000000023C0
00000000000080000000004380
00000000000040000000008780
00000000000030000000010700
0000000000000C000000020E00
00000000000003000000040E00
00000000000000000000041C00
00000000000000000000083C00
00000000000000000000103800
00000000000000000000207800
00000000000000000000207000
0000000000000000000040F000
0000000000000000000080E000
0000000000000000000101E000
0000000000000000000201C000
0000000000000000000603C000
0000000000000000000C038000
00000000000000000018078000
000000000000007FFFFF870000
0000000000007FFF003FFFF800
00000000001FF00000600E0780
0000000001FC000000600E0000
000000001F80000000C01C0000
00000000FC00000001801C0000
00000007E00000000300380000
0000003F000000000600380000
000000FC000000000400380000
000003E0000000000800700000
00000F80000000001000700000
00003F00000000002000E00000
0000FC00000000004000E00000
0003F000000000008001E00000
0007E000000000010001C00000
001F8000000000020001C00000
003F0000000000040003C00000
007E0000000000080003800000
00F80000000000100003800000
01F00000000000200007800000
03E00000000000400007800000
07C00000000000800007000000
0F80000000000300000F000000
1F00000000000600000F000000
3E00000000000C00000F000000
3C00000000003000000F000000
7800000000006000000F000000
700000000000C000000F000000
F000000000030000000F000000
E0000000000E0000000F800000
E0000000001800000007820000
C0000000007000000007C40000
C000000001C000000001F80000
C0000000070000000000000000
C00000001C0000000000000000
40000000F00000000000000000
20000007C00000000000000000
1800003F000000000000000000
0E000FF8000000000000000000
03FFFFC0000000000000000000
007FF800000000000000000000
ENDCHAR
STARTCHAR 00C5
ENCODING 197
SWIDTH 875 0
DWIDTH 84 0
BBX 108 88 -12 -11
BITMAP
00000000000000000000000003C0
0000000000000000000000000FE0
0000000000000000000000001C60
0000000000000000000000003830
0000000000000000000000007C30
000000000000000000000000F830
000000000000000000000000F030
000000000000000000000001F030
000000000000000000000001E060
000000000000000000000001E060
000000000000000000000001E0C0
000000000000000000000001E380
000000000000000000000000FF00
0000000000000000000000007C00
00000000000000003FFFC0000000
000000000000000FFFFFFF000000
00000000000000FFC001FFF00000
00000000000007F0000003FF0000
0000000000001F800000003FFC00
0000000000007C0000000003FE00
000000000000F00000000000FC00
000000000001C000000000003C00
0000000000038000000000003C00
0000000000070000000000003800
0000000000060000000000007000
000000000006000000000000F000
00000000000600000000000CE000
000000000006000000000019C000
000000000002000000000031C000
0000000000010000000000238000
0000000000008000000000430000
0000000000004000000000870000
0000000000003000000001060000
0000000000000C000000020E0000
00000000000003000000040C0000
00000000000000000000041C0000
0000000000000000000008380000
0000000000000000000010380000
0000000000000000000020700000
0000000000000000000020600000
0000000000000000000040E00000
0000000000000000000080C00000
0000000000000000000101C00000
0000000000000000000201800000
0000000000000000000603800000
0000000000000000000C03000000
0000000000000000001807000000
000000000000007FFFFF87000000
0000000000007FFF003FFFF00000
00000000001FE00000600E0F0000
0000000001F8000000C01C000000
000000001F80000001801C000000
00000000FC000000010038000000
00000007E0000000020038000000
0000003F00000000060038000000
000000F8000000000C0070000000
000003E000000000180070000000
00000F80000000003000E0000000
00003E00000000006000E0000000
0000FC00000000004000E0000000
0003F000000000008001C0000000
0007E000000000010001C0000000
001F8000000000020003C0000000
003F000000000004000380000000
007E000000000008000380000000
00F8000000000010000380000000
01F0000000000060000780000000
03E00000000000C0000700000000
07C0000000000180000700000000
0F80000000000300000F00000000
1F00000000000400000F00000000
3E00000000001800000F00000000
3C00000000003000000F00000000
7800000000006000000F00000000
7000000000018000000F00000000
F000000000030000000F80000000
E0000000000C0000000F82000000
E0000000003800000007C4000000
C0000000006000000007F8000000
C000000001C000000003E0000000
C000000007000000000000000000
C00000003C000000000000000000
40000000F0000000000000000000
20000007C0000000000000000000
3800003F00000000000000000000
0E000FF800000000000000000000
03FFFFC000000000000000000000
007FF80000000000000000000000
ENDCHAR
STARTCHAR 00C6
ENCODING 198
SWIDTH 770 0
DWIDTH 74 0
BBX 91 60 -8 -10
BITMAP
0000000000003F0000000060
000000000000FFC07FFFFCE0
000000000003C1F3FFFFFFE0
00000000000F007FFF8003C0
00000000001C003FE0000180
000000000070001F80000380
0000000000E0001E00000300
0000000003C0003C00000200
000000000700007800000000
000000000E0000F000000000
000000001C0001F000000000
00000000380003E000000000
00000000700007C000000000
00000000E000078000000000
00000001C0000F0000000000
0000000380001E0000000000
0000000700003C0000000000
0000000E0000780000000000
0000001C0000F00000000000
000000780000E00000000000
000000F00001FFFFFFC00000
000001E00003FFFFFF000000
000003C00007FFF800000000
00000380000FF80000000000
00000700000F800000000000
00000E00001E000000000000
00001C000038000000000000
0007FFFFFFF8000000000000
003FFFFFFFF8000000000000
003FF00000E0000000000000
0000E00001C0000000000000
0001E00001C0000000000000
0003C0000380000000000000
000780000700000000000000
000700000700000000000000
000E00000E00000000000000
001E00000E00000000000000
001C00001C00000000000000
003800001C00000000000000
007800001800000000000000
007000001800000000200000
00E000003800000000C00000
01E000003000000003800000
01C00000300000000F000000
03800000300000003E000000
0780000030000001F8000000
070000003000000FE0000000
0F0000003800003F80000000
0E0000003C0003FC00000000
1C0000001F003FF000000000
1C0000001FFFFF0000000000
380000000FFFF80000000000
3800000001FF000000000000
700000000000000000000000
700000000000000000000000
E00000000000000000000000
E00000000000000000000000
C00000000000000000000000
C00000000000000000000000
800000000000000000000000
ENDCHAR
STARTCHAR 00C7
ENCODING 199
SWIDTH 822 0
DWIDTH 79 0
BBX 73 89 5 -28
BITMAP
00000000000FFF000000
0000000000FFFFF80000
00000FF8078007FE0000
0001FFFF1800003F8000
001FF001FE000007E000
007E000787E00001F000
01F0000E003E00007800
07C0003C0007C0003C00
0F0000700000F8001C00
1E0001E000003F000E00
3C00038000000FC00600
78000700000003F00700
70000E00000000FC0300
F0001C000000003F0300
E00038000000000FC380
E000700000000003F180
E000E00000000000FD80
E001C000000000007F80
E0038000000000001F80
60070000000000000780
30070000000000000100
100E0000000000000000
0C1C0000000000000000
02380000000000000000
01B80000000000000000
00700000000000000000
007E0000000000000000
00C3E000000000000000
00C03800000000000000
01800000000000000000
01800000000000000000
03000000000000000000
03000000000000000000
06000000000000000000
06000000000000000000
06000000000000000000
0C000000000000000000
0C000000000000000000
0C000000000000000000
18000000000000000000
18000000000000000000
18000000000000000000
18000000000000000000
30000000000000000000
30000000000000000000
30000000000000000000
30000000000000000400
30000000000000000800
30000000000000001800
30000000000000003000
30000000000000006000
3000000000000000C000
30000000000000018000
30000000000000030000
380000000000000E0000
180000000000001C0000
18000000000000300000
18000000000000E00000
0C000000000001800000
0C000000000007000000
0E00000000001C000000
07000000000078000000
038000000001E0000000
01C00000000780000000
00E00000003E00000000
0078000001F800000000
003E00000FC000000000
000FE001FE0000000000
0003FFFFE00000000000
00003FFC000000000000
00000300000000000000
00000600000000000000
00000C00000000000000
00000C00000000000000
00000E00000000000000
00000F00000000000000
00000700000000000000
00000780000000000000
000003C0000000000000
000001E0000000000000
000001E0000000000000
000000E0000000000000
000000E0000000000000
000000E0000000000000
000000C0000000000000
000001C0000000000000
00000380000000000000
00003E00000000000000
0001F800000000000000
ENDCHAR
STARTCHAR 00C8
ENCODING 200
SWIDTH 927 0
DWIDTH 89 0
BBX 93 90 0 -11
BITMAP
0000000000001C0000000000
0000000000003F0000000000
0000000000003F8000000000
0000000000001FC000000000
00000000000007E000000000
00000000000003F800000000
00000000000000FC00000000
000000000000003E00000000
000000000000000F00000000
0000000000000003C0000000
0000000000000000E0000000
000000000000000060000000
000000000000000000000000
00007FE00000000000000000
0003801F0000000000000000
000E0000F000000000000000
001800001F00000000000000
0030000003E0000000000000
00600000007C000000000000
00C00000000F800000000000
018000000003F00000000000
018000000000FE0000000000
0100000000001FC000000000
03000000000007F800000000
03000000000000FF00000000
030000000000003FE0000000
0600000000000007FC000000
0600000000000001FF800000
06000000000000003FF80000
060000000000000007FF0000
060000000000000E00FFF818
060000000000001F800FFFF0
060000000000003F00007FC0
060000000000007E00000000
060000000000007C00000000
06000000000000F800000000
06000000000001F000000000
06000000000001E000000000
03000000000003E000000000
03000000000003C000000000
030000000000078000000000
010000000000078000000000
0180000000000F0000000000
0080000000000F0000000000
00C0000000001E0000000000
00C0000000001E0000000000
0040000000003C0000000000
0060000000003C0000000000
002000000000380000000000
003000000000780000000000
001000000000700000000000
000800000000E00000000000
000C0000000FFFFF80000000
0004000001FFFFFFFF000000
000600001FF9F8000FC00000
000200007F81C00000000000
00010001FC03800000000000
00018007E003800000000000
0000C0078007000000000000
000040070007000000000000
000020000006000000000000
00001000000E000000000000
00001800000C000000000000
00000C00001C000000000000
000006000018000000000000
000003000038000000000000
000001800030000000000000
000000400070000000000000
000000000060000000000000
0000000000E0000000000000
0000000000C0000000000000
0000000001C0000000000000
07FFC0000380000000000000
3801FF000300000000000000
400007F80700000000000000
C000003F8E00000000000000
84000007FC00000000000000
040000007800000000000000
040000007F00000000000000
02000000E7E0000000000000
03000001C0FE000000001000
01800003801FC00000000800
0040000F0003F80000000400
0030003C00007F8000000600
000E03F000000FF000000600
0007FFC0000001FF00000600
0001FE000000003FF8000E00
0000000000000003FFC03C00
00000000000000003FFFF800
000000000000000001FFC000
ENDCHAR
STARTCHAR 00C9
ENCODING 201
SWIDTH 927 0
DWIDTH 89 0
BBX 93 90 0 -11
BITMAP
000000000000000007000000
00000000000000001F800000
00000000000000003F800000
00000000000000007F000000
0000000000000000FC000000
0000000000000003F0000000
0000000000000007E0000000
000000000000000F80000000
000000000000001E00000000
000000000000007800000000
00000000000000E000000000
00000000000000C000000000
000000000000000000000000
00007FE00000000000000000
0003801F0000000000000000
000E0000F000000000000000
001800001F00000000000000
0030000003E0000000000000
00600000007C000000000000
00C00000000F800000000000
018000000003F00000000000
018000000000FE0000000000
0100000000001FC000000000
03000000000007F800000000
03000000000000FF00000000
030000000000003FE0000000
0600000000000007FC000000
0600000000000001FF800000
06000000000000003FF80000
060000000000000007FF0000
060000000000000E00FFF818
060000000000001F800FFFF0
060000000000003F00007FC0
060000000000007E00000000
060000000000007C00000000
06000000000000F800000000
06000000000001F000000000
06000000000001E000000000
03000000000003E000000000
03000000000003C000000000
030000000000078000000000
010000000000078000000000
0180000000000F0000000000
0080000000000F0000000000
00C0000000001E0000000000
00C0000000001E0000000000
0040000000003C0000000000
0060000000003C0000000000
002000000000780000000000
003000000000700000000000
001000000000700000000000
000800000000E00000000000
000C0000000FFFFF00000000
0004000001FFFFFFFE000000
000600001FF9F0003F000000
000200007F81800000000000
00010001FC03800000000000
00018007E003000000000000
0000C0078007000000000000
000040070006000000000000
000020000006000000000000
00001000000E000000000000
00001800000C000000000000
00000C00001C000000000000
000006000018000000000000
000003000038000000000000
000001800030000000000000
000000400070000000000000
000000000060000000000000
0000000000E0000000000000
0000000000C0000000000000
000000000180000000000000
07FFC0000380000000000000
3801FF000300000000000000
400007F80700000000000000
C000003F8E00000000000000
84000007FC00000000000000
040000007800000000000000
040000007F00000000000000
02000000E7E0000000000000
03000001C0FE000000001000
01800003801FC00000000800
0040000F0003F80000000400
0030003C00007F8000000600
000E03F000000FF000000600
0007FFC0000001FF00000600
0001FE000000003FF8000E00
0000000000000003FFC03C00
00000000000000003FFFF800
000000000000000001FFC000
ENDCHAR
STARTCHAR 00CA
ENCODING 202
SWIDTH 927 0
DWIDTH 89 0
BBX 93 90 0 -11
BITMAP
000000000000000600000000
000000000000001F00000000
000000000000003F80000000
000000000000007FC0000000
00000000000000F7E0000000
00000000000003E3F0000000
00000000000007C0F8000000
0000000000000F007E000000
0000000000001E001F000000
0000000000003C000F800000
000000000000700003E00000
000000000000600000E00000
000000000000000000000000
00007FE00000000000000000
0003801F0000000000000000
000E0000F000000000000000
001800001F00000000000000
0030000003E0000000000000
00600000007C000000000000
00C00000000F800000000000
018000000003F00000000000
018000000000FE0000000000
0100000000001FC000000000
03000000000007F800000000
03000000000000FF00000000
030000000000003FE0000000
0600000000000007FC000000
0600000000000001FF800000
06000000000000003FF80000
060000000000000007FF0000
060000000000000E00FFF818
060000000000001F800FFFF0
060000000000003F00007FC0
060000000000007E00000000
060000000000007C00000000
06000000000000F800000000
06000000000001F000000000
06000000000001E000000000
03000000000003E000000000
03000000000003C000000000
030000000000078000000000
010000000000078000000000
0180000000000F0000000000
0080000000000F0000000000
00C0000000001E0000000000
00C0000000001E0000000000
0040000000003C0000000000
0060000000003C0000000000
002000000000780000000000
003000000000700000000000
001000000000700000000000
000800000000E00000000000
000C0000000FFFFF80000000
0004000001FFFFFFFF000000
000600001FF9F0000F800000
000200007F81C00000000000
00010001FC03800000000000
00018007E003800000000000
0000C0078007000000000000
000040070007000000000000
000020000006000000000000
00001000000E000000000000
00001800000C000000000000
00000C00001C000000000000
000006000018000000000000
000003000038000000000000
000001800030000000000000
000000400070000000000000
000000000060000000000000
0000000000E0000000000000
0000000000C0000000000000
0000000001C0000000000000
07FFC0000380000000000000
3801FF000300000000000000
400007F80700000000000000
C000003F8E00000000000000
84000007FC00000000000000
040000007800000000000000
040000007F00000000000000
02000000E7E0000000000000
03000001C0FE000000001000
01800003801FC00000000800
0040000F0003F80000000400
0030003C00007F8000000600
000E03F000000FF000000600
0007FFC0000001FF00000600
0001FE000000003FF8000E00
0000000000000003FFC03C00
00000000000000003FFFF800
000000000000000001FFC000
ENDCHAR
STARTCHAR 00CB
ENCODING 203
SWIDTH 927 0
DWIDTH 89 0
BBX 93 86 0 -11
BITMAP
000000000000003006000000
00000000000000E01C000000
00000000000003C078000000
00000000000007C0F8000000
0000000000000F81F0000000
0000000000000F81F0000000
0000000000000F01E0000000
0000000000000600C0000000
000000000000000000000000
00007FE00000000000000000
0003801F0000000000000000
000E0000F000000000000000
001800001F00000000000000
0030000003E0000000000000
00600000007C000000000000
00C00000000F800000000000
018000000003F00000000000
018000000000FE0000000000
0100000000001FC000000000
03000000000007F800000000
03000000000000FF00000000
030000000000003FE0000000
0600000000000007FC000000
0600000000000001FF800000
06000000000000003FF80000
060000000000000007FF0000
060000000000000E00FFF818
060000000000001F800FFFF0
060000000000003F00007FC0
060000000000007E00000000
060000000000007C00000000
06000000000000F800000000
06000000000001F000000000
06000000000001E000000000
03000000000003E000000000
03000000000003C000000000
030000000000078000000000
010000000000078000000000
0180000000000F0000000000
0080000000000F0000000000
00C0000000001E0000000000
00C0000000001E0000000000
0040000000003C0000000000
0060000000003C0000000000
002000000000780000000000
003000000000700000000000
001000000000700000000000
000800000000E00000000000
000C0000000FFFFF80000000
0004000001FFFFFFFF000000
000600001FF9F8000FC00000
000200007F81C00000000000
00010001FC03800000000000
00018007E003800000000000
0000C0078007000000000000
000040070007000000000000
000020000006000000000000
00001000000E000000000000
00001800000C000000000000
00000C00001C000000000000
000006000018000000000000
000003000038000000000000
000001800030000000000000
000000400070000000000000
000000000060000000000000
0000000000E0000000000000
0000000000C0000000000000
0000000001C0000000000000
07FFC0000380000000000000
3801FF000300000000000000
400007F80700000000000000
C000003F8E00000000000000
84000007FC00000000000000
040000007800000000000000
040000007F00000000000000
02000000E7E0000000000000
03000001C0FE000000001000
01800003801FC00000000800
0040000F0003F80000000400
0030003C00007F8000000600
000E03F000000FF000000600
0007FFC0000001FF00000600
0001FE000000003FF8000E00
0000000000000003FFC03C00
00000000000000003FFFF800
000000000000000001FFC000
ENDCHAR
STARTCHAR 00CC
ENCODING 204
SWIDTH 656 0
DWIDTH 63 0
BBX 79 87 -6 -7
BITMAP
00000000000003800000
00000000000007E00000
00000000000007F00000
00000000000003F80000
00000000000000FC0000
000000000000007F0000
000000000000001F8000
0000000000000007C000
0000000000000001E000
00000000000000007800
00000000000000001C00
00000000000000000C00
00000000000000000000
00000000000000000000
00000000000000000000
00000000000000000000
00000000000000000380
00000000000000000786
0000000000000000FFF8
00000000000001FFFFC0
0000000000007FFE0F00
00000000000FFC001F00
0000000000FE00001F00
000000000FC000003E00
000000003C0000003E00
00000001E00000003C00
00000007800000007C00
0000000E000000007C00
00000038000000007800
00000070000000007800
000000C0000000007800
00000180000000007000
0000030000000000F000
0000030000000000E000
0000060000000000E000
0000060000000001E000
00000C0000000001C000
00000C0000000003C000
00000C0000000003C000
00000C00000000038000
00000C00000000078000
00000C00000000070000
00000C000000000F0000
00000C000000000E0000
00000E000000001E0000
000006000000001C0000
000006000000003C0000
00000300000000380000
00000300000000780000
00000180000000700000
00000080000000F00000
000000C0000001E00000
000000600FFFFFFFFE00
00000033FFFFFFFFFC00
000000FFFF0001C00000
00000FFE000003800000
00007FC6000003800000
0001FC03000007000000
0007E00180000E000000
001F000180000E000000
007C0000C0001C000000
00F00000400038000000
01C00000000038000000
03800000000070000000
060000000000E0000000
0C0000000001C0000000
180000000001C0000000
30000000000380000000
20000000000700000000
60000000000E00000000
40000000001C00000000
40000000003800000000
80000000007000000000
8000000000E000000000
8000000001C000000000
80000000038000000000
80000000070000000000
800000001E0000000000
C00000003C0000000000
40000000700000000000
60000001E00000000000
30000007800000000000
3800001F000000000000
1E00007C000000000000
07E007F0000000000000
01FFFF80000000000000
003FF800000000000000
ENDCHAR
STARTCHAR 00CD
ENCODING 205
SWIDTH 656 0
DWIDTH 63 0
BBX 78 87 -6 -7
BITMAP
000000000000000000E0
000000000000000003F0
000000000000000007F0
00000000000000000FE0
00000000000000001F80
00000000000000007E00
0000000000000000FC00
0000000000000001F000
0000000000000003C000
000000000000000F0000
000000000000001C0000
00000000000000180000
00000000000000000000
00000000000000000000
00000000000000000000
00000000000000000000
00000000000000000700
00000000000000000F0C
0000000000000001FFF0
00000000000003FFFF80
000000000000FFFC1E00
00000000001FF8001E00
0000000001FE00003E00
000000000FC000003C00
000000007C0000007C00
00000001E00000007800
00000007800000007800
0000001E00000000F800
0000003800000000F000
0000006000000000F000
000000C000000000F000
0000018000000000E000
0000030000000001E000
0000030000000001C000
0000060000000001C000
0000060000000003C000
00000C00000000038000
00000C00000000038000
00000C00000000070000
00000C00000000070000
00000C000000000F0000
00000C000000000E0000
00000C000000001E0000
00000C000000001C0000
00000E000000001C0000
00000600000000380000
00000600000000380000
00000300000000700000
00000300000000F00000
00000180000000E00000
00000180000001E00000
000000C0000001C00000
000000600FFFFFFFFC00
00000033FFFFFFFFF800
000000FFFE0003800000
00000FFC000007000000
00007F84000007000000
0001FC0600000E000000
0007E00300001C000000
001F000180001C000000
007C0000C00038000000
00F00000400070000000
01C00000000070000000
038000000000E0000000
060000000001C0000000
0C0000000003C0000000
18000000000380000000
30000000000700000000
20000000000E00000000
60000000001C00000000
40000000003800000000
40000000007000000000
8000000000F000000000
8000000001E000000000
8000000003C000000000
80000000070000000000
800000000E0000000000
800000001C0000000000
C0000000780000000000
40000000F00000000000
60000003C00000000000
30000007800000000000
3800001E000000000000
1E0000F8000000000000
07E007E0000000000000
03FFFF80000000000000
003FF800000000000000
ENDCHAR
STARTCHAR 00CE
ENCODING 206
SWIDTH 656 0
DWIDTH 63 0
BBX 78 87 -6 -7
BITMAP
00000000000000018000
0000000000000007C000
000000000000000FE000
000000000000001FF000
000000000000003DF800
00000000000000F8FC00
00000000000001F03E00
00000000000003C01F80
000000000000078007C0
0000000000000F0003E0
0000000000001C0000F8
00000000000018000038
00000000000000000000
00000000000000000000
00000000000000000000
00000000000000000000
00000000000000000700
00000000000000000F0C
0000000000000001FFF0
00000000000003FFFF80
000000000000FFFC1E00
00000000001FF8003E00
0000000001FE00003E00
000000000FC000003C00
000000007C0000007C00
00000001E00000007800
00000007800000007800
0000001E00000000F800
0000003800000000F000
0000006000000000F000
000000C000000000F000
0000018000000000E000
0000030000000001E000
0000030000000001C000
0000060000000001C000
0000060000000003C000
00000C00000000038000
00000C00000000038000
00000C00000000078000
00000C00000000070000
00000C000000000F0000
00000C000000000E0000
00000C000000001E0000
00000C000000001C0000
00000E000000003C0000
00000600000000380000
00000600000000780000
00000300000000700000
00000300000000F00000
00000180000000E00000
00000180000001E00000
000000C0000001C00000
000000600FFFFFFFFC00
00000033FFFFFFFFF800
000000FFFE0003800000
00000FFC000007000000
00007F84000007000000
0001FC0600000E000000
0007E00300001E000000
001F000180001C000000
007C0000C00038000000
00F00000400078000000
01C00000000070000000
038000000000E0000000
060000000001C0000000
0C0000000001C0000000
18000000000380000000
30000000000700000000
20000000000E00000000
60000000001C00000000
40000000003C00000000
40000000007800000000
8000000000F000000000
8000000001E000000000
8000000003C000000000
80000000078000000000
800000000E0000000000
800000001C0000000000
C0000000780000000000
40000000F00000000000
60000003C00000000000
30000007800000000000
3800001E000000000000
1E0000F8000000000000
07E007E0000000000000
03FFFF80000000000000
003FF800000000000000
ENDCHAR
STARTCHAR 00CF
ENCODING 207
SWIDTH 656 0
DWIDTH 63 0
BBX 78 83 -6 -7
BITMAP
000000000000000600C0
000000000000001C0380
00000000000000780F00
00000000000000F81F00
00000000000001F03E00
00000000000001F03E00
00000000000001E03C00
00000000000000C01800
00000000000000000000
00000000000000000000
00000000000000000000
00000000000000000000
00000000000000000700
0000000000000000070C
0000000000000000FFF0
00000000000001FFFF80
000000000000FFFC1F00
00000000000FF8001E00
0000000001FE00003E00
000000000FC000003E00
000000007C0000007C00
00000001E00000007C00
00000007800000007C00
0000000E00000000F800
0000003800000000F800
0000006000000000F000
000000C000000000F000
0000018000000000F000
0000030000000001E000
0000030000000001E000
0000060000000001E000
0000060000000003C000
00000C0000000003C000
00000C0000000003C000
00000C00000000078000
00000C00000000078000
00000C000000000F0000
00000C000000000F0000
00000C000000001E0000
00000C000000001E0000
00000E000000001E0000
000006000000003C0000
000006000000003C0000
00000300000000780000
00000300000000F80000
00000180000000F00000
00000180000001F00000
000000C0000001E00000
000000600FFFFFFFFE00
00000033FFFFFFFFFC00
000000FFFF0003C00000
00000FFC000007800000
00007F86000007800000
0001FC0300000F000000
0007E00300000E000000
001F000180001E000000
007C0000C0003C000000
00F00000400038000000
01C00000000078000000
038000000000F0000000
060000000001E0000000
0C0000000001C0000000
18000000000380000000
30000000000780000000
20000000000F00000000
60000000001E00000000
40000000001C00000000
40000000003800000000
80000000007000000000
8000000000E000000000
8000000001C000000000
80000000078000000000
800000000F0000000000
800000001E0000000000
C00000003C0000000000
40000000F00000000000
60000001E00000000000
30000007800000000000
3800001E000000000000
1E0000FC000000000000
07E007E0000000000000
01FFFF80000000000000
003FF800000000000000
ENDCHAR
STARTCHAR 00D1
ENCODING 209
SWIDTH 802 0
DWIDTH 77 0
BBX 77 100 5 -23
BITMAP
00000000000F80002000
00000000001FF800E000
00000000007FFF01C000
00007F0000F07FFF8000
0003FFC001C007FF0000
000F80E0018000FE0000
001E0030000000000000
00380018000000000000
00F0001C000000000000
01E0000C000000000000
01C00006000000000000
03800006000000000000
07800002000000000000
0F000003000000000000
0E0000030000000003E0
1E000001000000000FF0
1C000001000000003E30
3C000001800000007818
3800000180000000F018
7800000180000001C018
70000001800000038018
700000008000000F0038
700000008000001E0038
E0000000C00000380038
E0000000C00000700070
E0000000C00000E00070
E0000000C00001C000F0
C0000000C000038000E0
C0000000C000070001E0
C0000000C0000E0001C0
C0000000C0001C0003C0
C0000000C000380003C0
C0000000C00070000780
C0000000C000E0000780
C0000000C001C0000F00
40000000C00380000E00
40000000C00700001E00
40000000C00E00003C00
60000000C01C00003C00
20000001C03800007800
20000001C07000007800
20000001C0E00000F000
10000001C1C00001E000
1000000183800001E000
0800000187000003C000
0800000186000003C000
040000038C0000078000
040000039800000F0000
02000003B000000F0000
030000036000001E0000
01800003C000001E0000
00C000078000003C0000
00600007000000380000
00300007000000780000
000C000F000000F00000
0004001E000000F00000
0000003E000001E00000
0000007E000001C00000
0000005E000003C00000
000000BC000003800000
0000013C000007800000
0000023C000007000000
0000047800000F000000
0000087800000E000000
000018F000001E000000
000030F000001C000000
000061F000003C000000
0000C1E0000038000000
000181E0000038000000
000303C0000070000000
000603C0000070000000
000C07800000E0000000
00180F800000E0000000
00100F000000E0000000
00301E000001C0000000
00601E000001C0000000
00C03C00000180000000
01807C00000380000000
0300F800000380000000
0600F000000300000000
0C01E000000300000000
0C03C000000700000000
18078000000700000000
301F0000000700000000
307E0000000600080000
3FFC0000000600080000
3FF00000000600080000
0FC00000000600080000
00000000000600180000
00000000000600180000
00000000000600100000
00000000000600300000
00000000000200300000
00000000000300600000
00000000000300600000
00000000000100C00000
00000000000181C00000
000000000000C3800000
0000000000007F000000
0000000000003E000000
ENDCHAR
STARTCHAR 00D2
ENCODING 210
SWIDTH 781 0
DWIDTH 75 0
BBX 72 92 5 -10
BITMAP
000000000700000000
000000000FC0000000
000000000FE0000000
0000000007F0000000
0000000001F8000000
0000000000FE000000
00000000003F000000
00000000000F800000
000000000003C00000
000000000000F00000
000000000000380000
000000000000180000
000000000000000000
000000000000000000
000000000000000000
000000000000000000
000000000000000000
0000000000FFF80000
000000001FFFFF8000
00000001FC001FF000
00000007800001FC00
000000380000003F00
000000E00000000F80
0000030000000007C0
00000C0000000001E0
0000300000000000F0
000060000000000078
000180000000000038
00030000000000003C
00040000000000001C
00080000180000000E
00100000300000000E
00200000C00000000E
004000018000000006
008000030000000007
010000060000000007
020000180000000003
060000300000000003
040000600000000003
080000C00000000003
080001800000000003
100003000000000003
100006000000000003
30000C000000000003
200018000000000002
600030000000000002
600060000000000002
400040000000000006
4000C0000000000006
C00180000000000004
C00300000000000004
C0020000000000000C
C00600000000000008
C00C00000000000018
C00C00000000000010
C01800000000000010
C01800000000000020
C03000000000000020
E03000000000000040
606000000000000040
606000000000000080
704000000000000080
70C000000000000100
30C000000000000300
38C000000000000200
188000000000000400
1D8000000000000C00
0D8000000000000800
0F8000000000001000
078000000000002000
038000000000004000
03800000000000C000
01C000000000008000
01E000000000010000
01F000000000020000
01F800000000040000
01BC00000000080000
01CE00000000100000
00C700000000200000
00C3C0000000C00000
00E0E0000001800000
00E038000003000000
00700C000006000000
007803000018000000
003C00C00030000000
001E003000E0000000
000F000C0380000000
0007C0038F00000000
0003F801FC00000000
0001FFFFF780000000
00007FFF80F8000000
00000FF8000E000000
ENDCHAR
STARTCHAR 00D3
ENCODING 211
SWIDTH 781 0
DWIDTH 75 0
BBX 72 92 5 -10
BITMAP
00000000000000E000
00000000000003F000
00000000000007F000
0000000000000FE000
0000000000001F8000
0000000000007E0000
000000000000FC0000
000000000001F00000
000000000003C00000
00000000000F000000
00000000001C000000
000000000018000000
000000000000000000
000000000000000000
000000000000000000
000000000000000000
000000000000000000
0000000000FFF80000
000000001FFFFF8000
00000001FC001FF000
00000007800001FC00
000000380000003F00
000000E00000000F80
0000030000000007C0
00000C0000000001E0
0000300000000000F0
000060000000000078
000180000000000038
00030000000000003C
00040000000000001C
00080000180000000E
00100000300000000E
00200000C00000000E
004000018000000006
008000030000000007
010000060000000007
020000180000000003
060000300000000003
040000600000000003
080000C00000000003
080001800000000003
100003000000000003
100006000000000003
30000C000000000003
200018000000000002
600030000000000002
600060000000000002
400040000000000006
4000C0000000000006
C00180000000000004
C00300000000000004
C0020000000000000C
C00600000000000008
C00C00000000000018
C00C00000000000010
C01800000000000010
C01800000000000020
C03000000000000020
E03000000000000040
606000000000000040
606000000000000080
704000000000000080
70C000000000000100
30C000000000000300
38C000000000000200
188000000000000400
1D8000000000000C00
0D8000000000000800
0F8000000000001000
078000000000002000
038000000000004000
03800000000000C000
01C000000000008000
01E000000000010000
01F000000000020000
01F800000000040000
01BC00000000080000
01CE00000000100000
00C700000000200000
00C3C0000000C00000
00E0E0000001800000
00E038000003000000
00700C000006000000
007803000018000000
003C00C00030000000
001E003000E0000000
000F000C0380000000
0007C0038E00000000
0003F801FC00000000
0001FFFFE780000000
00007FFF80F8000000
00000FF8000E000000
ENDCHAR
STARTCHAR 00D4
ENCODING 212
SWIDTH 781 0
DWIDTH 75 0
BBX 72 92 5 -10
BITMAP
000000000001800000
000000000007C00000
00000000000FE00000
00000000001FF00000
00000000003DF80000
0000000000F8FC0000
0000000001F03E0000
0000000003C01F8000
00000000078007C000
000000000F0003E000
000000001C0000F800
000000001800003800
000000000000000000
000000000000000000
000000000000000000
000000000000000000
000000000000000000
0000000000FFF80000
000000001FFFFF8000
00000001FC001FF000
00000007800001FC00
000000380000003F00
000000E00000000F80
0000030000000007C0
00000C0000000001E0
0000300000000000F0
000060000000000078
000180000000000038
00030000000000003C
00040000000000001C
00080000180000000E
00100000300000000E
00200000C00000000E
004000018000000006
008000030000000007
010000060000000007
020000180000000003
060000300000000003
040000600000000003
080000C00000000003
080001800000000003
100003000000000003
100006000000000003
30000C000000000003
200018000000000002
600030000000000002
600060000000000002
400040000000000006
4000C0000000000006
C00180000000000004
C00300000000000004
C0020000000000000C
C00600000000000008
C00C00000000000018
C00C00000000000010
C01800000000000010
C01800000000000020
C03000000000000020
E03000000000000040
606000000000000040
606000000000000080
704000000000000080
70C000000000000100
30C000000000000300
38C000000000000200
188000000000000400
1D8000000000000C00
0D8000000000000800
0F8000000000001000
078000000000002000
038000000000004000
03800000000000C000
01C000000000008000
01E000000000010000
01F000000000020000
01F800000000040000
01BC00000000080000
01CE00000000100000
00C700000000200000
00C3C0000000C00000
00E0E0000001800000
00E038000003000000
00700C000006000000
007803000018000000
003C00C00030000000
001E003000E0000000
000F000C0380000000
0007C0038E00000000
0003F801FC00000000
0001FFFFE780000000
00007FFF80F8000000
00000FF8000E000000
ENDCHAR
STARTCHAR 00D5
ENCODING 213
SWIDTH 781 0
DWIDTH 75 0
BBX 72 87 5 -10
BITMAP
0000000001F0000000
0000000003FC000400
000000000FFF801C00
000000001E0FF03800
000000003801FFF000
0000000030007FE000
0000000000000FC000
000000000000000000
000000000000000000
000000000000000000
000000000000000000
000000000000000000
0000000000FFF80000
000000001FFFFF8000
00000001FC001FF000
00000007800001FC00
000000380000003F00
000000E00000000F80
0000030000000007C0
00000C0000000001E0
0000300000000000F0
000060000000000078
000180000000000038
00030000000000003C
00040000000000001C
00080000180000000E
00100000300000000E
00200000C00000000E
004000018000000006
008000030000000007
010000060000000007
020000180000000003
060000300000000003
040000600000000003
080000C00000000003
080001800000000003
100003000000000003
100006000000000003
30000C000000000003
200018000000000002
600030000000000002
600060000000000002
400040000000000006
4000C0000000000006
C00180000000000004
C00300000000000004
C0020000000000000C
C00600000000000008
C00C00000000000018
C00C00000000000010
C01800000000000010
C01800000000000020
C03000000000000020
E03000000000000040
606000000000000040
606000000000000080
704000000000000080
70C000000000000100
30C000000000000200
38C000000000000200
188000000000000400
1D8000000000000800
0D8000000000000800
0F8000000000001000
078000000000002000
038000000000004000
03800000000000C000
01C000000000008000
01E000000000010000
01F000000000020000
01F800000000040000
01BC00000000080000
01CE00000000100000
00C700000000200000
00C3C0000000C00000
00E0E0000001800000
00E038000003000000
00700C000006000000
007803000018000000
003C00C00030000000
001E003000E0000000
000F000C0380000000
0007C0038E00000000
0003F801FC00000000
0001FFFFE780000000
00007FFF80F8000000
00000FF8000E000000
ENDCHAR
STARTCHAR 00D6
ENCODING 214
SWIDTH 781 0
DWIDTH 75 0
BBX 72 88 5 -10
BITMAP
00000000000C00C000
000000000038038000
0000000000F00F0000
0000000001F01F0000
0000000003E03E0000
0000000003E03E0000
0000000003C03C0000
000000000180180000
000000000000000000
000000000000000000
000000000000000000
000000000000000000
000000000000000000
0000000000FFF80000
000000001FFFFF8000
00000001FC001FF000
00000007800001FC00
000000380000003F00
000000E00000000F80
0000030000000007C0
00000C0000000001E0
0000300000000000F0
000060000000000078
000180000000000038
00030000000000003C
00040000000000001C
00080000180000000E
00100000300000000E
00200000C00000000E
004000018000000006
008000030000000007
010000060000000007
020000180000000003
060000300000000003
040000600000000003
080000C00000000003
080001800000000003
100003000000000003
100006000000000003
30000C000000000003
200018000000000002
600030000000000002
600060000000000002
400040000000000006
4000C0000000000006
C00180000000000004
C00300000000000004
C0020000000000000C
C00600000000000008
C00C00000000000018
C00C00000000000010
C01800000000000010
C01800000000000020
C03000000000000020
E03000000000000040
606000000000000040
606000000000000080
704000000000000080
70C000000000000100
30C000000000000300
38C000000000000200
188000000000000400
1D8000000000000C00
0D8000000000000800
0F8000000000001000
078000000000002000
038000000000004000
03800000000000C000
01C000000000008000
01E000000000010000
01F000000000020000
01F800000000040000
01BC00000000080000
01CE00000000100000
00C700000000200000
00C3C0000000C00000
00E0E0000001800000
00E038000003000000
00700C000006000000
007803000018000000
003C00C00030000000
001E003000E0000000
000F000C0380000000
0007C0038E00000000
0003F801FC00000000
0001FFFFE780000000
00007FFF80F8000000
00000FF8000E000000
ENDCHAR
STARTCHAR 00D8
ENCODING 216
SWIDTH 604 0
DWIDTH 58 0
BBX 71 80 -6 -23
BITMAP
00000000000000001E
00000000000000007C
0000000000000000F0
0000000000000003E0
0000000000000007C0
000000000000000F80
000000000000001F00
0000000001FFC03C00
000000003FFFF87800
00000001FE001EF000
00000007E00003E000
0000003FFE0007C000
000000FFFE000FA000
000001FFF8001F1000
000007CFE0003E1800
00000F1F80007C0800
00003E3F0000F80C00
0000787C0001F00400
0000F0F80003E00400
0001C1F00007800600
000383C0000F000600
00070780001E000600
00040F00003C000600
00081E000078000600
00003C0000F0000E00
0000780001E0000E00
0000700003C0000E00
0000F0000780001C00
0001E0000F00001C00
0003C0001E00001C00
000380003C00003C00
000700007800003800
000F0000F000007800
000E0001E00000F000
001C0003C00000F000
001C0007800001E000
0038000F000003C000
0038001E000007C000
0070003C0000078000
0070007800000F0000
00E0007000001E0000
00E000E000003C0000
00C001C00000780000
00C003800000F00000
01C007000001E00000
01800E000007C00000
01801C00000F800000
01801C00001F000000
01803800003E000000
0180700000F8000000
0180E00001F0000000
0181C00007C0000000
0181C0001F80000000
00C380007E00000000
00C70001F800000000
00EE0007E000000000
007C003F8000000000
003C03FC0000000000
001FFFE00000000000
0033FE000000000000
007000000000000000
006000000000000000
00C000000000000000
01C000000000000000
018000000000000000
030000000000000000
030000000000000000
060000000000000000
0E0000000000000000
0C0000000000000000
1C0000000000000000
180000000000000000
380000000000000000
300000000000000000
700000000000000000
700000000000000000
600000000000000000
E00000000000000000
E00000000000000000
400000000000000000
ENDCHAR
STARTCHAR 00D9
ENCODING 217
SWIDTH 895 0
DWIDTH 86 0
BBX 84 93 4 -18
BITMAP
000000000000000E000000
000000000000001F800000
000000000000001FC00000
000000000000000FE00000
0000000000000003F00000
0000000000000001FC0000
00000000000000007E0000
00000000000000001F0000
0000000000000000078000
000000000000000001E000
0000000000000000007000
0000000000000000003000
0000000000000000000000
0000000000000000000000
000007FFF8000000000000
0001FFFFFFF00000000000
001FF8001FFF0000000000
00FE0000007FE000000000
03F000000003FF80000000
0F80000000007FC0000000
1E00000000001FC0000000
3800000000000780000000
7000000000000700000000
E000000000000F00000030
C000000000000E00000070
C000000000001E000000F0
C000000000001C000001F0
C000000000003C000001E0
40000000000038000003C0
20000000000070000003C0
100000000000F000000780
080000000000E000000780
060000000001E000001F00
018000000001C000001F00
0060000000038000003E00
0000000000038000005E00
0000000000070000007C00
000000000007000000BC00
00000000000E000000FC00
00000000000E0000017800
00000000001C0000017800
00000000003C000002F000
000000000038000004F000
000000000070000005E000
000000000070000009E000
0000000000E0000009C000
0000000000E0000013C000
0000000000C0000023C000
0000000001C00000238000
0000000001C00000478000
0000000003800000870000
0000000003800000870000
00000000070000010F0000
00000000070000020E0000
000000000E0000040E0000
000000000E0000041E0000
000000001E0000081C0000
000000001C0000101C0000
000000001C0000103C0000
0000000038000020380000
0000000038000040380000
0000000038000080380000
0000000070000080700000
0000000070000100700000
0000000070000200700000
00000000F0000400700000
00000000E0000800600000
00000000E0001000600000
00000001E0002000E00000
00000001E0006000E00000
00000001E000C000E00000
00000001E0018000E00000
00000001E0020000C00000
00000001E0040000C00000
00000001E0180000C00000
00000001F0300000C00000
00000000F0C00000C00200
00000000FF800000C00200
000000007C000000C00200
0000000000000000C00200
0000000000000000C00300
0000000000000000400300
0000000000000000400200
0000000000000000400200
0000000000000000600600
0000000000000000600600
0000000000000000200600
0000000000000000300C00
0000000000000000100C00
0000000000000000181800
00000000000000000C3800
000000000000000007F000
000000000000000003E000
ENDCHAR
STARTCHAR 00DA
ENCODING 218
SWIDTH 895 0
DWIDTH 86 0
BBX 84 93 4 -18
BITMAP
00000000000000000001C0
00000000000000000007E0
0000000000000000000FE0
0000000000000000001FC0
0000000000000000003F00
000000000000000000FC00
000000000000000001F800
000000000000000003E000
0000000000000000078000
00000000000000001E0000
0000000000000000380000
0000000000000000300000
0000000000000000000000
0000000000000000000000
000007FFF8000000000000
0001FFFFFFF00000000000
001FF8001FFF0000000000
00FE0000007FE000000000
03F000000003FF80000000
0F80000000007FC0000000
1E00000000001FC0000000
3800000000000780000000
7000000000000700000000
E000000000000F00000030
C000000000000E00000070
C000000000001E000000F0
C000000000001C000001F0
C000000000003C000001E0
40000000000038000003C0
20000000000070000003C0
100000000000F000000780
080000000000E000000780
060000000001E000001F00
018000000001C000001F00
0060000000038000003E00
0000000000038000007E00
0000000000070000007C00
000000000007000000FC00
00000000000E000000B800
00000000000E0000017800
00000000001C0000017800
00000000003C000002F000
000000000038000006F000
000000000070000004E000
000000000070000009E000
0000000000E0000009C000
0000000000E0000013C000
0000000000C0000023C000
0000000001C00000238000
0000000001C00000478000
0000000003800000870000
0000000003800000870000
00000000070000010F0000
00000000070000020E0000
000000000E0000020E0000
000000000E0000041E0000
000000001E0000081C0000
000000001C0000101C0000
000000001C0000101C0000
0000000038000020380000
0000000038000040380000
0000000038000080380000
0000000070000080300000
0000000070000100700000
0000000070000200700000
00000000F0000400700000
00000000E0000800600000
00000000E0001000600000
00000001E0003000E00000
00000001E0006000E00000
00000001E000C000E00000
00000001E0018000E00000
00000001E0030000C00000
00000001E0040000C00000
00000001E0180000C00000
00000001F0300000C00000
00000000F0C00000C00200
00000000FF800000C00200
000000007E000000C00200
0000000000000000C00200
0000000000000000C00200
0000000000000000400200
0000000000000000400200
0000000000000000400600
0000000000000000600600
0000000000000000200600
0000000000000000200C00
0000000000000000300C00
0000000000000000101C00
0000000000000000181800
00000000000000000C7000
000000000000000007F000
000000000000000003C000
ENDCHAR
STARTCHAR 00DB
ENCODING 219
SWIDTH 895 0
DWIDTH 86 0
BBX 84 93 4 -18
BITMAP
0000000000000000030000
00000000000000000F8000
00000000000000001FC000
00000000000000003FE000
00000000000000007BF000
0000000000000001F1F800
0000000000000003E07C00
0000000000000007803F00
000000000000000F000F80
000000000000001E0007C0
00000000000000380001F0
0000000000000030000070
0000000000000000000000
0000000000000000000000
000007FFF0000000000000
0001FFFFFFE00000000000
001FF8001FFE0000000000
00FE0000007FC000000000
03F000000003FF80000000
0F80000000007F80000000
1E00000000001F80000000
3800000000000700000000
7000000000000700000000
E000000000000E00000070
C000000000000E000000F0
C000000000001C000000F0
C0000000000018000001E0
C0000000000038000003E0
40000000000030000003C0
20000000000070000007C0
100000000000E000000780
080000000000E000000780
060000000001C000001F00
018000000001C000003F00
0060000000038000003E00
0000000000030000007E00
0000000000070000007C00
000000000006000000BC00
00000000000E000000F800
00000000000C0000017800
00000000001C0000037000
000000000038000002F000
000000000038000006E000
000000000070000004E000
000000000070000009E000
0000000000E0000019C000
0000000000E0000013C000
0000000000C00000238000
0000000001C00000238000
0000000001800000478000
0000000003800000870000
0000000003000000870000
00000000070000010F0000
00000000070000020E0000
000000000E0000020E0000
000000000E0000041C0000
000000001C0000081C0000
000000001C0000101C0000
000000001C0000103C0000
0000000038000020380000
0000000038000040380000
0000000038000080380000
0000000070000080700000
0000000070000100700000
0000000070000200700000
00000000F0000400700000
00000000E0000800600000
00000000E0001000600000
00000001E0003000E00000
00000001E0006000E00000
00000001E000C000E00000
00000001E0018000E00000
00000001E0030000C00000
00000001E0040000C00000
00000001E0180000C00000
00000001F0300000C00000
00000000F0C00000C00200
00000000FF800000C00200
000000007C000000C00200
0000000000000000C00200
0000000000000000C00200
0000000000000000400200
0000000000000000400200
0000000000000000400600
0000000000000000600600
0000000000000000200600
0000000000000000200C00
0000000000000000300C00
0000000000000000101C00
0000000000000000181800
00000000000000000C7000
000000000000000007F000
000000000000000003C000
ENDCHAR
STARTCHAR 00DC
ENCODING 220
SWIDTH 895 0
DWIDTH 86 0
BBX 84 89 4 -18
BITMAP
0000000000000000180180
0000000000000000700700
0000000000000001E01E00
0000000000000003E03E00
0000000000000007C07C00
0000000000000007C07C00
0000000000000007807800
0000000000000003003000
0000000000000000000000
0000000000000000000000
000007FFF8000000000000
0001FFFFFFF00000000000
001FF8001FFF0000000000
00FE0000007FE000000000
03F000000003FF80000000
0F80000000007FC0000000
1E00000000001FC0000000
3800000000000780000000
7000000000000700000000
E000000000000F00000030
C000000000000E00000070
C000000000001E000000F0
C000000000001C000001F0
C000000000003C000001E0
40000000000038000003C0
20000000000070000003C0
100000000000F000000780
080000000000E000000780
060000000001E000001F00
018000000001C000001F00
0060000000038000003E00
0000000000038000007E00
0000000000070000007C00
000000000007000000FC00
00000000000E000000B800
00000000000E0000017800
00000000001C0000017800
00000000003C000002F000
000000000038000006F000
000000000070000004E000
000000000070000009E000
0000000000E0000009C000
0000000000E0000013C000
0000000000C0000023C000
0000000001C00000238000
0000000001C00000478000
0000000003800000870000
0000000003800000870000
00000000070000010F0000
00000000070000020E0000
000000000E0000020E0000
000000000E0000041E0000
000000001E0000081C0000
000000001C0000101C0000
000000001C0000101C0000
0000000038000020380000
0000000038000040380000
0000000038000080380000
0000000070000080300000
0000000070000100700000
0000000070000200700000
00000000F0000400700000
00000000E0000800600000
00000000E0001000600000
00000001E0003000E00000
00000001E0006000E00000
00000001E000C000E00000
00000001E0018000E00000
00000001E0030000C00000
00000001E0040000C00000
00000001E0180000C00000
00000001F0300000C00000
00000000F0C00000C00200
00000000FF800000C00200
000000007E000000C00200
0000000000000000C00200
0000000000000000C00300
0000000000000000400300
0000000000000000400200
0000000000000000400200
0000000000000000600600
0000000000000000200600
0000000000000000200600
0000000000000000300C00
0000000000000000100C00
0000000000000000181800
00000000000000000C3800
000000000000000007F000
000000000000000003E000
ENDCHAR
STARTCHAR 00DF
ENCODING 223
SWIDTH 312 0
DWIDTH 30 0
BBX 62 81 -25 -20
BITMAP
0000000000001F80
0000000000007FE0
000000000000F870
000000000003F038
000000000007E018
00000000000F8018
00000000000F800C
00000000001F000C
00000000003E000C
00000000003C000C
000000000078000C
0000000000F8000C
0000000000F0000C
0000000001F0000C
0000000001E00018
0000000003C00018
0000000003C00038
0000000003800030
0000000007800070
0000000007000060
000000000F0000E0
000000000E0003C0
000000001E000780
000000001C001F00
000000001C003E00
0000000038007C00
000000003801F000
000000003803E000
0000000070078000
00000000700F0000
00000000601E0000
00000000E01C0000
00000000E0380000
00000000C0700000
00000000C0700000
00000001C0600000
0000000180600000
0000000180600000
0000000380600000
0000000300200000
0000000300200000
0000000700300000
0000000600100000
0000000600100000
0000000600100000
0000000C00080000
0000000C00080000
0000000C00080000
00000018000C0000
0000001800040000
0000001800040000
0000003800060000
0000003000060000
0000003000060000
0000007000061E00
00000060000EF000
000000E0001F8000
000000C0007E0000
000000C001F80000
000001C03FE00000
000001807F800000
000003803E000000
0000038000000000
0000070000000000
0000070000000000
0000060000000000
00000E0000000000
00001C0000000000
00001C0000000000
4000380000000000
C000380000000000
C000700000000000
C000F00000000000
C000E00000000000
E001C00000000000
6003C00000000000
6007800000000000
700F000000000000
383E000000000000
1FF8000000000000
07E0000000000000
ENDCHAR
STARTCHAR 00E0
ENCODING 224
SWIDTH 312 0
DWIDTH 30 0
BBX 35 50 -6 -4
BITMAP
0000380000
00007E0000
00007F0000
00003F8000
00000FC000
000007F000
000001F800
0000007C00
0000001E00
0000000780
00000001C0
00000000C0
0000000000
0000000000
0000000000
0000000000
0000000000
0000001F80
000000FFC0
000003F060
00000F8020
00001F0020
00007C0000
0000F80000
0001E01C00
0003C03E00
0007807C00
000F00FC00
001E017800
003C02F800
003804F000
00700CF000
00F019E000
01E011E000
01C023C000
038043C000
0700838000
0701078000
0E02078000
0C04070000
1C080F0000
38100F0200
38200E0400
70400E0800
71800E3000
63000E6000
E60006C000
FC00070000
F800000000
7000000000
ENDCHAR
STARTCHAR 00E1
ENCODING 225
SWIDTH 312 0
DWIDTH 30 0
BBX 41 50 -6 -4
BITMAP
000000000700
000000001F80
000000003F80
000000007F00
00000000FC00
00000003F000
00000007E000
0000000F8000
0000001E0000
000000780000
000000E00000
000000C00000
000000000000
000000000000
000000000000
000000000000
000000000000
0000001F8000
000001FFC000
000007F0C000
00000F806000
00003E004000
00007C000000
0000F0000000
0001E01C0000
0003C03E0000
0007807C0000
000F00FC0000
001E01780000
003C03780000
007806F00000
00F00CF00000
01E019E00000
01E011E00000
03C023C00000
078043C00000
070083800000
0F0107800000
0E0207800000
1C0407000000
1C080F000000
38100F020000
38200E040000
70400E080000
71800E300000
63000E600000
E60006C00000
FC0007000000
F80000000000
700000000000
ENDCHAR
STARTCHAR 00E2
ENCODING 226
SWIDTH 312 0
DWIDTH 30 0
BBX 42 50 -6 -4
BITMAP
0000000C0000
0000003E0000
0000007F0000
000000FF8000
000001EFC000
000007C7E000
00000F81F000
00001E00FC00
00003C003E00
000078001F00
0000E00007C0
0000C00001C0
000000000000
000000000000
000000000000
000000000000
000000000000
0000001F8000
000001FFC000
000007F0C000
00000F806000
00003E004000
00007C000000
0000F0000000
0001E01C0000
0003C03E0000
0007807C0000
000F00FC0000
001E01780000
003C02F80000
007806F00000
00F00CF00000
01E019E00000
01E011E00000
03C023C00000
078043C00000
070083800000
0F0107800000
0E0207800000
1C0407000000
1C080F000000
38100F020000
38200E040000
70400E080000
71800E300000
63000E600000
E60006C00000
FC0007000000
F80000000000
700000000000
ENDCHAR
STARTCHAR 00E3
ENCODING 227
SWIDTH 312 0
DWIDTH 30 0
BBX 43 46 -6 -4
BITMAP
00000F800000
00001FE00000
00007FF80020
0000F0FE00E0
0001C01F81C0
00018007FF80
00000001FF00
000000003E00
000000000000
000000000000
000000000000
000000000000
000000000000
0000001F8000
000001FFC000
000007F0C000
00000F806000
00003E004000
00007C000000
0000F0000000
0001E01C0000
0003C03E0000
0007807C0000
000F00FC0000
001E01780000
003C02F80000
007806F00000
00F00CF00000
01E019E00000
01E011E00000
03C023C00000
078043C00000
070083800000
0F0107800000
0E0207800000
1C0407000000
1C080F000000
38100F020000
38200E040000
70400E080000
71800E300000
63000E600000
E60006C00000
FC0007000000
F80000000000
700000000000
ENDCHAR
STARTCHAR 00E4
ENCODING 228
SWIDTH 312 0
DWIDTH 30 0
BBX 39 46 -6 -4
BITMAP
0000006006
000001C01C
0000038078
00000780F8
00000F81F0
00000F01F0
00000F01E0
00000600C0
0000000000
0000000000
0000000000
0000000000
0000000000
0000001F80
000001FFC0
000007F0C0
00000F8060
00003E0040
00007C0000
0000F00000
0001E03C00
0003C07C00
000780FC00
000F01F800
001E037800
003C077000
007806F000
00F00CE000
01E019E000
01E031C000
03C063C000
0780C3C000
0701838000
0F03078000
0E06070000
1C0C070000
1C180F0200
38300F0400
38600E0C00
70C00E1800
71800E3000
63000E6000
E60006C000
FC00070000
F800000000
7000000000
ENDCHAR
STARTCHAR 00E5
ENCODING 229
SWIDTH 312 0
DWIDTH 30 0
BBX 35 51 -6 -4
BITMAP
0000000780
0000000FC0
00000018C0
0000003060
0000007860
000000F060
000000F060
000001E060
000001E0C0
000001E0C0
000001E180
000001E300
000000FE00
0000007800
0000000000
0000000000
0000000000
0000000000
0000001F80
000000FFC0
000003F060
00000F8020
00001F0020
00007C0000
0000F80000
0001E01C00
0003C03E00
0007807C00
000F00FC00
001E01B800
003C037800
0038067000
00700CF000
00E018E000
01E011E000
01C021C000
038043C000
0700C38000
0701878000
0E03078000
0C06070000
1C0C0F0000
38180F0200
38300E0400
70600E0800
71C00E3000
63000E6000
E60006C000
FC00070000
F800000000
7000000000
ENDCHAR
STARTCHAR 00E6
ENCODING 230
SWIDTH 437 0
DWIDTH 42 0
BBX 46 34 -6 -4
BITMAP
000000000780
0000001FDFE0
000000FFFFE0
000003FDFF30
00000FC0FC30
00001F00F830
00003C01F030
0000F803E070
0001F01FC0E0
0003C03F80E0
0007807F01C0
000F00FE0380
001E01DE0F00
001C03BC1C04
003807787808
00700E73E018
00F01CFF0030
01E038F80060
01C071C000C0
0380E1C001C0
0781C3800380
070383800700
0E0703800E00
0C0407001800
1C0807003000
181007006000
38200701C000
304007030000
7180078E0000
630003F80000
E60001F00000
FC0000000000
F80000000000
600000000000
ENDCHAR
STARTCHAR 00E7
ENCODING 231
SWIDTH 208 0
DWIDTH 20 0
BBX 24 44 -6 -17
BITMAP
00001E
00003F
0000FF
0001FF
0003C7
000786
000E06
001C06
003800
003000
007000
00E000
01C000
018000
038000
070000
060000
0E0000
0C0008
180030
180060
3801C0
300380
300E00
303C00
30F000
1FE000
0F8000
060000
0C0000
180000
180000
180000
1C0000
0E0000
0F0000
070000
038000
038000
038000
030000
030000
060000
F80000
ENDCHAR
STARTCHAR 00E8
ENCODING 232
SWIDTH 260 0
DWIDTH 25 0
BBX 25 48 -2 -2
BITMAP
00E00000
01F80000
01FC0000
00FE0000
003F0000
001FC000
0007E000
0001F000
00007800
00001E00
00000700
00000300
00000000
00000000
00000000
00000000
0001E000
0003F000
0003F800
0007CC00
000F8C00
000F0C00
001E1C00
003C1C00
00383800
00703800
00E07000
00C0E000
01C1C000
03878000
031E0080
06780100
FFE00200
0F000600
18000C00
38001800
30003000
70006000
7000C000
7001C000
E0038000
E0070000
E00C0000
E0380000
E0700000
E1E00000
7F800000
3E000000
ENDCHAR
STARTCHAR 00E9
ENCODING 233
SWIDTH 260 0
DWIDTH 25 0
BBX 31 48 -2 -2
BITMAP
0000001C
0000007E
000000FE
000001FC
000003F0
00000FC0
00001F80
00003E00
00007800
0001E000
00038000
00030000
00000000
00000000
00000000
00000000
0001E000
0003F000
0003F800
0007CC00
000F8C00
000F0C00
001E1C00
003C1C00
00383800
00703800
00E07000
00C0E000
01C1C000
03878000
031E0080
06780100
FFE00200
0F000600
18000C00
18001800
30003000
70006000
7000C000
7001C000
E0038000
E0070000
E00C0000
E0380000
E0700000
E1E00000
7F800000
3E000000
ENDCHAR
STARTCHAR 00EA
ENCODING 234
SWIDTH 260 0
DWIDTH 25 0
BBX 32 48 -2 -2
BITMAP
00003000
0000F800
0001FC00
0003FE00
0007BF00
001F1F80
003E07C0
007803F0
00F000F8
01E0007C
0380001F
03000007
00000000
00000000
00000000
00000000
0001E000
0003F000
0003F800
0007CC00
000F0C00
000E0C00
001C1C00
00381C00
00303800
00603800
00E07000
00C0E000
0183C000
03078000
021E0080
06F80100
FFE00200
0F000600
18000C00
18001800
30003000
70006000
7000C000
7001C000
E0038000
E0070000
E00C0000
E0380000
E0700000
E1E00000
7F800000
3E000000
ENDCHAR
STARTCHAR 00EB
ENCODING 235
SWIDTH 260 0
DWIDTH 25 0
BBX 29 44 -2 -2
BITMAP
00018018
00070070
001E01E0
003E03E0
007C07C0
007C07C0
00780780
00300300
00000000
00000000
00000000
00000000
0001E000
0003F000
0003F800
0007CC00
000F8C00
000F0C00
001E1C00
003C1C00
00383800
00703800
00E07000
00C0E000
01C1C000
03878000
031E0080
06780100
FFE00200
0F000600
18000C00
18001800
30003000
70006000
7000C000
7001C000
E0038000
E0070000
E00C0000
E0380000
E0700000
E1E00000
7F800000
3E000000
ENDCHAR
STARTCHAR 00EC
ENCODING 236
SWIDTH 145 0
DWIDTH 14 0
BBX 21 48 -2 -2
BITMAP
070000
0FC000
0FE000
07F000
01F800
00FE00
003F00
000F80
0003C0
0000F0
000038
000018
000000
000000
000000
000000
000000
000000
000000
000000
000000
000000
003000
007800
00F800
01F000
01F000
03E000
03C000
07C000
0F8000
0F0000
0E0000
1E0000
1C0000
380000
380000
700000
700000
600000
602000
C04000
C08000
C10000
C20000
CE0000
780000
700000
ENDCHAR
STARTCHAR 00ED
ENCODING 237
SWIDTH 145 0
DWIDTH 14 0
BBX 28 48 -2 -2
BITMAP
000000E0
000003F0
000007F0
00000FE0
00001F80
00007E00
0000FC00
0001F000
0003C000
000F0000
001C0000
00180000
00000000
00000000
00000000
00000000
00000000
00000000
00000000
00000000
00000000
00000000
00300000
00780000
00F80000
01F00000
01F00000
03E00000
03C00000
07C00000
0F800000
0F000000
0E000000
1E000000
1C000000
38000000
38000000
70000000
70000000
60000000
60200000
C0400000
C0800000
C1000000
C2000000
CE000000
78000000
70000000
ENDCHAR
STARTCHAR 00EE
ENCODING 238
SWIDTH 145 0
DWIDTH 14 0
BBX 29 48 -2 -2
BITMAP
00018000
0007C000
000FE000
001FF000
003DF800
00F8FC00
01F03E00
03C01F80
078007C0
0F0003E0
1C0000F8
18000038
00000000
00000000
00000000
00000000
00000000
00000000
00000000
00000000
00000000
00000000
00300000
00780000
00F80000
01F00000
01F00000
03E00000
03C00000
07C00000
0F800000
0F000000
0E000000
1E000000
1C000000
38000000
38000000
70000000
70000000
60000000
60200000
C0400000
C0800000
C1000000
C2000000
CE000000
78000000
70000000
ENDCHAR
STARTCHAR 00EF
ENCODING 239
SWIDTH 145 0
DWIDTH 14 0
BBX 26 44 -2 -2
BITMAP
000C00C0
00380380
00F00F00
01F01F00
03E03E00
03E03E00
03C03C00
01801800
00000000
00000000
00000000
00000000
00000000
00000000
00000000
00000000
00000000
00000000
00300000
00780000
00F80000
01F00000
01F00000
03E00000
03C00000
07C00000
0F800000
0F000000
0E000000
1E000000
1C000000
38000000
38000000
70000000
70000000
60000000
60200000
C0400000
C0800000
C1000000
C2000000
CE000000
78000000
70000000
ENDCHAR
STARTCHAR 00F1
ENCODING 241
SWIDTH 302 0
DWIDTH 29 0
BBX 40 43 -4 -1
BITMAP
00007C0000
0000FF0000
0003FFC001
000787F007
000E00FC0E
000C003FFC
0000000FF8
00000001F0
0000000000
0000000000
0000000000
0000000000
0000000000
0003800000
000F800000
001BC00000
0033C00000
0047801800
0087803C00
0107807800
020F00F800
040F01F800
0C1E03F000
181E07F000
101C0DE000
203819C000
403833C000
8070E38000
0061838000
00C3070000
00C6070000
018E070000
011C0E0000
03380E0000
02700C0000
04600C0000
0CC00C0000
0D800C0000
1B000C6000
1F0007C000
1E00038000
1C00000000
1C00000000
ENDCHAR
STARTCHAR 00F2
ENCODING 242
SWIDTH 229 0
DWIDTH 22 0
BBX 21 47 -1 -1
BITMAP
070000
0FC000
0FE000
07F000
01F800
00FE00
003F00
000F80
0003C0
0000F0
000038
000018
000000
000000
001F80
007FC0
00F0E0
01E060
03C030
078030
070030
0E0030
0E0030
1C7030
1CF030
19E060
3BC060
3BC060
3780C0
3F00C0
3F00C0
3E0180
3C0180
3C0180
380300
700300
780600
600C00
600C00
E01800
C01800
C03000
C06000
C0C000
E38000
7F0000
3C0000
ENDCHAR
STARTCHAR 00F3
ENCODING 243
SWIDTH 229 0
DWIDTH 22 0
BBX 28 47 -1 -1
BITMAP
000000E0
000003F0
000007F0
00000FE0
00001F80
00007E00
0000FC00
0001F000
0003C000
000F0000
001C0000
00180000
00000000
00000000
001F8000
007FC000
00F0E000
01E06000
03C03000
07803000
07003000
0E003000
0E003000
1C703000
1CF03000
19E06000
3BC06000
3BC06000
3780C000
3F00C000
3F00C000
3E018000
3C018000
3C018000
38030000
70030000
78060000
600C0000
600C0000
E0180000
C0180000
C0300000
C0600000
C0C00000
E3800000
7F000000
3C000000
ENDCHAR
STARTCHAR 00F4
ENCODING 244
SWIDTH 229 0
DWIDTH 22 0
BBX 29 47 -1 -1
BITMAP
00030000
00078000
001FC000
003FF000
0079F800
00F0FC00
03E07E00
07C01F80
0F000FC0
1E0003E0
380000F8
30000038
00000000
00000000
001F8000
007FC000
00F0E000
01E06000
03C03000
07803000
07003000
0E003000
0E003000
1C703000
1CF03000
19E06000
3BC06000
3BC06000
3780C000
3F00C000
3F00C000
3E018000
3C018000
3C018000
38030000
70030000
78060000
600C0000
600C0000
E0180000
C0180000
C0300000
C0600000
C0C00000
E3800000
7F000000
3C000000
ENDCHAR
STARTCHAR 00F5
ENCODING 245
SWIDTH 229 0
DWIDTH 22 0
BBX 30 43 -1 -1
BITMAP
01F00000
03FC0000
0FFF0004
1E1FC01C
3803F038
3000FFF0
00003FE0
000007C0
00000000
00000000
001F8000
007FC000
00F0E000
01E06000
03C03000
07803000
07003000
0E003000
0E003000
1C703000
1CF03000
19E06000
3BC06000
3BC06000
3780C000
3F00C000
3F00C000
3E018000
3C018000
3C018000
38030000
70030000
78060000
600C0000
600C0000
E0180000
C0180000
C0300000
C0600000
C0C00000
E3800000
7F000000
3C000000
ENDCHAR
STARTCHAR 00F6
ENCODING 246
SWIDTH 229 0
DWIDTH 22 0
BBX 26 43 -1 -1
BITMAP
000C00C0
00380380
00F00700
01F00F00
03E01F00
03E01E00
03C01E00
01800C00
00000000
00000000
001F8000
007FC000
00F0E000
01E06000
03C03000
07803000
07003000
0E003000
0E003000
1C703000
1CF03000
19E06000
3BC06000
3BC06000
3780C000
3F00C000
3F00C000
3E018000
3C018000
3C018000
38030000
70030000
78060000
600C0000
600C0000
E0180000
C0180000
C0300000
C0600000
C0C00000
E3800000
7F000000
3C000000
ENDCHAR
STARTCHAR 00F7
ENCODING 247
SWIDTH 447 0
DWIDTH 43 0
BBX 31 27 6 5
BITMAP
00003000
0000E000
0001C000
0003C000
0007C000
00078000
00078000
00030000
00000000
00000000
00000000
00000000
7FFFFFF0
FFFFFFFE
7FFF0000
00000000
00000000
00000000
00000000
0000C000
00038000
00070000
000F0000
001F0000
001E0000
001E0000
000C0000
ENDCHAR
STARTCHAR 00F8
ENCODING 248
SWIDTH 229 0
DWIDTH 22 0
BBX 28 52 -1 -9
BITMAP
00000030
00000070
000000E0
000001C0
00000380
00000780
00000700
00000E00
00001E00
00001C00
00003800
001FB000
007FF000
00F0E000
01C0F000
0380F000
0381F000
0703B000
06033000
0E073000
0C763000
0CFC3000
19FC6000
1BD86000
1BB06000
17B04000
1760C000
1E60C000
1EC08000
1CC18000
19818000
19030000
33030000
32060000
66040000
640C0000
6C180000
CC300000
C8700000
D8E00000
D1C00000
F7800000
FF000000
7C000000
20000000
60000000
60000000
40000000
40000000
40000000
40000000
40000000
ENDCHAR
STARTCHAR 00F9
ENCODING 249
SWIDTH 291 0
DWIDTH 28 0
BBX 29 47 -4 -1
BITMAP
00070000
000FC000
000FE000
0007F000
0001F800
0000FE00
00003F00
00000F80
000003C0
000000F0
00000038
00000018
00000000
00000000
00000000
00000000
00000000
00000000
000E0000
007F0000
008F0000
010F01C0
020E03E0
000E03C0
001C07C0
001C0780
00380F00
00381F00
00701E00
00603C00
00E06C00
00C0DC00
01809800
03819800
03031800
06061000
060C3000
0C183000
1C303010
18603020
38E03020
71C03060
738030C0
FE003180
FC003380
F8001F00
E0001C00
ENDCHAR
STARTCHAR 00FA
ENCODING 250
SWIDTH 291 0
DWIDTH 28 0
BBX 36 47 -4 -1
BITMAP
00000000E0
00000003F0
00000007F0
0000000FE0
0000001F80
0000007E00
000000FC00
000001F000
000003C000
00000F0000
00001C0000
0000180000
0000000000
0000000000
0000000000
0000000000
0000000000
0000000000
000E000000
007F000000
008F000000
010F01C000
020E03E000
000E03C000
001C07C000
001C078000
00380F0000
00381F0000
00701E0000
00603C0000
00E06C0000
00C0CC0000
0180D80000
0381980000
0303180000
0606100000
060C300000
0C18300000
1C38301000
1870302000
38E0302000
71C0306000
738030C000
FF00318000
FC00338000
F8001F0000
E0001C0000
ENDCHAR
STARTCHAR 00FB
ENCODING 251
SWIDTH 291 0
DWIDTH 28 0
BBX 37 47 -4 -1
BITMAP
0000018000
000007C000
00000FE000
00001FF000
00003DF800
0000F8FC00
0001F03E00
0003C01F80
00078007C0
000F0003E0
001C0000F8
0018000038
0000000000
0000000000
0000000000
0000000000
0000000000
0000000000
000E000000
007F000000
008F000000
010F01C000
020E03E000
000E03C000
001C07C000
001C078000
00380F0000
00381F0000
00701E0000
00603C0000
00E06C0000
00C0DC0000
0180980000
0381980000
0303180000
0606100000
060C300000
0C18300000
1C30301000
1870302000
38E0302000
71C0306000
738030C000
FE00318000
FC00338000
F8001F0000
E0001C0000
ENDCHAR
STARTCHAR 00FC
ENCODING 252
SWIDTH 291 0
DWIDTH 28 0
BBX 34 43 -4 -1
BITMAP
00000C00C0
0000380380
0000F00F00
0001F01F00
0003E03E00
0003E03E00
0003C03C00
0001801800
0000000000
0000000000
0000000000
0000000000
0000000000
0000000000
000E000000
007F000000
008F000000
010F01C000
020E03E000
000E03C000
001C07C000
001C078000
00380F0000
00381F0000
00701E0000
00603C0000
00E06C0000
00C0DC0000
0180980000
0381980000
0303180000
0606300000
060C300000
0C18300000
1C30301000
1860302000
38E0302000
71C0306000
730030C000
FE00318000
FC00338000
F8001F0000
E0001C0000
ENDCHAR
STARTCHAR 00FF
ENCODING 255
SWIDTH 281 0
DWIDTH 27 0
BBX 50 76 -23 -34
BITMAP
000000000600C0
000000001C0380
00000000780700
00000000F80F00
00000001F01F00
00000001F01E00
00000001E01E00
00000000C00C00
00000000000000
00000000000000
00000000000000
00000000000000
00000000000000
00000003000000
00000003000E00
00000007001E00
0000000F003E00
0000000F007E00
0000001B00DE00
00000013019E00
00000027019C00
00000066033C00
00000046063C00
0000008E0E3C00
0000010E0C3C00
0000020C183800
0000021C387800
0000001C707800
0000001C607000
00000038C0F000
00000039C0F000
0000003B80E000
0000007301E000
0000007701E000
000000EE01C000
000000FC03C000
000000F8038000
000001F8038000
000001F0078000
000003E0070000
000003C00F0000
000003800E0000
000000000E0000
000000001C0000
000000001C0000
000000003C0000
00000000380000
00000000780000
00000000700000
00000000F00000
00000000E00000
00000001C00000
00000001C00000
00000003800000
00000003800000
00000007000000
00000007000000
0000000E000000
0000000C000000
0000001C000000
00000038000000
00000030000000
00000070000000
800000E0000000
800001C0000000
800003C0000000
80000380000000
C0000700000000
C0000E00000000
E0001C00000000
E0003800000000
7000E000000000
7801C000000000
3C070000000000
1FFC0000000000
07E00000000000
ENDCHAR
STARTCHAR 0131
ENCODING 305
SWIDTH 145 0
DWIDTH 14 0
BBX 13 26 -2 -2
BITMAP
0030
0078
00F8
01F0
01F0
03E0
03C0
07C0
0F80
0F00
0E00
1E00
1C00
3800
3800
7000
7000
6000
6020
C040
C080
C100
C200
CE00
7800
7000
ENDCHAR
STARTCHAR 0152
ENCODING 338
SWIDTH 947 0
DWIDTH 91 0
BBX 99 54 1 -3
BITMAP
00000000000000000000000060
00000000FFC00000003FFFFCE0
0000000FFFFC00000FFFFFFFE0
000000FF800F00007FFF8003C0
000003F00001C0007FE0000180
00000FFF000060003F80000380
00003FFF800010003E00000300
0000FDFC000008003C00000200
0003F7F000000C007800000000
0007CFC000000600F000000000
001F1F8000000601E000000000
003C3E0000000203C000000000
00787C00000003078000000000
00E0F800000003070000000000
01C1F0000000030E0000000000
0183E0000000031E0000000000
0307C0000000033C0000000000
000F8000000007780000000000
001F0000000007F00000000000
003E0000000007E01FFF800000
003C0000000007FFFFFF800000
0078000000000FFFFFF0000000
00F0000000000FFE0000000000
01E0000000001F800000000000
01C0000000001E000000000000
03C00000000038000000000000
07800000000038000000000000
07000000000070000000000000
0F0000000000E0000000000000
0E0000000000C0000000000000
1C0000000001C0000000000000
1C000000000380000000000000
38000000000780000000000000
38000000000F00000000000000
70000000001E00000000000000
70000000001E00000000000000
60000000003C00000000000000
6000000000FC00000000000000
E000000001FC00000000000000
C000000003F800000000200000
C000000007F800000000C00000
C00000000FB000000003800000
C00000003E300000000F000000
C00000007C300000003E000000
C0000001F030000001F8000000
C0000003E03000000FE0000000
C000000F803800003F80000000
6000003E003C0003FC00000000
600000F8001F003FF000000000
700003E0001FFFFF0000000000
38001F00000FFFF80000000000
1E01FC000001FF000000000000
0FFFE000000000000000000000
01FE0000000000000000000000
ENDCHAR
STARTCHAR 0153
ENCODING 339
SWIDTH 395 0
DWIDTH 38 0
BBX 37 34 -1 -2
BITMAP
001F800000
003FC00F00
00F8601F80
01E0603FC0
01C0303E60
0380307860
0780307060
070030E060
0F0031C0E0
0E7033C0C0
0EF03381C0
0DF0770380
1DE06E0780
1FC06C0F00
1BC07C1C00
1F80F87800
1F00F1E008
1F00E78010
1E01FE0030
1C01F00060
1C018000C0
3803800180
3803800380
7007000700
7007000E00
600F001C00
E01E003000
C01E006000
C02E00C000
C04E038000
C08E060000
63071C0000
3C07F00000
0003C00000
ENDCHAR
STARTCHAR 0178
ENCODING 376
SWIDTH 875 0
DWIDTH 84 0
BBX 104 118 -14 -47
BITMAP
00000000000000000000060060
000000000000000000001C01C0
00000000000000000000780780
00000000000000000000F80F80
00000000000000000001F01F00
00000000000000000001F01F00
00000000000000000001E01E00
00000000000000000000C00C00
00000000000000000000000000
00000000000000000000000000
00000000007FFF800000000000
000000001FFFFFFF0000000000
00000001FF8003FFF000000000
0000000FE0000007FE00000000
0000003F000000007FF8000000
000000F80000000007F8000000
000003E00000000001F8000000
00000780000000000070000000
00000F000000000000E0000000
00000E000000000001E0000000
00001C000000000001C0000000
00001800000000000380000000
00001800000000000780000000
00001800000000000700000000
00000800000000000E00000700
00000C00000000001E00000700
00000400000000001C00000F00
00000300000000003800000F00
00000180000000007000000F00
00000060000000007000001F00
0000001800000000E000001F00
0000000000000001C000001E00
0000000000000001C000003E00
00000000000000038000007E00
00000000000000070000007E00
0000000000000007000000DC00
000000000000000E000001BC00
000000000000001C000003BC00
000000000000001C0000033C00
00000000000000380000063800
000000000000007000000C3800
000000000000007000000C7800
00000000000000E00000187800
00000000000000C00000307000
00000000000001C00000607000
00000000000003800000C07000
00000000000003800000C0E000
0000000000000700000180E000
0000000000000700000300E000
0000000000000E00000600E000
0000000000000C00000C01C000
0000000000001C00000C01C000
0000000000003800001801C000
00000000000038000030018000
00000000000070000060038000
000000000000700000C0038000
000000000000E0000180030000
000000000000E0000300030000
000000000000E0000200070000
000000000001C0000400060000
000000000001C0000800060000
000000000003800010000E0000
000000000003800020000C0000
000000000007800040000C0000
000000000007800080001C0000
00000000000700010000180000
00000000000700020000180000
00000000000F000C0000380000
00000000000F00180000300000
00000000000F00200000300000
00000000000F00400000700000
00000000000F01800000600000
00000000000F86000000600000
000000000007F8000000E00000
000000000003E0000000C00000
00000000000000000001C00004
00000000000000000001800006
00000000000000000001800007
00000007FFFFFE000003800003
000003FFFFFFFFFF8003000003
00007FE000000FFFFFE7000003
0003F00000000003FFFF000006
001F00000000000000FFFE001C
0078000000000000000E3FFFF8
01E0000000000000001C01FFC0
0380000000000000001C000000
07000000000000000038000000
0E000000000000000038000000
1C000000000000000070000000
38000000000000000060000000
300000000000000000E0000000
700000000000000001C0000000
60000000000000000180000000
E0000000000000000300000000
E0000000000000000700000000
E0000000000000000600000000
E0000000000000000C00000000
E0000000000000001800000000
E0000000000000003000000000
E0000000000000007000000000
F0000000000000006000000000
F000000000000000C000000000
70000000000000018000000000
78000000000000020000000000
78000000000000040000000000
3C000000000000180000000000
3E000000000000300000000000
1F000000000000600000000000
0F800000000001800000000000
07C00000000003000000000000
03E0000000000C000000000000
01F00000000030000000000000
00FC00000000C0000000000000
003F0000000700000000000000
000FE000003C00000000000000
0003FF0007E000000000000000
00007FFFFF0000000000000000
000003FFE00000000000000000
ENDCHAR
ENDFONT
